<?xml version="1.0" encoding="utf-8"?>
<!-- Generator: Adobe Illustrator 22.0.1, SVG Export Plug-In . SVG Version: 6.00 Build 0)  -->
<svg version="1.1" id="Layer_1" xmlns="http://www.w3.org/2000/svg" xmlns:xlink="http://www.w3.org/1999/xlink" x="0px" y="0px"
	 viewBox="0 0 101.2 32.5" style="enable-background:new 0 0 101.2 32.5;" xml:space="preserve">
<style type="text/css">
	.st0{fill:#329E41;}
	.st1{clip-path:url(#SVGID_2_);fill:#C1C1C1;}
	.st2{clip-path:url(#SVGID_4_);fill:#C1C1C1;}
	.st3{fill:#C1C1C1;}
</style>
<g>
	<path class="st0" d="M82,21c0-1-0.4-2-2-2c-1.3,0-1.9,1-2,2H82z M84.3,24.6c-0.8,1.5-2.1,2.4-4.2,2.4c-3.1,0-4.7-1.9-4.7-5
		c0-3,1.8-4.9,4.5-4.9c2.6,0,4.4,1.4,4.4,4.4v1.1h-6.5c0.1,1.6,1,2.3,2.1,2.3c1,0,1.9-0.5,2.3-1.4L84.3,24.6z M69.7,17.1
		c2.3,0,3.5,1,4.2,3l-2.3,0.6c-0.3-1-0.9-1.4-1.8-1.4c-1.4,0-2.1,1-2.1,2.9s0.7,2.9,2.1,2.9c0.9,0,1.5-0.5,1.8-1.4l2.3,0.6
		c-0.6,2-1.9,3-4.2,3c-2.9,0-4.6-1.9-4.6-5S66.9,17.1,69.7,17.1 M62.8,26.8h-2.5v-9.5h2.5L62.8,26.8z M61.6,13.2
		c0.8,0,1.5,0.7,1.5,1.5s-0.7,1.5-1.5,1.5s-1.5-0.7-1.5-1.5C60.1,13.9,60.7,13.2,61.6,13.2C61.6,13.2,61.6,13.2,61.6,13.2
		 M58.6,19.4h-3.3v7.5h-2.5v-9.5h5.8V19.4z M47.7,22.9v-5.6h2.5v5.6c0,2.8-1.4,4.1-4.2,4.1s-4.2-1.3-4.2-4.1v-5.6h2.5v5.6
		c0,1.5,0.6,2,1.7,2C47.2,24.9,47.7,24.4,47.7,22.9 M34.4,13.7h2.5v3.6h3v2.1h-3v4.2c0,1,0.5,1.3,1.3,1.3c0.6,0,0.9-0.2,1.3-0.6
		l1,1.8c-0.8,0.6-1.7,0.9-2.7,0.9c-2.1,0-3.3-1.3-3.3-3.1L34.4,13.7z M29.5,22.9v-5.6H32v5.6c0,2.8-1.4,4.1-4.2,4.1
		s-4.2-1.3-4.2-4.1v-5.6h2.5v5.6c0,1.5,0.6,2,1.7,2C29,24.9,29.5,24.4,29.5,22.9 M16.8,16.1c0-1.9,1.2-3.1,3.3-3.1
		c0.9,0,1.8,0.3,2.5,0.8l-1,1.7c-0.3-0.3-0.7-0.4-1.2-0.4c-0.8,0-1.2,0.5-1.2,1.3v0.9h2.9v2.1h-2.9v7.5h-2.5V16.1z"/>
	<g>
		<g>
			<defs>
				<rect id="SVGID_1_" x="72.9" y="2.1" width="9.4" height="0.4"/>
			</defs>
			<use xlink:href="#SVGID_1_"  style="overflow:visible;fill:#C1C1C1;"/>
			<clipPath id="SVGID_2_">
				<use xlink:href="#SVGID_1_"  style="overflow:visible;"/>
			</clipPath>
			<rect x="67.9" y="-2.9" class="st1" width="19.4" height="10.4"/>
		</g>
		<g>
			<defs>
				<rect id="SVGID_3_" x="18.9" y="2.1" width="9.4" height="0.4"/>
			</defs>
			<use xlink:href="#SVGID_3_"  style="overflow:visible;fill:#C1C1C1;"/>
			<clipPath id="SVGID_4_">
				<use xlink:href="#SVGID_3_"  style="overflow:visible;"/>
			</clipPath>
			<rect x="13.9" y="-2.9" class="st2" width="19.4" height="10.4"/>
		</g>
		<g>
			<path class="st3" d="M34.5,0.5c0.7,0,1.2,0.4,1.2,1.1c0,0.5-0.4,0.9-0.7,0.9v0.1c0.4,0,0.8,0.4,0.8,1c0,0.7-0.4,1.2-1.3,1.2h-1.7
				V0.5H34.5z M34.5,4.3c0.5,0,0.8-0.3,0.8-0.7c0-0.4-0.3-0.8-1-0.8h-0.9v1.5H34.5z M33.4,0.9v1.4h0.9c0.5,0,0.8-0.3,0.8-0.8
				c0-0.4-0.3-0.7-0.8-0.7H33.4z"/>
			<path class="st3" d="M39.9,3.2V0.5h0.5v2.8c0,1-0.5,1.6-1.5,1.6c-1,0-1.5-0.6-1.5-1.6V0.5h0.5v2.7c0,0.8,0.3,1.2,1,1.2
				C39.6,4.4,39.9,4,39.9,3.2z"/>
			<path class="st3" d="M42.2,0.5h2.6v0.4h-1v3.5h1v0.4h-2.6V4.4h1V0.9h-1V0.5z"/>
			<path class="st3" d="M47,0.5h0.5v3.9h2.2v0.5H47V0.5z"/>
			<path class="st3" d="M51,0.5h3.5v0.5H53v3.9h-0.5V0.9H51V0.5z"/>
			<path class="st3" d="M62.2,0.5c0.7,0,1.2,0.4,1.2,1.1c0,0.5-0.4,0.9-0.7,0.9v0.1c0.4,0,0.8,0.4,0.8,1c0,0.7-0.4,1.2-1.3,1.2h-1.7
				V0.5H62.2z M62.2,4.3C62.7,4.3,63,4,63,3.6c0-0.4-0.3-0.8-1-0.8h-0.9v1.5H62.2z M61.2,0.9v1.4h0.9c0.5,0,0.8-0.3,0.8-0.8
				c0-0.4-0.3-0.7-0.8-0.7H61.2z"/>
			<path class="st3" d="M68.3,0.6l-1.4,2.5v1.7h-0.5V3.1L65,0.6V0.5h0.5l1.1,2h0.1l1.1-2h0.5V0.6z"/>
		</g>
	</g>
</g>
</svg>
