<svg xmlns="http://www.w3.org/2000/svg" width="15.274" height="18" viewBox="0 0 15.274 18"><defs><style>.a{fill:#938b82;}</style></defs><path class="a" d="M15.19,16.419A2.524,2.524,0,0,1,13,18.329a2.87,2.87,0,0,1-2.566-.406,1.957,1.957,0,0,1-.107-2.959c.676-.644,1.627-.776,3.055-1.026A.99.99,0,0,0,14,13.643c.255-.286.175-.163.175-6.491,0-.445-.219-.569-.676-.489-.326.056-7.386,1.376-7.386,1.376-.406.088-.533.207-.533.664,0,9.335.044,8.906-.1,9.526a2.315,2.315,0,0,1-1.2,1.571,4.631,4.631,0,0,1-2.522.414A2.031,2.031,0,0,1,.6,16.769c.676-.644,1.627-.776,3.055-1.026a.99.99,0,0,0,.621-.294c.4-.457.072-10.207.207-10.748a.783.783,0,0,1,.282-.513A1.208,1.208,0,0,1,5.3,3.969c8.114-1.519,9.1-1.714,9.244-1.714a.626.626,0,0,1,.72.7C15.269,16.658,15.305,15.922,15.19,16.419Z" transform="translate(0.001 -2.253)"/></svg>