<?xml version="1.0" encoding="utf-8"?>
<!-- Generator: Adobe Illustrator 22.0.1, SVG Export Plug-In . SVG Version: 6.00 Build 0)  -->
<svg version="1.1" xmlns="http://www.w3.org/2000/svg" xmlns:xlink="http://www.w3.org/1999/xlink" x="0px" y="0px"
	 viewBox="0 0 64 64" style="enable-background:new 0 0 64 64;" xml:space="preserve">
<style type="text/css">
	.st0{fill:#E8E8E8;}
	.st1{fill:#FFFFFF;}
	.st2{fill:#C1C1C1;}
	.st3{fill:#D903CA;}
	.st4{fill:#0068FD;}
	.st5{fill:#333E34;}
	.st6{fill:#6EC872;}
	.st7{fill:#266826;}
	.st8{fill:#FFF700;}
	.st9{fill:#329E41;}
	.st10{fill:#41AF46;}
	.st11{fill:#FF9100;}
	.st12{fill:#F0D6C3;}
	.st13{fill:#6E1A15;}
	.st14{fill:#FF5240;}
	.st15{fill:#FF0307;}
</style>
<g id="Keskiharmaa">
	<path class="st0" d="M49,51v-1h-1v-1h-1v-2v-1h-1v-4h-1v-4h-1v-1v-2h-1v-4v-2v-1h-1v-1v-1v-1h-1v-1h-1v-1h-1v-1h-1v-1h-1v-1h-2v-1
		h-3v1h-1v1h-2v-1h-1v-1h-2v1v1h-1v2h-2v1v1h2v1h-4v1v1h-1v1h-1v2h-1v1v1h1v2h-3v1h-1v1h-2v2h2v1v1h-1v1h-1v1h3v-1h2v-1h2v1v1h1v-1
		h1v-1v-1h1v-1h2v-2h-1v-1h-1v-1h2v1h1v1h5v-1h1v-1h1v-2v-1h1v-4h1v-1h1v1h1v1h1v2h1v4v2h-1v2h-1v2h-1v1h-1v1h-1v1h-1v1h-1v1h-1v1v1
		h-1v2h-1v3h-1v3h-1v3h1h1h1v-2h1v-3h1v-3h1v-2h1v-2h1v1v1v1h-1v1v1v1v1h-1v1v1v1v1v1h5v-1h3v-1h3v-1h2v-1h2v-1h1v-1h1v-1v-1H49z
		 M21,29h1v-2h3v1h-1v1h-1v1h-1v1h-1V29z M23,31h1v-1h1v-1h1v1h-1v1h-1v1h-1V31z M44,45v-1v-1h-1v-1v-1v-2h1v4h1v3h-1V45z M44,47h1
		v1h-1V47z"/>
</g>
<g id="Valkoinen">
	<g>
		<rect x="27" y="13" class="st1" width="1" height="1"/>
		<rect x="28" y="14" class="st1" width="1" height="2"/>
		<polygon class="st1" points="51,48 51,46 50,46 50,43 49,43 49,42 49,38 49,37 48,37 48,35 48,32 47,32 47,28 46,28 46,26 45,26 
			45,25 45,24 44,24 44,23 43,23 43,22 42,22 42,21 40,21 40,20 38,20 38,19 36,19 36,18 32,18 31,18 31,17 30,17 30,16 29,16 
			29,21 30,21 31,21 31,20 32,20 32,19 35,19 35,20 37,20 37,21 38,21 38,22 39,22 39,23 40,23 40,24 41,24 41,25 42,25 42,26 
			42,28 43,28 43,32 43,35 44,35 44,37 44,38 45,38 45,42 46,42 46,43 46,46 47,46 47,48 47,49 48,49 48,50 49,50 49,51 50,51 
			50,52 51,52 51,51 52,51 52,50 52,49 52,48 		"/>
		<rect x="43" y="39" class="st1" width="1" height="4"/>
		<rect x="44" y="43" class="st1" width="1" height="3"/>
		<rect x="44" y="47" class="st1" width="1" height="1"/>
		<polygon class="st1" points="35,28 34,28 34,29 34,32 33,32 33,35 32,35 32,36 31,36 31,37 28,37 28,38 29,38 29,39 33,39 33,38 
			34,38 34,37 35,37 35,36 36,36 36,35 36,32 36,29 35,29 		"/>
	</g>
</g>
<g id="Harmaa">
	<g>
		<polygon class="st2" points="28,20 29,20 29,16 28,16 28,14 27,14 27,18 28,18 		"/>
		<polygon class="st2" points="25,23 25,21 24,21 24,22 23,22 23,23 24,23 		"/>
		<polygon class="st2" points="21,26 25,26 25,25 23,25 23,24 23,23 22,23 22,24 21,24 21,25 20,25 20,26 20,27 19,27 19,29 20,29 
			20,28 21,28 		"/>
		<polygon class="st2" points="23,29 22,29 21,29 21,31 22,31 22,30 23,30 		"/>
		<rect x="23" y="31" class="st2" width="1" height="1"/>
		<rect x="24" y="30" class="st2" width="1" height="1"/>
		<rect x="25" y="29" class="st2" width="1" height="1"/>
		<rect x="18" y="29" class="st2" width="1" height="2"/>
		<polygon class="st2" points="17,33 16,33 16,34 15,34 15,35 14,35 14,36 13,36 13,37 14,37 15,37 15,36 16,36 16,35 19,35 19,33 
			18,33 18,31 17,31 		"/>
		<polygon class="st2" points="25,40 27,40 27,39 29,39 29,38 28,38 28,37 26,37 26,36 25,36 25,35 23,35 23,36 24,36 24,37 25,37 
			25,38 25,39 23,39 23,40 22,40 22,41 22,42 24,42 24,41 25,41 		"/>
		<rect x="21" y="42" class="st2" width="1" height="1"/>
		<polygon class="st2" points="12,40 13,40 14,40 14,41 15,41 15,40 15,39 13,39 13,37 12,37 		"/>
		<rect x="13" y="41" class="st2" width="1" height="1"/>
		<rect x="12" y="42" class="st2" width="1" height="1"/>
		<rect x="13" y="43" class="st2" width="2" height="1"/>
		<polygon class="st2" points="18,45 18,44 19,44 19,43 20,43 20,42 20,41 18,41 18,42 16,42 16,44 15,44 15,45 		"/>
		<polygon class="st2" points="38,31 38,29 37,29 37,28 36,28 36,27 35,27 35,29 36,29 36,31 36,33 37,33 37,36 36,36 36,37 35,37 
			35,38 34,38 34,39 33,39 33,40 30,40 30,42 29,42 29,44 28,44 28,45 28,46 27,46 27,48 27,50 27,51 26,51 26,52 26,53 26,54 
			25,54 25,56 25,58 26,58 26,59 27,59 27,58 27,56 28,56 28,54 28,53 29,53 29,52 29,51 29,50 30,50 30,48 31,48 31,46 32,46 
			32,45 33,45 33,44 34,44 34,43 35,43 35,42 36,42 36,41 37,41 37,39 38,39 38,37 39,37 39,33 39,31 		"/>
		<polygon class="st2" points="34,49 33,49 33,51 32,51 32,54 31,54 31,57 30,57 30,59 31,59 32,59 33,59 33,54 34,54 34,50 35,50 
			35,47 34,47 		"/>
	</g>
</g>
<g id="Lila">
	<polygon class="st3" points="51,44 51,45 50,45 50,46 51,46 51,48 52,48 52,49 52,50 53,50 53,49 54,49 54,48 55,48 55,46 56,46 
		56,44 	"/>
</g>
<g id="Sininen">
	<polygon class="st4" points="55,39 55,38 50,38 50,39 49,39 49,41 49,43 50,43 50,44 50,45 51,45 51,44 57,44 57,43 57,41 58,41 
		58,39 	"/>
</g>
<g id="Musta">
	<g>
		<rect x="5" y="38" class="st5" width="1" height="1"/>
		<rect x="6" y="41" class="st5" width="1" height="1"/>
		<polygon class="st5" points="13,41 14,41 14,40 12,40 12,41 12,42 13,42 		"/>
		<rect x="7" y="44" class="st5" width="1" height="1"/>
		<rect x="8" y="46" class="st5" width="1" height="1"/>
		<rect x="15" y="43" class="st5" width="1" height="1"/>
		<polygon class="st5" points="14,46 15,46 18,46 18,45 15,45 15,44 14,44 		"/>
		<rect x="18" y="44" class="st5" width="1" height="1"/>
		<rect x="19" y="43" class="st5" width="3" height="1"/>
		<rect x="22" y="42" class="st5" width="2" height="1"/>
		<rect x="24" y="41" class="st5" width="1" height="1"/>
		<rect x="25" y="40" class="st5" width="2" height="1"/>
		<rect x="27" y="39" class="st5" width="6" height="1"/>
		<rect x="33" y="38" class="st5" width="1" height="1"/>
		<rect x="36" y="33" class="st5" width="1" height="3"/>
		<rect x="35" y="36" class="st5" width="1" height="1"/>
		<rect x="34" y="37" class="st5" width="1" height="1"/>
		<polygon class="st5" points="24,28 25,28 25,27 24,27 22,27 22,29 24,29 		"/>
		<rect x="9" y="48" class="st5" width="1" height="1"/>
		<rect x="10" y="49" class="st5" width="1" height="1"/>
		<rect x="11" y="50" class="st5" width="1" height="1"/>
		<rect x="12" y="51" class="st5" width="1" height="1"/>
		<rect x="13" y="52" class="st5" width="1" height="1"/>
		<rect x="14" y="53" class="st5" width="1" height="1"/>
		<rect x="15" y="54" class="st5" width="1" height="1"/>
		<rect x="16" y="55" class="st5" width="2" height="1"/>
		<rect x="18" y="56" class="st5" width="2" height="1"/>
		<rect x="20" y="57" class="st5" width="3" height="1"/>
		<rect x="23" y="58" class="st5" width="3" height="1"/>
		<rect x="26" y="59" class="st5" width="12" height="1"/>
		<rect x="38" y="58" class="st5" width="3" height="1"/>
		<rect x="41" y="57" class="st5" width="3" height="1"/>
		<rect x="44" y="56" class="st5" width="2" height="1"/>
		<rect x="46" y="55" class="st5" width="2" height="1"/>
		<rect x="48" y="54" class="st5" width="1" height="1"/>
		<rect x="49" y="53" class="st5" width="1" height="1"/>
		<rect x="50" y="52" class="st5" width="1" height="1"/>
		<rect x="51" y="51" class="st5" width="1" height="1"/>
		<rect x="52" y="50" class="st5" width="1" height="1"/>
		<rect x="53" y="49" class="st5" width="1" height="1"/>
		<rect x="54" y="48" class="st5" width="1" height="1"/>
		<rect x="55" y="46" class="st5" width="1" height="1"/>
		<rect x="56" y="44" class="st5" width="1" height="1"/>
		<rect x="57" y="41" class="st5" width="1" height="1"/>
		<rect x="58" y="38" class="st5" width="1" height="1"/>
	</g>
</g>
<g id="Green_2">
	<g>
		<rect x="24" y="18" class="st6" width="1" height="2"/>
		<rect x="25" y="20" class="st6" width="1" height="1"/>
	</g>
</g>
<g id="Green_3">
	<g>
		<rect x="23" y="19" class="st7" width="1" height="1"/>
		<rect x="24" y="20" class="st7" width="1" height="1"/>
	</g>
</g>
<g id="Layer_12">
</g>
<g id="Yellow">
	<polygon class="st8" points="57,26 57,25 47,25 47,26 46,26 46,28 47,28 47,31 47,32 49,32 49,31 55,31 55,32 59,32 59,31 59,28 
		59,26 	"/>
</g>
<g id="Futurice_Green">
	<g>
		<polygon class="st9" points="50,12 50,11 49,11 49,10 48,10 48,9 46,9 46,8 44,8 44,7 41,7 41,6 38,6 38,5 26,5 26,6 23,6 23,7 
			20,7 20,8 18,8 18,9 17,9 17,10 18,10 18,11 19,11 19,12 20,12 20,13 22,13 22,14 23,14 23,15 24,15 24,16 25,16 25,18 25,19 
			25,20 26,20 26,19 28,19 28,18 27,18 27,16 27,15 27,14 27,13 28,13 28,14 29,14 29,15 29,16 30,16 30,17 31,17 31,18 35,18 
			35,17 36,17 36,16 38,16 38,15 40,15 40,14 43,14 43,13 51,13 51,12 		"/>
		<rect x="51" y="13" class="st9" width="1" height="1"/>
		<polygon class="st9" points="27,41 25,41 25,42 24,42 24,43 22,43 22,44 19,44 19,45 18,45 18,46 14,46 14,44 13,44 13,43 12,43 
			12,41 12,38 12,37 13,37 13,36 14,36 14,35 15,35 15,34 16,34 16,33 17,33 17,31 18,31 18,29 19,29 19,27 20,27 20,26 20,25 
			21,25 21,24 22,24 22,23 23,23 23,22 24,22 24,20 20,20 20,19 19,19 19,18 18,18 18,17 17,17 17,16 16,16 16,15 15,15 15,14 
			15,13 14,13 14,12 13,12 13,13 12,13 12,14 11,14 11,15 10,15 10,16 9,16 9,17 9,18 8,18 8,19 8,20 7,20 7,22 7,23 6,23 6,24 
			6,25 6,26 5,26 5,27 5,29 5,31 5,33 5,34 5,35 5,36 5,37 5,38 6,38 6,41 7,41 7,43 7,44 8,44 8,46 9,46 9,48 10,48 10,49 11,49 
			11,50 12,50 12,51 13,51 13,52 14,52 14,53 15,53 15,54 16,54 16,55 18,55 18,56 20,56 20,57 23,57 23,58 25,58 25,57 25,56 
			25,55 25,54 26,54 26,53 26,52 26,51 27,51 27,50 27,49 27,48 27,46 28,46 28,45 28,44 29,44 29,43 29,42 30,42 30,41 30,40 
			27,40 		"/>
	</g>
</g>
<g id="Green_1">
	<polygon class="st10" points="55,32 55,31 49,31 49,32 48,32 48,37 49,37 49,38 49,39 50,39 50,38 55,38 55,39 58,39 58,38 59,38 
		59,37 59,32 	"/>
</g>
<g id="Orange">
	<polygon class="st11" points="57,23 57,22 57,21 57,20 54,20 54,19 46,19 46,20 43,20 43,21 42,21 42,22 43,22 43,23 44,23 44,24 
		45,24 45,25 45,26 47,26 47,25 57,25 57,26 58,26 58,25 58,24 58,23 	"/>
</g>
<g id="Beige">
	<polygon class="st12" points="23,16 23,15 22,15 22,16 21,16 21,17 22,17 22,18 24,18 24,17 24,16 	"/>
</g>
<g id="Red_3">
	<g>
		<rect x="6" y="5" class="st13" width="1" height="1"/>
		<rect x="7" y="6" class="st13" width="2" height="1"/>
		<polygon class="st13" points="13,9 12,9 12,8 11,8 11,7 9,7 9,8 10,8 10,9 11,9 11,10 12,10 12,11 13,11 13,10 		"/>
		<rect x="13" y="11" class="st13" width="1" height="1"/>
		<rect x="14" y="12" class="st13" width="1" height="1"/>
		<rect x="15" y="14" class="st13" width="1" height="1"/>
		<rect x="16" y="15" class="st13" width="1" height="1"/>
		<rect x="17" y="16" class="st13" width="1" height="1"/>
		<rect x="18" y="17" class="st13" width="1" height="1"/>
		<rect x="19" y="18" class="st13" width="1" height="1"/>
		<rect x="20" y="19" class="st13" width="3" height="1"/>
	</g>
</g>
<g id="Red_2">
	<g>
		<rect x="7" y="4" class="st14" width="1" height="1"/>
		<rect x="9" y="5" class="st14" width="2" height="1"/>
		<rect x="12" y="6" class="st14" width="1" height="1"/>
		<rect x="13" y="7" class="st14" width="1" height="1"/>
		<rect x="14" y="8" class="st14" width="1" height="1"/>
		<polygon class="st14" points="22,14 22,13 20,13 20,12 19,12 19,11 18,11 18,10 17,10 17,9 15,9 15,10 14,10 14,11 14,12 15,12 
			15,11 17,11 17,12 17,13 16,13 16,14 19,14 19,15 20,15 20,16 19,16 19,17 21,17 21,16 22,16 22,15 23,15 23,14 		"/>
		<rect x="23" y="15" class="st14" width="1" height="1"/>
		<rect x="24" y="16" class="st14" width="1" height="2"/>
	</g>
</g>
<g id="Red_1">
	<rect x="40" y="20" class="st15" width="3" height="1"/>
	<g>
		<rect x="5" y="4" class="st15" width="2" height="1"/>
		<rect x="7" y="5" class="st15" width="2" height="1"/>
		<polygon class="st15" points="15,9 14,9 14,8 13,8 13,7 12,7 12,6 9,6 9,7 11,7 11,8 12,8 12,9 13,9 13,10 13,11 14,11 14,10 
			15,10 		"/>
		<polygon class="st15" points="17,13 17,11 15,11 15,13 15,14 16,14 16,13 		"/>
		<polygon class="st15" points="20,16 20,15 19,15 19,14 16,14 16,15 17,15 17,16 18,16 18,17 19,17 19,16 		"/>
		<polygon class="st15" points="22,17 19,17 19,18 20,18 20,19 24,19 24,18 22,18 		"/>
		<polygon class="st15" points="55,18 55,17 55,16 54,16 54,15 53,15 53,14 51,14 51,13 43,13 43,14 40,14 40,15 38,15 38,16 36,16 
			36,17 35,17 35,18 36,18 36,19 38,19 38,20 46,20 46,19 54,19 54,20 56,20 56,19 56,18 		"/>
	</g>
</g>
</svg>
