<svg viewBox="0 0 50 50" version="1.1" xmlns="http://www.w3.org/2000/svg" xmlns:xlink="http://www.w3.org/1999/xlink">
    <!-- Generator: Sketch 49.3 (51167) - http://www.bohemiancoding.com/sketch -->
    <desc>Created with Sketch.</desc>
    <defs></defs>
    <g id="Page-1" stroke="none" stroke-width="1" fill="none" fill-rule="evenodd">
        <g id="ICO_x" fill="#FF621D" fill-rule="nonzero">
            <path d="M27.83,25 L49.16,3.66 C49.8395536,2.86647945 49.7938645,1.68361166 49.0551264,0.944873559 C48.3163883,0.206135461 47.1335206,0.160446408 46.34,0.84 L25,22.17 L3.66,0.84 C2.86647945,0.160446408 1.68361166,0.206135461 0.944873559,0.944873559 C0.206135461,1.68361166 0.160446408,2.86647945 0.84,3.66 L22.17,25 L0.84,46.34 C0.269247681,46.8287798 0.0206361115,47.5962368 0.19637973,48.3268379 C0.372123349,49.0574391 0.9425609,49.6278767 1.67316206,49.8036203 C2.40376321,49.9793639 3.17122024,49.7307523 3.66,49.16 L25,27.83 L46.34,49.16 C47.1335206,49.8395536 48.3163883,49.7938645 49.0551264,49.0551264 C49.7938645,48.3163883 49.8395536,47.1335206 49.16,46.34 L27.83,25 Z" id="Shape"></path>
        </g>
    </g>
</svg>