<svg xmlns="http://www.w3.org/2000/svg" width="18" height="18" viewBox="0 0 18 18"><defs><style>.a{fill:#938b82;}</style></defs><path class="a" d="M9,.563a9,9,0,1,0,9,9A9,9,0,0,0,9,.563ZM12.654,13.8a.692.692,0,0,1-.388-.131,10.242,10.242,0,0,0-7.5-.889,2.343,2.343,0,0,1-.432.094.565.565,0,0,1-.573-.573.575.575,0,0,1,.494-.61,11.585,11.585,0,0,1,8.6.951.614.614,0,0,1,.352.6.548.548,0,0,1-.552.559Zm.976-2.381a.9.9,0,0,1-.446-.152A11.761,11.761,0,0,0,4.525,10.2a1.5,1.5,0,0,1-.432.094.7.7,0,0,1-.7-.7.714.714,0,0,1,.563-.751A12.206,12.206,0,0,1,7.5,8.35,12.7,12.7,0,0,1,13.925,10a.757.757,0,0,1,.41.715.7.7,0,0,1-.7.708Zm1.125-2.765a.835.835,0,0,1-.468-.142C11.7,6.975,7.084,6.6,4.094,7.44a1.724,1.724,0,0,1-.468.094.838.838,0,0,1-.846-.856.857.857,0,0,1,.631-.867,15.21,15.21,0,0,1,4.264-.552,15.327,15.327,0,0,1,7.454,1.735.852.852,0,0,1,.468.82.841.841,0,0,1-.842.846Z" transform="translate(0 -0.563)"/></svg>