<?xml version="1.0" encoding="UTF-8"?>
<svg width="48px" height="70px" viewBox="0 0 48 70" version="1.1" xmlns="http://www.w3.org/2000/svg" xmlns:xlink="http://www.w3.org/1999/xlink">
	<!-- Generator: Sketch 49 (51002) - http://www.bohemiancoding.com/sketch -->
	<title>ICON-download</title>
	<desc>Created with Sketch.</desc>
	<defs></defs>
	<g id="Page-1" stroke="none" stroke-width="1" fill="none" fill-rule="evenodd">
		<g id="ICON-download" fill="#FE9933" fill-rule="nonzero">
			<path d="M21.8,53.2 C22.4,53.8 23.2,54 24,54 L24.1,54 C24.9,54.1 25.7,53.8 26.3,53.2 L45.6,33.8 C46.7,32.7 46.7,30.9 45.6,29.8 C44.5,28.7 42.7,28.7 41.6,29.8 L27.3,44.1 L27.3,3.9 C27.3,2.1 25.8,0.6 24,0.6 C22.2,0.6 20.7,2.1 20.7,3.9 L20.7,44.1 L6.5,29.8 C5.4,28.7 3.6,28.7 2.4,29.8 C1.3,30.9 1.3,32.7 2.4,33.8 L21.8,53.2 Z" id="Shape"></path>
			<path d="M44.7,62.8 L3.3,62.8 C1.6,62.8 0.1,64.2 0.1,66 C0.1,67.8 1.5,69.2 3.3,69.2 L44.6,69.2 C46.3,69.2 47.8,67.8 47.8,66 C47.8,64.2 46.4,62.8 44.7,62.8 Z" id="Shape"></path>
		</g>
	</g>
</svg>