<svg xmlns="http://www.w3.org/2000/svg" width="18" height="10.043" viewBox="0 0 18 10.043"><defs><style>.a{fill:#938b82;}</style></defs><path class="a" d="M11.038,18h3.281v-.994H11.036V18ZM3.68,18H6.96v-.994H3.68V18h0ZM0,18H3.281v-.994H0V18Zm7.357,0h3.285v-.994H7.358Zm7.361,0H18v-.994H14.719Zm0-1.293H18v-.99H14.719v1Zm-7.361,0h3.292v-.99H7.358v1ZM0,16.706H3.286v-.99H0v1Zm3.683,0H6.968v-.99H3.683v1Zm7.373,0h3.285v-.99h-3.3v1.005l.013-.007Zm0-1.29h3.285v-.99h-3.3v1h.013Zm-7.354,0h3.27v-.99H3.683v1h.012Zm-3.68,0h3.27v-.99H0v1H.012Zm7.358,0h3.285v-.99h-3.3v1h.012Zm7.369,0H18v-.99H14.719v1h.02Zm0-1.29H18v-1H14.719v.994h.02Zm-7.358,0h3.272v-1h-3.3v.994h.025Zm-7.358,0H3.3v-1H0v.994H.023Zm11.047,0h3.285v-1H11.044v.994h.033Zm0-1.29h3.285v-1H11.044v.99h.033Zm-11.047,0H3.3v-.99H0v.99H.023Zm7.358,0h3.285v-.99H7.358v.99h.024Zm7.358,0H18v-1H14.719v1h.02Zm-7.391-1.3h3.285v-.995H7.358Zm7.361,0H18v-.994H14.719v.994ZM7.358,10.244h3.285v-1H7.358v1Zm7.361,0H18v-1H14.719v1Zm0-1.294H18V7.956H14.719Z" transform="translate(0 -7.956)"/></svg>