<?xml version="1.0" encoding="UTF-8"?>
<svg width="32px" height="33px" viewBox="0 0 32 33" version="1.1" xmlns="http://www.w3.org/2000/svg" xmlns:xlink="http://www.w3.org/1999/xlink">
    <!-- Generator: Sketch 46.2 (44496) - http://www.bohemiancoding.com/sketch -->
    <title>at-sign</title>
    <desc>Created with Sketch.</desc>
    <defs></defs>
    <g id="Page-1" stroke="none" stroke-width="1" fill="none" fill-rule="evenodd" opacity="0.699999988">
        <g id="wie-sie-helfen-donate-copy" transform="translate(-1132.000000, -668.000000)" stroke="#444444" stroke-width="2">
            <g id="at-sign" transform="translate(1133.000000, 669.000000)">
                <path d="M22.764,28.589 C19.337,29.899 8.881,32.039 3.209,25.513 C-2.285,19.191 0.099,9.622 4.209,4.838 C7.931,0.515 15.616,-1.484 22.35,1.25 C29.084,3.984 30.207,10.306 29.971,13.95 C29.735,17.594 28.612,21.525 24.949,21.81 C21.286,22.095 20.695,18.677 20.459,17.026 C20.223,15.375 21.109,8.312 21.109,8.312 C13.074,5.863 10.239,10.135 9.352,12.755 C8.465,15.375 8.17,19.476 11.479,21.241 C14.788,23.006 19.159,20.728 20.459,17.026" id="Shape"></path>
            </g>
        </g>
    </g>
</svg>