<svg xmlns="http://www.w3.org/2000/svg" xmlns:xlink="http://www.w3.org/1999/xlink" width="80" height="73" viewBox="0 0 80 73">
  <defs>
    <polygon id="icon-briefcase-a" points="0 48.28 0 .289 75.08 .289 75.08 48.28"/>
    <polygon id="icon-briefcase-c" points="0 72.861 79.507 72.861 79.507 0 0 0"/>
  </defs>
  <g fill="none" fill-rule="evenodd">
    <g transform="translate(0 20.861)">
      <mask id="icon-briefcase-b" fill="#fff">
        <use xlink:href="#icon-briefcase-a"/>
      </mask>
      <path fill="#FF621D" d="M-0.0002,44.3571 C-0.0002,47.8021 2.5428,48.1931 5.2828,48.1931 C8.0218,48.1931 66.9938,48.3891 70.9638,48.1931 C74.9338,47.9981 74.9338,46.3351 74.9338,42.5591 C74.9338,38.4111 75.1438,7.2631 75.0608,4.5241 C74.9418,0.6111 73.3688,0.2891 69.0638,0.4851 C64.7598,0.6811 6.8478,0.2891 5.2828,0.2891 C3.7168,0.2891 -0.0002,0.2221 -0.0002,4.3301 L-0.0002,44.3571 Z" mask="url(#icon-briefcase-b)"/>
    </g>
    <path stroke="#4D4D4D" stroke-linecap="round" stroke-linejoin="round" stroke-width="2" d="M3.4266 27.911L3.4266 67.937C3.4266 71.383 5.9696 71.774 8.7096 71.774 11.4486 71.774 70.4206 71.97 74.3906 71.774 78.3606 71.579 78.3606 69.915 78.3606 66.139 78.3606 61.992 78.5706 30.844 78.4876 28.104 78.3686 24.192 76.7956 23.87 72.4906 24.066 68.1866 24.262 10.2746 23.87 8.7096 23.87 7.1446 23.87 3.4266 23.803 3.4266 27.911zM31.8069 23.0575L31.8069 18.5055C31.8069 16.7745 32.7859 16.6015 34.5459 16.6015 36.3069 16.6015 46.6819 16.5925 48.4429 16.5925 49.9509 16.5925 50.1269 17.5735 50.1269 18.6535L50.1269 23.8695"/>
    <mask id="icon-briefcase-d" fill="#fff">
      <use xlink:href="#icon-briefcase-c"/>
    </mask>
    <polygon stroke="#4D4D4D" stroke-linecap="round" stroke-linejoin="round" stroke-width="2" points="35.686 50.83 46.247 50.83 46.247 44.219 35.686 44.219" mask="url(#icon-briefcase-d)"/>
    <path stroke="#4D4D4D" stroke-linecap="round" stroke-linejoin="round" stroke-width="2" d="M46.2474 47.6893C57.6044 47.0303 74.5614 44.6383 78.5074 42.6023M3.4266 42.6024C6.1156 45.6484 23.3736 47.2874 35.0116 47.7364" mask="url(#icon-briefcase-d)"/>
    <path fill="#17DD7E" d="M6.7972 15.9002L7.3372 9.9612 7.6332 6.9882 7.7982 5.4942 7.8932 4.7332 7.9482 4.3422 8.0272 3.8792C8.1302 3.2872 8.6932 2.8882 9.2852 2.9912 9.8052 3.0812 10.1742 3.5242 10.1892 4.0312L10.1952 4.2342 10.2132 4.8552 10.2472 5.5762 10.3372 7.0432 10.5492 9.9932 11.0262 15.9022 11.0272 15.9212C11.1222 17.0902 10.2512 18.1142 9.0822 18.2092 7.9142 18.3032 6.8902 17.4322 6.7952 16.2632 6.7862 16.1442 6.7872 16.0152 6.7972 15.9002M21.2078 15.9412L21.6818 9.9902 21.9498 7.0112 22.1028 5.5132 22.1928 4.7512 22.2458 4.3582 22.3268 3.8882C22.4208 3.3452 22.9368 2.9812 23.4798 3.0762 23.9488 3.1572 24.2848 3.5522 24.3068 4.0082L24.3168 4.2242 24.3478 4.8382 24.3958 5.5562 24.5208 7.0212 24.8058 9.9652 25.4368 15.8622 25.4388 15.8832C25.5628 17.0502 24.7188 18.0972 23.5518 18.2222 22.3848 18.3472 21.3378 17.5032 21.2128 16.3362 21.1998 16.2062 21.1988 16.0662 21.2078 15.9412M68.219 14.0936C68.672 12.5036 69.087 10.8356 69.433 9.1976 69.609 8.3746 69.757 7.5526 69.878 6.7366 69.996 5.9256 70.083 5.0956 70.051 4.3796L70.048 4.3126C70.025 3.7996 70.423 3.3646 70.936 3.3416 71.375 3.3226 71.757 3.6116 71.872 4.0166 72.15 4.9916 72.246 5.8896 72.327 6.7916 72.403 7.6906 72.448 8.5826 72.464 9.4676 72.501 11.2476 72.477 12.9866 72.391 14.7846 72.335 15.9596 71.338 16.8656 70.163 16.8106 68.989 16.7536 68.082 15.7566 68.138 14.5816 68.146 14.4186 68.172 14.2616 68.214 14.1116L68.219 14.0936zM14.4168 14.1785C14.5768 13.3455 14.6718 12.1535 14.7618 11.0885L14.9948 7.7785 15.3598 1.1155 15.3608 1.0955C15.3958.4565 15.9418-.0335 16.5808.0015 17.1638.0335 17.6218.4905 17.6708 1.0565L18.2658 7.7485 18.5118 11.1175 18.6028 12.8295C18.6278 13.4105 18.6468 13.9825 18.6138 14.6995 18.5588 15.8695 17.5658 16.7745 16.3958 16.7195 15.2268 16.6645 14.3218 15.6715 14.3768 14.5015 14.3818 14.4045 14.3928 14.3085 14.4098 14.2145L14.4168 14.1785zM61.4056 15.5819C61.3356 14.2459 61.4066 13.1109 61.4816 11.9439 61.5616 10.7889 61.6626 9.6469 61.7786 8.5119 62.0116 6.2389 62.2826 3.9909 62.5886 1.7339 62.6656 1.1629 63.1916.7639 63.7616.8409 64.2776.9099 64.6536 1.3449 64.6656 1.8489L64.6656 1.8559C64.7196 4.0979 64.8066 6.3519 64.9326 8.5829 64.9966 9.6989 65.0746 10.8109 65.1736 11.9069 65.2716 12.9919 65.3966 14.1129 65.5956 15.0149 65.8496 16.1589 65.1276 17.2919 63.9826 17.5449 62.8386 17.7989 61.7056 17.0759 61.4526 15.9319 61.4276 15.8189 61.4116 15.6929 61.4056 15.5819M53.742 15.0379C53.809 14.7389 53.87 14.2839 53.904 13.8159 53.946 13.3529 53.97 12.8659 53.995 12.3819 54.043 11.4089 54.066 10.4189 54.087 9.4289 54.122 7.4459 54.129 5.4479 54.116 3.4599L54.115 3.4539C54.111 2.8459 54.6 2.3499 55.209 2.3449 55.754 2.3419 56.209 2.7339 56.301 3.2529 56.655 5.2369 56.986 7.2159 57.292 9.2139 57.442 10.2149 57.589 11.2149 57.713 12.2349 57.773 12.7479 57.835 13.2579 57.879 13.7919 57.927 14.3209 57.964 14.8649 57.939 15.5589L57.938 15.5799C57.895 16.7529 56.91 17.6689 55.738 17.6259 54.565 17.5829 53.649 16.5989 53.692 15.4259 53.697 15.2969 53.716 15.1599 53.742 15.0379" mask="url(#icon-briefcase-d)"/>
  </g>
</svg>
