<svg xmlns="http://www.w3.org/2000/svg" width="99" height="68" viewBox="0 0 99 68">
  <g fill="none" fill-rule="evenodd" transform="translate(0 -1)">
    <path fill="#4176F9" d="M49.3099,23.5604 C49.3099,23.5604 42.9389,0.1994 19.8679,9.5494 C3.3519,16.2424 8.2569,35.6274 19.2669,43.6344 C30.2759,51.6414 45.5779,55.3414 52.1609,63.3554 C52.1609,63.3554 64.1639,52.4494 73.6249,46.7554 C92.5829,35.3474 87.8799,12.6934 72.7669,8.6904 C56.7439,4.4464 49.3099,23.5604 49.3099,23.5604"/>
    <path stroke="#4D4D4D" stroke-linecap="round" stroke-linejoin="round" stroke-width="2" d="M51.452,27.3563 C51.452,27.3563 45.081,3.9943 22.01,13.3443 C5.494,20.0383 10.399,39.4223 21.409,47.4293 C32.418,55.4373 47.72,59.1363 54.303,67.1503 C54.303,67.1503 66.306,56.2453 75.767,50.5503 C94.725,39.1423 89.899,16.9253 74.909,12.4863 C59.281,7.8583 50.66,26.8003 50.473,33.5973"/>
    <path fill="#17DD7E" d="M28.4285,4.5174 C24.2465,4.1794 19.7925,4.6384 16.0615,6.1884 C12.2945,7.7264 9.2685,10.4764 7.3115,14.0454 C6.3315,15.8064 5.5505,17.8234 5.0805,19.7444 C4.6055,21.7084 4.4525,23.7794 4.5045,25.8714 C4.6795,30.0594 5.7345,34.3274 7.4855,38.2714 C7.8295,39.0464 7.4955,39.9134 6.7545,40.2424 C6.0915,40.5374 5.3265,40.2994 4.9385,39.7154 C2.2645,35.7074 0.6355,31.0574 0.1235,26.1714 C-0.1185,23.7254 -0.0095,21.2094 0.4925,18.7294 C0.7255,17.4834 1.1315,16.2594 1.5615,15.1214 C2.0005,13.9634 2.5215,12.8264 3.1235,11.7214 C4.3105,9.5014 5.9485,7.4734 7.8975,5.7984 C9.8355,4.1054 12.1435,2.8724 14.5205,2.0464 C16.9155,1.2504 19.3915,0.8644 21.8325,0.8494 C24.2935,0.8514 26.6405,1.1044 29.0595,1.8424 C29.7855,2.0644 30.1945,2.8324 29.9725,3.5594 C29.7805,4.1884 29.1785,4.5794 28.5485,4.5284 L28.4285,4.5174 Z" transform="translate(0 .15)"/>
    <path fill="#17DD7E" d="M72.6766,60.2489 C76.2716,58.6129 79.8066,56.4629 82.9346,54.0399 C86.0806,51.6109 88.8656,48.7779 90.9966,45.5909 C93.0266,42.5589 93.8796,38.8769 93.9536,35.0719 C94.0286,31.2789 93.3116,27.2599 92.2496,23.5169 L92.2186,23.4059 C91.9966,22.6269 92.4496,21.8149 93.2296,21.5939 C93.8856,21.4079 94.5646,21.6999 94.8956,22.2619 C96.0646,24.2499 96.8566,26.2489 97.4786,28.3939 C98.0946,30.5199 98.4846,32.7409 98.5656,35.0109 C98.6676,37.2779 98.4366,39.5989 97.8436,41.8599 C97.2516,44.1229 96.2346,46.2949 94.9106,48.2439 C92.3266,51.9599 88.9936,54.9979 85.3576,57.4239 C81.6806,59.8309 77.7926,61.6809 73.5266,62.8619 C72.7956,63.0649 72.0386,62.6369 71.8356,61.9049 C71.6536,61.2439 71.9856,60.5619 72.5906,60.2879 L72.6766,60.2489 Z"/>
  </g>
</svg>
