<svg xmlns="http://www.w3.org/2000/svg" width="87" height="101" viewBox="0 0 87 101">
  <g fill="none" fill-rule="evenodd" transform="translate(0 -1)">
    <path fill="#FF621D" d="M45.1158,37.9436 C44.9828,36.9976 44.8028,36.7346 44.5208,35.9136 C44.4018,35.5656 44.3428,34.6966 44.3348,34.1896 C44.3198,33.1406 44.6268,32.2506 45.0758,31.3316 C45.7208,30.0116 46.4668,29.4796 46.7098,28.8266 C47.2198,27.4536 46.6618,24.3506 47.6638,21.5166 C48.1628,20.1056 48.8078,18.7436 49.9448,17.9026 C51.3478,16.8646 52.4008,15.9306 53.9188,15.2816 C58.6108,13.2756 64.8368,13.3526 69.7098,14.9016 C70.8348,15.2586 71.8868,15.6936 72.8318,16.2006 C73.9638,16.8076 75.1328,17.5416 75.8868,18.6916 C76.7858,20.0626 77.8718,21.4176 78.5898,23.0516 C80.0768,26.4376 80.7518,30.4366 80.4598,34.0346 C80.3618,35.2426 80.2928,36.3976 79.8338,37.4846 C79.4798,38.3216 79.2398,39.1716 78.8268,39.9136 C78.6828,40.1726 78.5458,40.4256 78.4138,40.6726 C75.0868,46.9176 75.7088,49.2566 74.0228,56.8556 C73.6638,58.4716 72.8958,59.7826 72.2338,61.7666 C71.8048,63.0526 70.9008,64.1886 70.0648,65.3826 C67.6468,68.8406 64.3138,72.1686 60.3178,75.0276 C59.1098,75.8916 57.7218,76.5366 56.5178,77.4816 C55.6688,78.1496 54.4078,78.6576 53.3048,79.1926 C49.0928,81.2376 44.4388,82.7296 39.5418,83.4606 C38.4538,83.6226 37.8418,83.8076 36.7708,83.7766 C35.7678,83.7466 34.8098,83.9026 33.8868,83.9106 C25.3448,83.9856 20.4548,81.1646 17.8398,76.1736 C17.3718,75.2826 16.7978,74.1016 16.3078,73.1026 C16.0578,72.5926 16.0078,71.9996 15.8908,71.4246 C15.5728,69.8476 15.3368,69.3626 15.3528,67.5786 C15.3568,67.1816 15.3838,65.6716 15.4798,65.1666 C15.5488,64.8116 15.5208,64.4406 15.5518,64.0726 C15.5988,63.4846 15.6628,62.8876 15.7408,62.2836 C15.7618,62.1256 15.4438,62.2446 15.4438,62.2446 C15.4438,62.2446 15.2598,62.2596 14.9568,62.3666 C14.4288,62.5536 14.0728,62.5666 13.4208,62.6826 C8.4748,63.5626 -3.4922,64.4276 1.2088,50.8766 C4.1368,42.4366 11.7048,43.7936 11.7688,49.3206 C12.7838,48.3426 14.0458,47.1566 15.6358,46.4056 C18.7578,44.9286 21.4088,44.6126 25.1508,45.7086 C29.0278,46.8436 29.5128,49.7126 30.7098,51.5976 C30.7098,51.5976 31.9708,47.8936 34.1948,46.1506 C36.4698,44.3656 37.4828,43.6866 39.8398,42.7746 C42.2068,41.8586 45.7638,41.6526 45.7638,41.6526 C45.4328,40.8526 45.3278,39.4466 45.1158,37.9436"/>
    <path stroke="#4D4D4D" stroke-linecap="round" stroke-linejoin="round" stroke-width="2" d="M44.2808 55.1755C46.0408 52.6475 54.1528 50.5635 54.1528 50.5635 46.2558 46.6555 46.6438 45.5265 45.9808 40.8155 45.7918 39.4675 44.9058 38.9585 44.8808 37.2595 44.8458 34.8955 47.1368 32.8715 47.5748 31.6975 48.0858 30.3245 47.5268 27.2215 48.5288 24.3885 51.6718 15.5025 66.1298 15.0155 73.6968 19.0725 80.6878 22.8195 83.4848 35.9575 79.6918 42.7855 75.8988 49.6125 76.6398 51.8275 74.8878 59.7275 72.2658 71.5445 56.4898 85.0975 37.6358 86.6475 18.7818 88.1975 13.7868 76.3125 17.4038 60.8105M16.3091 65.1164C16.3091 65.1164-3.7949 70.6624 2.0741 53.7474 5.0011 45.3074 12.5701 46.6654 12.6341 52.1924"/>
    <path stroke="#4D4D4D" stroke-linecap="round" stroke-linejoin="round" stroke-width="2" d="M10.3414,54.7815 C10.3414,54.7815 17.4034,44.7905 26.0164,48.5805 C34.6284,52.3695 31.1844,65.9865 31.1844,65.9865"/>
    <path stroke="#4D4D4D" stroke-linecap="round" stroke-linejoin="round" stroke-width="2" d="M59.2603 62.1882C49.6143 66.4942 32.5113 68.4722 31.7613 57.8372 31.0113 47.2022 46.6293 44.5242 46.6293 44.5242M21.1031 22.9152C39.7961 30.1492 24.9371 38.6152 31.7331 54.3152M65.2896 33.7668C69.0786 35.1448 69.9396 40.3118 65.2896 41.5178"/>
    <path fill="#17DD7E" d="M2.2417,0.4272 C4.9507,0.4312 7.6687,1.0692 10.1797,2.1552 C12.7027,3.2322 15.0147,4.7812 17.0347,6.6432 C19.0387,8.5212 20.7567,10.7272 21.9887,13.2142 C23.2217,15.6832 23.9977,18.4632 23.8937,21.2722 C23.8657,22.0262 23.2327,22.6142 22.4787,22.5862 C21.8487,22.5632 21.3347,22.1162 21.1987,21.5312 L21.1857,21.4722 C20.6617,19.2062 19.7447,17.0772 18.5417,15.0992 C17.3277,13.1312 15.8467,11.3092 14.1527,9.7082 C12.4707,8.0922 10.5657,6.7072 8.5227,5.5532 C6.4717,4.4062 4.2707,3.5272 1.9347,2.8802 L1.9067,2.8722 C1.2437,2.6892 0.8557,2.0032 1.0397,1.3402 C1.1917,0.7882 1.6947,0.4262 2.2417,0.4272" transform="translate(63 .573)"/>
    <path fill="#17DD7E" d="M22.0415,97.8967 C24.7825,98.1347 27.5395,98.1537 30.2735,97.9897 C33.0055,97.8177 35.7215,97.4687 38.3495,96.8667 C40.9795,96.2787 43.5155,95.4127 45.8495,94.2807 C48.1955,93.1567 50.3175,91.8057 52.2725,90.0767 L52.3225,90.0327 C52.9125,89.5117 53.8125,89.5667 54.3345,90.1567 C54.7335,90.6087 54.7925,91.2477 54.5325,91.7537 C53.0685,94.5887 50.4955,96.6987 47.7825,98.1177 C45.0365,99.5367 42.0995,100.3717 39.1705,100.9217 C36.2305,101.4597 33.2655,101.6427 30.3195,101.5497 C27.3755,101.4507 24.4385,101.0727 21.5915,100.2857 C20.9415,100.1057 20.5615,99.4347 20.7405,98.7857 C20.8995,98.2087 21.4465,97.8447 22.0205,97.8947 L22.0415,97.8967 Z"/>
    <path fill="#17DD7E" d="M10.983 75.5422C11.817 78.0452 12.557 80.4182 13.557 82.6152 14.537 84.8062 15.731 86.8502 17.398 88.4462 19.026 90.0692 21.058 91.2772 23.357 92.0302 25.657 92.7982 28.191 93.0982 30.816 93.2102L30.86 93.2112C31.521 93.2402 32.034 93.7992 32.006 94.4602 31.983 95.0092 31.591 95.4572 31.081 95.5762 28.322 96.2172 25.369 96.4172 22.402 95.8942 21.658 95.7772 20.921 95.6122 20.199 95.3512L19.107 94.9942C18.747 94.8622 18.404 94.6822 18.05 94.5252L17.005 94.0172 16.023 93.3912C15.7 93.1752 15.359 92.9792 15.052 92.7412L14.151 91.9982C11.807 89.9462 9.985 87.3352 8.907 84.5252 7.837 81.7092 7.426 78.7272 7.754 75.8422 7.857 74.9332 8.677 74.2802 9.587 74.3842 10.247 74.4592 10.772 74.9132 10.97 75.5042L10.983 75.5422zM38.8462 20.3425C38.6632 18.6365 39.1282 16.9965 39.7832 15.5295 40.1602 14.8365 40.5272 14.1115 40.9922 13.4775 41.4772 12.8695 41.9192 12.1945 42.4762 11.6555 44.6282 9.4005 47.2682 7.6655 50.1452 6.5605 51.5722 5.9745 53.0722 5.5825 54.5832 5.3085 55.3472 5.2075 56.1082 5.0925 56.8692 5.0125L59.1702 4.9965C62.2312 5.1355 65.2192 5.9095 67.8862 7.2195 68.4852 7.5135 68.7312 8.2365 68.4372 8.8345 68.1952 9.3295 67.6582 9.5835 67.1422 9.4905L67.0772 9.4785C64.4022 8.9975 61.7962 8.7345 59.2172 8.9005 56.6392 9.0515 54.1372 9.6965 51.7742 10.6355 49.4302 11.6235 47.2002 12.9145 45.2892 14.5605 44.3032 15.3545 43.4682 16.2775 42.6902 17.2345 41.9722 18.2205 41.3942 19.2565 41.0562 20.3845L41.0092 20.5425C40.8332 21.1285 40.2162 21.4615 39.6292 21.2855 39.1902 21.1535 38.8932 20.7725 38.8462 20.3425"/>
  </g>
</svg>
