<svg xmlns="http://www.w3.org/2000/svg" xmlns:xlink="http://www.w3.org/1999/xlink" width="134" height="83" viewBox="0 0 134 83">
  <defs>
    <polygon id="icon-child-a" points="0 78.506 0 .818 118.626 .818 118.626 78.506"/>
  </defs>
  <g fill="none" fill-rule="evenodd" transform="translate(0 -1)">
    <g transform="translate(0 .182)">
      <mask id="icon-child-b" fill="#fff">
        <use xlink:href="#icon-child-a"/>
      </mask>
      <path fill="#FE9933" d="M22.6244,73.0296 C22.1984,73.2426 21.8114,73.4506 21.4834,73.6716 C20.7414,74.1736 20.0964,74.8236 20.1134,75.5776 C20.1304,76.3306 20.9854,76.9276 21.6504,77.2486 C23.8274,78.2976 28.5374,78.4496 32.1864,76.7026 C36.9504,74.4216 39.7054,76.0216 42.6294,76.5986 C47.6904,77.5966 48.2244,77.9776 53.9954,77.9106 C59.1144,77.8506 66.6644,79.4816 66.5214,70.6196 L67.2314,71.3166 C67.3044,71.6336 67.3864,71.9556 67.4774,72.2816 C68.6284,76.4276 69.3184,77.8106 73.4654,77.8106 C75.0784,77.8106 86.3474,80.0126 84.9064,76.5816 C83.9054,74.1996 81.0674,74.6616 79.2244,73.9706 C77.3814,73.2796 73.5664,71.8186 75.3854,67.2146 C77.5024,61.8536 76.7794,58.5726 78.6584,55.7586 L78.6614,55.7606 C83.9394,53.9836 88.7814,51.0766 92.0374,47.8246 L92.0364,48.2596 C94.2094,62.1396 101.3594,69.5006 103.0424,73.7066 C104.7254,77.9116 108.7734,77.4336 111.2444,76.2296 C113.2164,75.2686 118.8284,77.8756 118.6204,75.5326 C118.3184,72.1406 109.7954,72.6166 107.9494,68.7296 C106.4274,65.5246 107.1084,60.1066 103.3224,52.8166 C99.5374,45.5266 101.5704,42.4416 100.3214,39.6156 C100.3214,39.6156 101.8554,39.4276 102.5774,37.9246 C103.4264,36.1546 105.9404,33.8576 107.9614,33.5606 C109.9834,33.2626 110.2114,32.1376 109.8794,30.6126 C109.5484,29.0886 109.5484,27.5646 111.2714,25.6416 C119.7564,16.6276 110.2384,5.7626 103.0754,2.2546 C95.9124,-1.2534 89.3334,2.1086 85.0944,7.5176 C80.8544,12.9266 83.3404,18.4816 83.6324,19.9436 C83.9244,21.4046 85.5324,23.5976 83.0474,25.3526 C67.9774,35.0306 43.2774,35.6696 33.3104,45.2086 C29.7484,48.6176 28.6704,55.2946 30.2714,61.5316 L30.2724,61.5316 C30.2724,61.5316 22.1314,60.7656 16.2274,62.5566 C10.3234,64.3476 6.0824,58.0266 4.6064,65.4096 C4.0114,68.3916 3.2874,70.0676 1.5834,70.7586 C-0.4676,71.5916 -0.6996,74.5986 1.9184,74.5056 C4.5374,74.4116 7.2484,75.1916 11.3004,72.2306 C15.3524,69.2696 22.6244,73.0296 22.6244,73.0296" mask="url(#icon-child-b)"/>
    </g>
    <path stroke="#4D4D4D" stroke-linecap="round" stroke-linejoin="round" stroke-width="2" d="M33.9203,68.7774 C30.7523,61.6974 31.4603,52.9574 35.7163,48.8844 C45.6843,39.3454 70.3843,38.7074 85.4543,29.0284 C87.9393,27.2744 86.3313,25.0814 86.0393,23.6194 C85.7463,22.1574 83.2613,16.6024 87.5013,11.1944 C91.7403,5.7844 98.3183,2.4224 105.4823,5.9314 C112.6453,9.4394 122.1623,20.3034 113.6783,29.3184 C111.9553,31.2404 111.9553,32.7654 112.2863,34.2894 C112.6183,35.8144 112.3893,36.9394 110.3683,37.2364 C108.3473,37.5334 105.7443,39.7914 104.9833,41.6004 C103.7373,44.5634 99.0083,43.8214 96.2183,38.5114"/>
    <path stroke="#4D4D4D" stroke-linecap="round" stroke-linejoin="round" stroke-width="2" d="M76.7167,42.4044 C74.6437,46.7044 71.8947,56.2634 71.4957,59.1434 C71.0827,62.1244 67.5737,67.6424 69.8837,75.9584 C71.0347,80.1044 71.7257,81.4864 75.8727,81.4864 C77.4847,81.4864 88.7537,83.6894 87.3127,80.2584 C86.3127,77.8764 83.4737,78.3384 81.6307,77.6474 C79.7877,76.9564 75.9737,75.4944 77.7917,70.8904 C80.2417,64.6884 78.8887,61.2704 82.1637,58.1374 C85.4397,55.0044 89.4057,46.4484 90.0677,43.2564"/>
    <path stroke="#4D4D4D" stroke-linecap="round" stroke-linejoin="round" stroke-width="2" d="M49.9594,55.8858 C56.6034,56.0198 65.9304,57.1608 68.4804,70.3808 C71.0304,83.5998 62.1724,81.5198 56.4014,81.5868 C50.6304,81.6538 50.0974,81.2728 45.0354,80.2748 C42.1124,79.6978 39.3564,78.0968 34.5924,80.3788 C30.9434,82.1258 26.2334,81.9728 24.0574,80.9248 C23.3924,80.6048 22.5374,80.0078 22.5204,79.2538 C22.5024,78.4998 23.1474,77.8498 23.8904,77.3478 C25.3934,76.3328 28.1654,75.6008 30.0964,73.2658 C32.9814,69.7768 34.5144,67.4138 37.7464,68.7778 C45.7254,72.1438 49.1724,66.1568 57.8214,71.6268"/>
    <path stroke="#4D4D4D" stroke-linecap="round" stroke-linejoin="round" stroke-width="2" d="M32.6796 65.2081C32.6796 65.2081 24.5376 64.4411 18.6346 66.2331 12.7306 68.0241 8.4896 61.7031 7.0136 69.0861 6.4176 72.0671 5.6936 73.7441 3.9906 74.4351 1.9386 75.2681 1.7066 78.2751 4.3256 78.1821 6.9436 78.0881 9.6556 78.8671 13.7066 75.9061 17.7586 72.9451 25.0316 76.7061 25.0316 76.7061M102.728 43.2921C103.977 46.1181 101.944 49.2021 105.729 56.4931 109.515 63.7831 108.834 69.2011 110.356 72.4051 112.202 76.2931 120.725 75.8171 121.026 79.2091 121.235 81.5521 115.624 78.9451 113.651 79.9061 111.18 81.1091 107.131 81.5881 105.449 77.3821 103.767 73.1761 96.617 65.8161 94.443 51.9361M97.1772 48.0807C94.4432 52.6377 88.1472 57.0537 81.0672 59.4367"/>
    <path fill="#17DD7E" d="M115.2851 41.2325C117.5211 41.5795 119.7731 42.1105 121.9511 42.9335 124.1331 43.7265 126.2001 44.8805 128.0361 45.7135L128.0571 45.7225C129.1231 46.2065 129.5951 47.4625 129.1111 48.5285 128.6281 49.5945 127.3711 50.0655 126.3061 49.5825 126.2291 49.5475 126.1441 49.5025 126.0741 49.4595 124.0561 48.2225 122.4151 47.0155 120.5661 46.0795 118.7401 45.1225 116.7761 44.3955 114.7331 43.8185L114.7221 43.8155C114.0181 43.6175 113.6081 42.8855 113.8071 42.1815 113.9911 41.5295 114.6321 41.1295 115.2851 41.2325M118.2284 34.9151C120.4114 34.6661 122.6624 34.6111 124.8644 34.7581L128.0424 34.9911C129.0454 35.0521 129.9374 35.0311 130.7374 34.8801 131.8874 34.6631 132.9964 35.4191 133.2124 36.5701 133.4294 37.7201 132.6734 38.8281 131.5234 39.0451 131.4434 39.0601 131.3634 39.0701 131.2844 39.0761L131.2404 39.0791C129.9284 39.1661 128.6874 39.0191 127.5874 38.8261L124.4564 38.2281C122.4464 37.8581 120.4414 37.6751 118.3884 37.6681L118.3794 37.6681C117.6164 37.6651 117.0004 37.0451 117.0034 36.2821 117.0054 35.5741 117.5414 34.9921 118.2284 34.9151M111.8779 45.4508C113.5619 46.8708 115.1519 48.4718 116.5589 50.1758L118.5699 52.6448C119.2139 53.4158 119.8379 54.0488 120.4959 54.5288 121.4399 55.2178 121.6469 56.5428 120.9579 57.4878 120.2679 58.4318 118.9429 58.6388 117.9989 57.9498 117.9409 57.9078 117.8869 57.8638 117.8359 57.8178L117.8169 57.8018C116.8389 56.9248 116.0759 55.9328 115.4449 55.0108L113.6819 52.3568C112.5419 50.6658 111.2729 49.1108 109.8469 47.6448L109.8399 47.6388C109.2639 47.0458 109.2769 46.0978 109.8699 45.5218 110.4249 44.9818 111.2969 44.9638 111.8779 45.4508"/>
  </g>
</svg>
