<svg xmlns="http://www.w3.org/2000/svg" width="65" height="68" viewBox="0 0 65 68">
  <g fill="none" fill-rule="evenodd" transform="translate(0 -1)">
    <path fill="#FE9933" d="M28.8837,64.9995 C59.0297,65.0005 62.6927,7.4085 58.4107,3.8325 C50.1397,-3.0765 38.2777,10.2285 29.8897,10.2285 C21.5027,10.2285 9.8397,-3.2455 2.0937,2.3475 C-2.7313,5.8305 -1.2623,64.9995 28.8837,64.9995" transform="translate(0 .012)"/>
    <path stroke="#4D4D4D" stroke-linecap="round" stroke-linejoin="round" stroke-width="2" d="M32.1674 68.0129C62.3134 68.0129 65.9764 10.4209 61.6934 6.8449 53.4224-.0641 41.5614 13.2409 33.1734 13.2409 24.7854 13.2409 13.1234-.2331 5.3764 5.3599.5524 8.8429 2.0214 68.0119 32.1674 68.0129zM40.3095 30.9484C40.3095 30.9484 44.8345 25.4634 49.4965 29.8504M23.4433 30.9484C23.4433 30.9484 18.9183 25.5074 14.3933 29.5494"/>
    <path stroke="#4D4D4D" stroke-linecap="round" stroke-linejoin="round" stroke-width="2" d="M17.1352,42.8781 C17.1352,42.8781 23.4432,53.8481 32.3562,53.8481 C41.2692,53.8481 46.7542,42.8781 46.7542,42.8781"/>
  </g>
</svg>
