<svg xmlns="http://www.w3.org/2000/svg" xmlns:xlink="http://www.w3.org/1999/xlink" width="96" height="104" viewBox="0 0 96 104">
  <defs>
    <polygon id="icon-learn-a" points="0 8.408 0 .56 16.691 .56 16.691 8.408"/>
    <polygon id="icon-learn-c" points="18.769 .801 18.769 5.919 .094 5.919 .094 .801 18.769 .801"/>
  </defs>
  <g fill="none" fill-rule="evenodd">
    <path fill="#FF621D" d="M75.3235,84.4552 C71.4145,82.5782 66.1925,76.3382 68.2215,62.8102 C68.8495,58.6232 71.2655,54.1852 71.2655,49.7892 C71.2655,46.3782 70.4825,43.1302 69.0675,40.1792 C66.8355,35.5222 63.6885,31.4552 58.3815,29.0062 C54.1755,27.0642 48.9915,24.9232 43.7025,25.2692 C36.3515,25.7502 30.5885,28.5582 25.0995,31.6952 C19.1815,35.0772 17.2835,42.2042 17.2835,49.3692 C17.2835,53.5962 22.2755,61.9102 18.4295,66.1692 C13.7715,71.3292 17.8805,72.4442 19.9575,73.0422 C20.9915,73.3412 15.7565,76.8612 21.8665,79.1522 C21.8665,79.1522 19.4325,82.4572 23.3935,83.3522 C25.0435,83.7252 20.8735,91.8952 32.3725,89.1902 C36.8785,88.1292 41.4875,86.4982 45.6515,84.4992 C49.0845,82.8512 50.3965,87.8202 49.9115,91.7002 C49.2605,96.9132 39.7445,103.6422 56.4275,102.1252 C63.5945,101.4742 76.5945,101.1132 81.8405,100.8222 C93.5685,100.1702 85.5335,89.3582 75.3235,84.4552"/>
    <path stroke="#4D4D4D" stroke-linecap="round" stroke-linejoin="round" stroke-width="2" d="M79.056,85.0773 C75.147,83.2003 69.925,76.9603 71.953,63.4323 C72.582,59.2453 74.997,54.8073 74.997,50.4113 C74.997,47.0003 74.215,43.7523 72.8,40.8013 C70.568,36.1443 67.421,32.0773 62.114,29.6283 C57.908,27.6863 52.724,25.5453 47.434,25.8913 C40.083,26.3723 34.321,29.1803 28.832,32.3173 C22.914,35.6993 21.016,42.8263 21.016,49.9913 C21.016,54.2183 26.008,62.5313 22.161,66.7913 C17.503,71.9513 21.613,73.0663 23.689,73.6643 C24.724,73.9633 19.489,77.4833 25.598,79.7743 C25.598,79.7743 23.165,83.0793 27.125,83.9743 C28.775,84.3473 24.606,92.5173 36.105,89.8113 C40.611,88.7513 45.22,87.1203 49.384,85.1213 C52.817,83.4733 54.129,88.4423 53.644,92.3223 C52.993,97.5353 43.476,104.2643 60.16,102.7473 C67.327,102.0963 80.327,101.7353 85.573,101.4443 C97.301,100.7923 89.266,89.9803 79.056,85.0773 Z"/>
    <path fill="#17DD7E" d="M85.5843 21.1969C84.4903 22.0079 83.4623 22.6879 82.3833 23.3819 81.3133 24.0669 80.2293 24.7199 79.1313 25.3459 76.9413 26.6039 74.6833 27.7319 72.3803 28.7129 72.0563 28.8509 71.6803 28.6999 71.5423 28.3749 71.4263 28.1029 71.5143 27.7949 71.7363 27.6209L71.7443 27.6149C73.6733 26.1149 75.4973 24.5089 77.2203 22.8069 78.0833 21.9589 78.9243 21.0919 79.7373 20.2059 80.5423 19.3289 81.3653 18.3989 82.0583 17.5279 82.9403 16.4189 84.5563 16.2359 85.6653 17.1179 86.7733 18.0009 86.9573 19.6159 86.0743 20.7249 85.9353 20.9009 85.7773 21.0529 85.6053 21.1809L85.5843 21.1969zM68.6565 9.1208C67.7435 11.4748 66.6675 13.7598 65.4175 15.9248 64.7915 17.0068 64.1225 18.0588 63.4225 19.0748 62.7295 20.0858 61.9755 21.0778 61.3235 21.9998L61.3015 22.0318C60.9525 22.5238 60.2715 22.6418 59.7795 22.2928 59.3475 21.9888 59.2055 21.4288 59.4095 20.9628 59.9205 19.7978 60.4245 18.7558 60.8795 17.6708 61.3355 16.5948 61.7465 15.5128 62.1105 14.4198 62.8385 12.2328 63.3745 10.0038 63.7545 7.7568 63.9895 6.3638 65.3095 5.4258 66.7035 5.6608 68.0955 5.8968 69.0345 7.2168 68.7995 8.6098 68.7695 8.7788 68.7255 8.9408 68.6675 9.0958L68.6565 9.1208z"/>
    <g transform="translate(0 24.965)">
      <mask id="icon-learn-b" fill="#fff">
        <use xlink:href="#icon-learn-a"/>
      </mask>
      <path fill="#17DD7E" d="M3.5345,0.7529 L9.8505,3.3509 C10.9045,3.7959 11.9585,4.2509 13.0135,4.7349 C14.0685,5.2289 15.1225,5.7289 16.1785,6.3889 C16.6895,6.7099 16.8445,7.3829 16.5245,7.8949 C16.2465,8.3379 15.7035,8.5139 15.2305,8.3439 L15.1915,8.3299 C14.2275,7.9839 13.1535,7.7279 12.0795,7.4859 C10.9995,7.2489 9.9015,7.0349 8.7995,6.8279 L2.1355,5.6449 L2.1135,5.6409 C0.7215,5.3939 -0.2075,4.0659 0.0395,2.6729 C0.2865,1.2809 1.6155,0.3529 3.0075,0.5999 C3.1875,0.6319 3.3715,0.6869 3.5345,0.7529" mask="url(#icon-learn-b)"/>
    </g>
    <path fill="#17DD7E" d="M48.6429 2.5104C48.6989 5.2574 48.5469 7.9144 48.2929 10.5524 48.1659 11.8694 48.0129 13.1804 47.8309 14.4884 47.6369 15.8094 47.4579 17.0664 47.1369 18.4564 47.0149 18.9874 46.4859 19.3174 45.9549 19.1954 45.4909 19.0874 45.1789 18.6684 45.1919 18.2104L45.1939 18.1384C45.2229 16.9664 45.1569 15.6354 45.0829 14.3764 45.0039 13.1014 44.8969 11.8264 44.7649 10.5594 44.4999 8.0274 44.1299 5.5104 43.5909 3.1204 43.2809 1.7424 44.1449.3734 45.5229.0634 46.9009-.2476 48.2699.6174 48.5809 1.9954 48.6179 2.1614 48.6379 2.3274 48.6429 2.4914L48.6429 2.5104zM29.4368 5.9435C29.7188 7.1135 30.0478 8.3395 30.3808 9.5365 30.7178 10.7395 31.0728 11.9395 31.4428 13.1345 32.1828 15.5265 32.9968 17.8965 33.9148 20.2315L33.9168 20.2375C34.0828 20.6595 33.8748 21.1345 33.4538 21.3005 33.0908 21.4435 32.6888 21.3095 32.4778 21.0025 31.0258 18.8895 29.6638 16.7105 28.3708 14.4925 27.7228 13.3835 27.0898 12.2645 26.4718 11.1365 25.8528 10.0005 25.2548 8.8835 24.6588 7.6935 24.0238 6.4285 24.5338 4.8895 25.7978 4.2555 27.0618 3.6205 28.6008 4.1305 29.2358 5.3945 29.3238 5.5685 29.3918 5.7625 29.4368 5.9435"/>
    <g transform="translate(77 31.965)">
      <mask id="icon-learn-d" fill="#fff">
        <use xlink:href="#icon-learn-c"/>
      </mask>
      <path fill="#17DD7E" d="M15.805,5.8867 C14.689,5.7077 13.427,5.5737 12.22,5.4697 C10.998,5.3647 9.77,5.2937 8.538,5.2557 C6.074,5.1707 3.602,5.2377 1.131,5.4627 L1.117,5.4647 C0.602,5.5117 0.145,5.1307 0.098,4.6147 C0.057,4.1667 0.339,3.7627 0.751,3.6337 C3.206,2.8637 5.723,2.2477 8.27,1.7877 C9.543,1.5537 10.825,1.3517 12.115,1.1877 C13.418,1.0227 14.671,0.8837 16.065,0.8047 C17.476,0.7247 18.685,1.8037 18.765,3.2147 C18.845,4.6257 17.766,5.8347 16.355,5.9147 C16.173,5.9257 15.979,5.9127 15.805,5.8867" mask="url(#icon-learn-d)"/>
    </g>
    <path fill="#17DD7E" d="M13.1863,12.0973 C14.6353,14.2533 16.1973,16.3333 17.9123,18.3103 C18.7693,19.3003 19.6633,20.2643 20.5883,21.2243 C21.5093,22.1863 22.4723,23.1373 23.4053,24.1863 C23.7683,24.5923 23.7313,25.2153 23.3253,25.5773 C22.9703,25.8933 22.4493,25.9063 22.0823,25.6323 L22.0583,25.6143 C19.9883,24.0753 17.6493,22.5893 15.4903,20.8713 C13.3083,19.1713 11.2313,17.3063 9.2623,15.3373 L9.2563,15.3313 C8.2583,14.3333 8.2583,12.7143 9.2563,11.7163 C10.2543,10.7173 11.8733,10.7173 12.8723,11.7153 C12.9873,11.8313 13.0973,11.9673 13.1863,12.0973"/>
    <path stroke="#4D4D4D" stroke-linecap="round" stroke-linejoin="round" stroke-width="2" d="M30.1214,60.7819 C30.1214,60.7819 31.4114,63.4249 36.1274,60.7819"/>
  </g>
</svg>
