<svg xmlns="http://www.w3.org/2000/svg" width="71" height="111" viewBox="0 0 71 111">
  <g fill="none" fill-rule="evenodd">
    <path fill="#FE9933" d="M59.917,62.2801 L59.917,104.8881 C59.917,105.5901 58.912,106.9841 56.975,106.9841 L8.859,106.6031 C7.539,106.6031 5.846,106.3301 5.846,104.6661 L6.333,62.3221 L6.297,62.0271 L0.482,62.0271 C-0.155,62.0271 -0.4,60.9541 1.289,59.7151 L29.896,34.7261 C31.095,33.7351 31.558,33.9761 32.598,34.7761 L65.937,60.7921 C66.455,61.1961 66.169,62.0271 65.512,62.0271 L59.917,62.0271 L59.917,62.2801 Z"/>
    <path stroke="#4D4D4D" stroke-linecap="round" stroke-linejoin="round" stroke-width="2" d="M62.9551 65.0663L62.9551 107.6743C62.9551 108.3763 61.9501 109.7703 60.0131 109.7703L11.8971 109.3893C10.5771 109.3893 8.8841 109.1163 8.8841 107.4523L9.3711 65.1083M4.3272 62.5008L32.9342 37.5128C34.1332 36.5218 34.5952 36.7628 35.6352 37.5628L68.9742 63.5778C69.4922 63.9818 69.2072 64.8138 68.5502 64.8138L3.5202 64.8138C2.8822 64.8138 2.6382 63.7398 4.3272 62.5008z"/>
    <polyline stroke="#4D4D4D" stroke-linecap="round" stroke-linejoin="round" stroke-width="2" points="30.117 109.389 30.117 89.005 42.166 89.005 41.796 109.389"/>
    <polygon stroke="#4D4D4D" stroke-linecap="round" stroke-linejoin="round" stroke-width="2" points="31.764 48.986 31.764 57.734 39.887 57.734 39.437 48.986"/>
    <path fill="#17DD7E" d="M13.6592 10.3124C13.3682 9.7224 12.6802 9.4214 12.0372 9.6344 11.3342 9.8674 10.9532 10.6244 11.1842 11.3284L14.0912 20.1184 11.9892 20.6004 11.8502 20.6314C11.7172 20.6634 11.5852 20.7084 11.4562 20.7684 10.4262 21.2464 9.9782 22.4684 10.4562 23.4994L15.8272 35.0724C16.1152 35.6944 16.8282 36.0194 17.4982 35.8034 18.2222 35.5714 18.6222 34.7944 18.3892 34.0704L15.2512 24.2944 17.3712 23.8084 17.5252 23.7734C17.6752 23.7384 17.8222 23.6854 17.9662 23.6154 18.9772 23.1144 19.3912 21.8874 18.8902 20.8754L13.6592 10.3124zM63.6143 12.8006C63.0563 12.3146 62.2103 12.3716 61.7233 12.9296L52.5313 23.4696C52.4483 23.5656 52.3663 23.6796 52.3003 23.7926 51.7313 24.7786 52.0693 26.0366 53.0533 26.6056L53.1623 26.6676 55.0243 27.7426 50.3353 36.3766C50.0653 36.8706 50.1853 37.5016 50.6433 37.8596 51.1533 38.2576 51.8893 38.1666 52.2873 37.6566L59.7383 28.1066C59.7933 28.0356 59.8493 27.9526 59.8943 27.8746 60.4493 26.9136 60.1203 25.6846 59.1593 25.1296L59.0103 25.0436 57.3453 24.0826 63.8403 14.5656C64.2183 14.0126 64.1313 13.2516 63.6143 12.8006M38.8204 12.3036L38.6634 12.2706 36.8734 11.8976 38.7804 1.5836C38.9014.9316 38.5234.2756 37.8754.0656 37.1714-.1624 36.4154.2236 36.1874.9276L32.2644 13.0546C32.2434 13.1226 32.2234 13.1946 32.2094 13.2666 31.9794 14.3676 32.6864 15.4486 33.7894 15.6776L33.9224 15.7046 35.6104 16.0576 33.1804 26.3656C33.0504 26.9176 33.3384 27.4986 33.8814 27.7186 34.4794 27.9616 35.1624 27.6736 35.4054 27.0746L40.2844 15.0466C40.3274 14.9396 40.3654 14.8166 40.3894 14.6996 40.6184 13.6046 39.9154 12.5326 38.8204 12.3036"/>
  </g>
</svg>
