<svg xmlns="http://www.w3.org/2000/svg" width="94" height="77" viewBox="0 0 94 77">
  <g fill="none" fill-rule="evenodd">
    <path fill="#4176F9" d="M77.9629,71.9711 L77.4129,54.9141 C77.4129,54.9141 97.0999,41.6821 89.5179,21.7551 C81.2639,0.0671 43.9149,-3.7219 22.1459,3.0451 C-3.7501,11.0941 -5.2381,44.4601 9.7329,54.9141 C24.7029,65.3681 52.2179,60.9371 62.9429,60.3861 L77.9629,71.9711 Z"/>
    <path stroke="#4D4D4D" stroke-linecap="round" stroke-linejoin="round" stroke-width="2" d="M78.7969,75.2279 L78.2469,58.1709 C78.2469,58.1709 97.9339,44.9389 90.3519,25.0119 C82.0979,3.3229 44.7489,-0.4651 22.9799,6.3009 C-2.9161,14.3509 -4.4041,47.7159 10.5669,58.1709 C25.5369,68.6249 53.0519,64.1929 63.7769,63.6429 L78.7969,75.2279 Z"/>
    <path stroke="#4D4D4D" stroke-linecap="round" stroke-linejoin="round" stroke-width="2" d="M62.8999,39.765 C62.3149,39.179 59.5759,36.417 56.1649,32.988 C58.9989,30.142 61.2089,27.901 61.8269,27.213 C64.3129,24.452 64.5209,23.958 63.1619,22.746 C61.5099,21.276 59.3659,18.642 56.8509,16.34 C55.1679,14.801 54.6799,12.919 51.9779,15.913 C51.3619,16.596 48.7749,19.172 45.5559,22.357 C42.6449,19.456 40.3339,17.179 39.6359,16.557 C36.9149,14.127 36.4209,13.934 35.1359,15.364 C33.5749,17.101 30.8119,19.383 28.3739,22.033 C26.7429,23.804 24.8079,24.37 27.7569,27.012 C28.4429,27.627 31.0619,30.259 34.2769,33.512 C31.7699,36.004 29.8699,37.916 29.3859,38.471 C27.6899,40.415 25.2959,42.028 26.5719,43.303 C27.8479,44.579 33.2349,49.966 34.5109,51.242 C35.7869,52.518 36.7169,52.377 38.1809,50.912 C38.7659,50.328 41.4829,47.631 44.8849,44.247 C47.3989,46.779 49.3389,48.707 49.8969,49.188 C51.8149,50.844 53.3679,53.222 54.7149,51.874 C56.0629,50.528 61.7519,44.838 63.0989,43.491 C64.4459,42.144 64.3379,41.202 62.8999,39.765 Z"/>
  </g>
</svg>
