<svg xmlns="http://www.w3.org/2000/svg" width="119" height="94" viewBox="0 0 119 94">
  <g fill="none" fill-rule="evenodd">
    <path fill="#4176F9" d="M39.1773,38.3912 L41.3073,38.3912 L41.3073,44.9382 L41.3073,45.9282 L75.7383,45.9282 L75.7383,38.3912 L78.8773,38.3912 C78.8773,38.3912 78.9253,31.0092 78.8773,26.9692 C78.8293,22.9292 77.7763,18.5192 74.8443,14.6642 C67.7823,5.3802 49.1983,6.9062 43.8373,14.6212 C41.4193,18.1012 39.9533,20.9482 39.4153,24.4962 C38.8783,28.0442 39.4153,37.9372 39.4153,37.9372 L39.1773,38.3912 Z M29.9513,38.3912 C29.9513,38.3912 28.6733,27.1842 33.3933,15.5792 C37.8903,4.5212 47.9863,0.4102 58.5383,0.0192 C71.6553,-0.4668 82.6363,8.4552 85.1743,17.4102 C87.0053,23.8702 87.7613,30.8542 87.6023,38.3912 L89.5343,38.3912 L89.5343,44.9382 L89.5343,45.9282 C89.5343,45.9282 93.4943,59.3002 86.7353,72.6802 C77.8353,90.2952 63.0173,90.3102 51.7673,89.0992 C36.5273,87.4592 29.0993,75.6432 27.4013,67.5422 C25.2753,57.4022 27.1583,45.9282 27.1583,45.9282 L27.5103,45.9282 L27.5103,38.3912 L29.9513,38.3912 L29.9513,38.3912 Z"/>
    <path stroke="#4D4D4D" stroke-linecap="round" stroke-linejoin="round" stroke-width="2" d="M29.6265,48.543 L92.0035,48.543 C92.0035,48.543 95.9635,61.915 89.2035,75.294 C80.3045,92.91 65.4855,92.925 54.2345,91.714 C38.9955,90.074 31.5675,78.258 29.8695,70.157 C27.7435,60.018 29.6265,48.543 29.6265,48.543 Z"/>
    <polyline stroke="#4D4D4D" stroke-linecap="round" stroke-linejoin="round" stroke-width="2" points="92.004 47.553 92.004 41.006 78.207 41.006 78.207 48.543"/>
    <polyline stroke="#4D4D4D" stroke-linecap="round" stroke-linejoin="round" stroke-width="2" points="43.776 47.553 43.776 41.006 29.978 41.006 29.978 48.543"/>
    <path stroke="#4D4D4D" stroke-linecap="round" stroke-linejoin="round" stroke-width="2" d="M32.4205,41.0059 C32.4205,41.0059 31.1425,29.7989 35.8615,18.1939 C40.3575,7.1359 50.4545,3.0249 61.0065,2.6339 C74.1235,2.1479 85.1055,11.0699 87.6435,20.0249 C89.4745,26.4849 90.2305,33.4689 90.0705,41.0059"/>
    <path stroke="#4D4D4D" stroke-linecap="round" stroke-linejoin="round" stroke-width="2" d="M41.8844 40.5518C41.8844 40.5518 41.3464 30.6598 41.8844 27.1118 42.4214 23.5628 43.8884 20.7158 46.3064 17.2368 51.6674 9.5208 70.2514 7.9948 77.3134 17.2798 80.2444 21.1348 81.2984 25.5448 81.3464 29.5848 81.3944 33.6238 81.3464 41.0058 81.3464 41.0058M57.3717 68.9844C56.2227 67.9744 55.4967 66.4934 55.4967 64.8424 55.4967 61.7994 57.9637 59.3324 61.0067 59.3324 64.0507 59.3324 66.5177 61.7994 66.5177 64.8424 66.5177 66.5734 65.7197 68.1184 64.4717 69.1284L64.6747 78.2164 57.6537 78.2164 57.3717 68.9844z"/>
    <path fill="#17DD7E" d="M23.6295 45.417L20.2865 35.585 20.2585 35.5C20.1935 35.313 20.0995 35.132 19.9735 34.964 19.3245 34.101 18.0985 33.926 17.2345 34.575 16.2005 35.351 15.0905 35.994 13.9825 36.64 13.6115 36.842 13.2385 37.041 12.8655 37.24L9.6975 27.946C9.4905 27.336 8.8605 26.958 8.2115 27.083 7.5005 27.219 7.0355 27.906 7.1725 28.616L9.5215 40.815 9.5405 40.918C9.5955 41.197 9.7115 41.469 9.8905 41.713 10.5435 42.603 11.7945 42.795 12.6845 42.142 13.7255 41.378 14.8305 40.728 15.9365 40.077 16.4195 39.809 16.9045 39.544 17.3935 39.286L21.3055 46.438C21.5965 46.973 22.2375 47.236 22.8335 47.034 23.4995 46.807 23.8565 46.084 23.6295 45.417M19.9273 53.3272L11.4903 47.2752C11.1553 47.0342 10.7443 46.8912 10.2993 46.8882 9.1573 46.8802 8.2263 47.8002 8.2183 48.9422L8.2173 49.1212 8.1883 53.6122 1.7313 52.6482C1.0013 52.5382.2823 52.9782.0643 53.7052-.1757 54.5032.2773 55.3452 1.0733 55.5852L9.8643 58.2292C10.0433 58.2822 10.2423 58.3142 10.4403 58.3162 11.5713 58.3232 12.4923 57.4122 12.5003 56.2822L12.5013 56.1302 12.5253 52.5752 18.6133 55.5342C19.1673 55.8042 19.8523 55.6432 20.2243 55.1252 20.6393 54.5472 20.5063 53.7422 19.9273 53.3272M111.4166 28.795C110.7176 28.554 109.9536 28.926 109.7136 29.627L107.3736 36.424 105.3856 33.748 105.2906 33.62C105.0936 33.356 104.8306 33.135 104.5116 32.986 103.4746 32.501 102.2406 32.948 101.7566 33.985L97.0206 44.105C96.7336 44.717 96.9336 45.463 97.5156 45.843 98.1526 46.26 99.0076 46.082 99.4246 45.444L103.7576 38.816 106.3436 42.297 106.4376 42.424C106.7406 42.83 107.1906 43.128 107.7276 43.23 108.8636 43.444 109.9596 42.697 110.1746 41.56L112.2986 30.312C112.4206 29.668 112.0556 29.015 111.4166 28.795M118.4498 57.1451L109.6048 49.8621C109.3838 49.6811 109.1128 49.5371 108.8168 49.4591 107.7158 49.1701 106.5878 49.8291 106.2988 50.9321L106.2598 51.0801 105.0908 55.5351 99.4958 53.8621C98.9888 53.7101 98.4248 53.9171 98.1448 54.3941 97.8158 54.9541 98.0038 55.6741 98.5638 56.0021L105.7568 60.2211C105.9048 60.3081 106.0768 60.3811 106.2518 60.4271 107.3018 60.7021 108.3758 60.0741 108.6508 59.0241L108.7148 58.7851 109.7138 54.9761 116.9038 59.3271C117.4648 59.6671 118.2048 59.5531 118.6338 59.0321 119.1038 58.4601 119.0218 57.6161 118.4498 57.1451"/>
  </g>
</svg>
