<svg xmlns="http://www.w3.org/2000/svg" xmlns:xlink="http://www.w3.org/1999/xlink" width="86" height="96" viewBox="0 0 86 96">
  <defs>
    <polygon id="icon-hat-a" points="0 95.039 86.046 95.039 86.046 0 0 0"/>
  </defs>
  <g fill="none" fill-rule="evenodd">
    <path fill="#4176F9" d="M77.6919,46.7198 C80.5529,48.9678 84.6389,49.7848 80.7569,52.2368 C79.4359,53.0718 75.2499,55.5868 70.1759,58.6138 L70.1759,74.5738 C70.1759,78.7488 60.6299,91.1298 41.1479,91.1298 C21.6659,91.1298 11.9069,77.7028 11.9009,73.9878 C11.8969,70.2708 11.9069,60.7318 11.9009,56.7608 C6.3049,52.8588 1.8219,49.7188 1.0729,49.1718 C-0.7121,47.8698 -0.1531,47.3328 1.8899,46.1078 C3.9329,44.8808 32.1289,27.9228 34.9889,26.2878 C37.8499,24.6538 39.0759,23.6318 41.7109,25.0628 C44.3449,26.4918 74.8319,44.4728 77.6919,46.7198 Z"/>
    <path stroke="#4D4D4D" stroke-linecap="round" stroke-linejoin="round" stroke-width="2" d="M3.77,52.0812 C5.884,53.6232 37.687,75.7812 40.547,77.6202 C43.408,79.4592 44.43,78.2332 47.699,76.3942 C50.968,74.5562 79.572,57.5982 83.455,55.1452 C87.336,52.6932 83.25,51.8762 80.39,49.6292 C77.529,47.3812 47.042,29.4012 44.408,27.9712 C41.773,26.5412 40.547,27.5622 37.687,29.1972 C34.827,30.8312 6.631,47.7902 4.587,49.0162 C2.544,50.2422 1.986,50.7782 3.77,52.0812 Z"/>
    <path stroke="#4D4D4D" stroke-linecap="round" stroke-linejoin="round" stroke-width="2" d="M14.5991 59.669C14.6041 63.639 14.5941 73.179 14.5991 76.896 14.6041 80.612 24.3641 94.039 43.8461 94.039 63.3281 94.039 72.8731 81.658 72.8731 77.481L72.8731 61.522M5.8408 53.5235L5.8408 63.9105"/>
    <mask id="icon-hat-b" fill="#fff">
      <use xlink:href="#icon-hat-a"/>
    </mask>
    <polygon stroke="#4D4D4D" stroke-linecap="round" stroke-linejoin="round" stroke-width="2" points="2.666 75.525 9.016 75.525 9.016 63.91 2.666 63.91" mask="url(#icon-hat-b)"/>
    <path fill="#17DD7E" d="M26.3281 13.9474L16.8821 7.4804C16.3411 7.1094 15.5961 7.1814 15.1391 7.6774 14.6371 8.2224 14.6711 9.0704 15.2151 9.5724L20.4991 14.4464 17.2491 15.1914 17.0941 15.2264C16.7731 15.3014 16.4661 15.4544 16.2011 15.6854 15.3401 16.4404 15.2541 17.7494 16.0081 18.6094L23.3711 27.0134C23.8161 27.5224 24.5791 27.6394 25.1621 27.2604 25.8001 26.8434 25.9791 25.9894 25.5631 25.3514L21.2371 18.7194 25.4631 17.7514 25.6181 17.7154C26.1111 17.6004 26.5641 17.3084 26.8731 16.8574 27.5261 15.9034 27.2821 14.5994 26.3281 13.9474M72.0469 12.2696C71.7129 11.6086 70.9059 11.3436 70.2449 11.6776L60.0219 16.8496C59.7669 16.9806 59.5259 17.1696 59.3359 17.4096 58.6289 18.3026 58.7779 19.6006 59.6719 20.3076L59.7919 20.4036 63.4009 23.2646 59.6209 27.7146C59.2779 28.1186 59.2399 28.7176 59.5649 29.1656 59.9449 29.6916 60.6809 29.8086 61.2069 29.4276L67.9599 24.5386C68.0989 24.4366 68.2349 24.3086 68.3479 24.1666 69.0219 23.3166 68.8789 22.0806 68.0279 21.4066L67.8339 21.2516 64.7479 18.8056 71.6219 13.9706C72.1589 13.5946 72.3519 12.8716 72.0469 12.2696M48.8921 13.1446L48.6151 13.0426 43.1171 11.0296 47.4051 1.9106C47.6871 1.3116 47.4891.5816 46.9171.2126 46.2941-.1874 45.4651-.0064 45.0651.6156L38.2621 11.2016C38.1841 11.3236 38.1131 11.4636 38.0611 11.6056 37.6721 12.6676 38.2181 13.8456 39.2811 14.2356L39.4111 14.2836 44.8461 16.2736 42.9201 20.0216C42.6881 20.4746 42.7681 21.0446 43.1561 21.4146 43.6271 21.8636 44.3731 21.8456 44.8231 21.3736L49.6341 16.3306C49.8111 16.1426 49.9611 15.9106 50.0561 15.6536 50.4271 14.6386 49.9061 13.5156 48.8921 13.1446" mask="url(#icon-hat-b)"/>
  </g>
</svg>
