<svg xmlns="http://www.w3.org/2000/svg" xmlns:xlink="http://www.w3.org/1999/xlink" width="104" height="75" viewBox="0 0 104 75">
  <defs>
    <polygon id="icon-book-a" points="0 .027 96.162 .027 96.162 71.512 0 71.512"/>
  </defs>
  <g fill="none" fill-rule="evenodd" transform="translate(0 -1)">
    <g transform="translate(0 .973)">
      <mask id="icon-book-b" fill="#fff">
        <use xlink:href="#icon-book-a"/>
      </mask>
      <path fill="#FE9933" d="M70.6792,6.245 C70.6792,6.245 71.8932,8.425 72.9822,10.58 C74.0722,12.735 77.9502,19.928 77.9502,19.928 C77.9502,19.928 81.8612,27.18 82.3852,28.273 C82.9082,29.367 85.8072,34.053 86.6962,36.388 C87.5862,38.723 92.1672,45.927 92.4752,47.263 C92.7832,48.599 96.1622,54.2 96.1622,54.2 C92.7712,52.891 89.5352,52.275 86.5112,52.145 C81.8282,51.945 77.6522,52.906 74.1922,54.249 C67.6542,56.786 63.6752,60.687 63.6752,60.687 L59.5362,61.324 C56.8792,58.894 53.2632,58.203 49.2972,58.558 C45.3682,58.91 41.0962,60.289 37.0722,62.024 C34.3012,63.218 31.6472,64.581 29.3032,65.894 C24.0672,68.827 20.3762,71.512 20.3762,71.512 L17.7772,65.34 C17.7772,65.34 17.0232,62.545 14.1022,56.611 C11.1812,50.678 7.0802,39.935 7.0802,39.935 C7.0802,39.935 4.3762,34.197 3.1002,30.482 C1.8252,26.768 0.0002,23.119 0.0002,23.119 C0.3912,19.985 1.7732,17.223 3.8122,14.87 C7.3392,10.802 12.7402,8.577 18.7342,6.651 C22.1402,5.557 25.8252,5.604 29.1832,5.933 C32.7942,6.288 36.1232,7.32 38.7282,9.097 C38.7282,9.097 39.9902,6.968 42.4812,4.767 C44.9012,2.629 49.4652,-0.182 53.1922,0.039 C56.9202,0.261 58.8102,0.18 62.1422,1.433 C64.7732,2.424 67.6192,3.974 70.6792,6.245" mask="url(#icon-book-b)"/>
    </g>
    <path stroke="#4D4D4D" stroke-linecap="round" stroke-linejoin="round" stroke-width="2" d="M76.8994 9.7064C76.8994 9.7064 78.1144 11.8864 79.2034 14.0414 80.2924 16.1954 84.1704 23.3894 84.1704 23.3894 84.1704 23.3894 88.0824 30.6414 88.6044 31.7344 89.1284 32.8284 92.0274 37.5144 92.9174 39.8494 93.8054 42.1844 98.3874 49.3884 98.6954 50.7244 99.0034 52.0604 102.3814 57.6614 102.3814 57.6614 98.9914 56.3524 95.7554 55.7364 92.7314 55.6064 88.0484 55.4064 83.8734 56.3664 80.4134 57.7094 73.8754 60.2474 69.8954 64.1484 69.8954 64.1484L65.7564 64.7854C63.0994 62.3554 59.4834 61.6644 55.5174 62.0194 51.5894 62.3714 47.3164 63.7504 43.2924 65.4844 40.5214 66.6794 37.8674 68.0424 35.5234 69.3554 30.2874 72.2884 26.5964 74.9734 26.5964 74.9734L23.9974 68.8014C23.9974 68.8014 23.2434 66.0054 20.3224 60.0714 17.4014 54.1384 13.3004 43.3964 13.3004 43.3964 13.3004 43.3964 10.5964 37.6584 9.3204 33.9434 8.0454 30.2294 6.2204 26.5804 6.2204 26.5804 6.6114 23.4464 7.9934 20.6844 10.0324 18.3314 13.5594 14.2634 18.9604 12.0374 24.9544 10.1114 28.3604 9.0184 32.0454 9.0644 35.4034 9.3944 39.0144 9.7494 42.3434 10.7814 44.9484 12.5584 44.9484 12.5584 46.2114 10.4284 48.7014 8.2274 51.1214 6.0894 55.6854 3.2784 59.4124 3.5004 63.1404 3.7224 65.0304 3.6414 68.3624 4.8944 70.9934 5.8844 73.8394 7.4344 76.8994 9.7064zM44.7026 12.2806L67.0956 63.2876M18.1152 31.974C18.1152 31.974 27.9702 21.011 43.4352 24.51M20.9653 36.346C20.9653 36.346 26.3183 30.698 32.2003 30.538"/>
  </g>
</svg>
