<svg xmlns="http://www.w3.org/2000/svg" xmlns:xlink="http://www.w3.org/1999/xlink" width="70" height="91" viewBox="0 0 70 91">
  <defs>
    <polygon id="icon-backbag-a" points="0 .93 0 23 13.351 23 13.351 .93"/>
    <polygon id="icon-backbag-c" points=".661 .277 21.119 .277 21.119 32.309 .661 32.309"/>
  </defs>
  <g fill="none" fill-rule="evenodd" transform="translate(0 -1)">
    <path fill="#4176F9" d="M9.1636,28.777 C9.1076,37.609 8.7266,58.011 9.1636,67.599 C9.5996,77.186 10.7436,80.964 18.3456,81.399 C25.9466,81.836 45.0106,81.547 51.0116,81.547 C57.0126,81.547 58.6896,76.755 58.6896,67.163 C58.6896,56.658 57.5696,34.89 57.5816,28.468 C57.6006,18.75 49.3036,5.747 32.5396,5.822 C15.2336,5.899 9.2106,21.237 9.1636,28.777"/>
    <path stroke="#4D4D4D" stroke-linecap="round" stroke-linejoin="round" stroke-width="2" d="M12.6372,32.15 C12.5812,40.982 12.2002,61.384 12.6372,70.971 C13.0732,80.559 14.2172,84.337 21.8192,84.772 C29.4202,85.208 48.4842,84.92 54.4852,84.92 C60.4862,84.92 62.1632,80.128 62.1632,70.536 C62.1632,60.031 61.0432,38.263 61.0552,31.841 C61.0742,22.122 52.7772,9.12 36.0132,9.195 C18.7072,9.272 12.6842,24.61 12.6372,32.15 Z"/>
    <path stroke="#4D4D4D" stroke-linecap="round" stroke-linejoin="round" stroke-width="2" d="M12.4946 46.0729C12.5606 39.7929 20.0896 40.3769 24.6096 40.3769 29.1306 40.3769 47.9586 40.3469 52.7936 40.3619 57.6296 40.3769 61.1506 40.0649 61.5106 47.1039M28.8521 54.61L46.5611 54.61C47.8391 54.61 47.8651 55.29 47.8651 56.355L47.9741 69.522C47.9711 70.694 46.9061 70.8 45.8411 70.8L27.5491 70.8C27.0441 70.8 27.0821 69.813 27.0511 68.321 27.0041 66.112 27.0121 58.755 27.2131 55.985 27.2871 54.967 27.4271 54.61 28.8521 54.61zM31.6499 54.61L31.6499 57.823M23.9175 22.8854L47.9745 22.8854M44.2915 26.0475L44.2915 22.8855M26.0503 11.2731C26.5803 6.4941 31.7103 2.9201 37.6363 2.8041 43.5633 2.6881 47.4393 8.2621 48.0533 11.3051"/>
    <g transform="translate(0 68.723)">
      <mask id="icon-backbag-b" fill="#fff">
        <use xlink:href="#icon-backbag-a"/>
      </mask>
      <path fill="#17DD7E" d="M4.7261,2.341 C5.0771,4.448 5.1341,6.381 5.3301,8.232 C5.5021,10.071 5.7581,11.817 6.2131,13.296 C6.6811,14.791 7.3231,15.888 8.1881,16.785 C8.3751,17.048 8.6591,17.224 8.9241,17.44 L9.3281,17.778 L9.8151,18.056 C10.4291,18.51 11.2471,18.753 12.0431,19.235 L12.4651,19.489 C13.3311,20.012 13.6101,21.138 13.0871,22.004 C12.7811,22.511 12.2571,22.818 11.7111,22.879 C10.5671,22.999 9.3851,23.11 8.1611,22.794 L7.2421,22.599 C6.9351,22.51 6.6401,22.362 6.3381,22.237 C5.7371,21.976 5.1281,21.712 4.6021,21.277 C4.0551,20.878 3.5021,20.472 3.0811,19.944 C2.6291,19.439 2.1831,18.922 1.8821,18.345 L1.3951,17.488 C1.2351,17.203 1.1521,16.905 1.0301,16.613 C0.7971,16.024 0.5801,15.438 0.4711,14.854 C-0.0999,12.508 -0.0779,10.263 0.1481,8.155 C0.3891,6.049 0.8591,4.042 1.4231,2.199 L1.4461,2.125 C1.7191,1.234 2.6631,0.732 3.5541,1.004 C4.1871,1.198 4.6221,1.731 4.7261,2.341" mask="url(#icon-backbag-b)"/>
    </g>
    <g transform="translate(48 .723)">
      <mask id="icon-backbag-d" fill="#fff">
        <use xlink:href="#icon-backbag-c"/>
      </mask>
      <path fill="#17DD7E" d="M2.2573,0.3566 C3.9583,0.2206 5.7143,0.2296 7.4923,0.6086 C7.9383,0.6716 8.3753,0.8146 8.8173,0.9426 C9.2533,1.0866 9.7103,1.1716 10.1313,1.3786 C10.9863,1.7576 11.8503,2.1336 12.6353,2.6746 C13.4633,3.1516 14.1463,3.8106 14.8653,4.4296 C15.5393,5.0826 16.1523,5.8066 16.7053,6.5476 C17.7633,8.0646 18.6163,9.6776 19.2003,11.3376 C20.4323,14.6446 20.9413,18.0256 21.0573,21.3316 C21.1903,22.9906 21.0733,24.6296 21.0273,26.2656 C20.9343,27.8986 20.7233,29.5146 20.5043,31.1246 C20.4023,31.8736 19.7113,32.3986 18.9623,32.2966 C18.3413,32.2116 17.8733,31.7236 17.7903,31.1316 L17.7783,31.0406 C17.5573,29.4706 17.4543,27.9076 17.2683,26.3626 C17.0563,24.8256 16.9163,23.2806 16.6343,21.7846 C16.4233,20.2656 16.0643,18.8086 15.7573,17.3486 C15.3433,15.9316 14.9603,14.5156 14.4063,13.2116 C13.3103,10.5986 11.8713,8.3076 9.7863,6.8106 C7.7783,5.1946 5.0793,4.4026 2.1313,3.8016 L2.0493,3.7856 C1.1113,3.5936 0.5053,2.6776 0.6963,1.7396 C0.8543,0.9646 1.5073,0.4176 2.2573,0.3566" mask="url(#icon-backbag-d)"/>
    </g>
  </g>
</svg>
