<svg xmlns="http://www.w3.org/2000/svg" width="202" height="28" viewBox="0 0 202 28">
  <path fill="#E18727" fill-rule="evenodd" d="M64.9172363,52.3964844 L64.9172363,66 L58.7307129,66 L58.7307129,56.4125977 C58.7307129,55.4783482 58.7079267,54.6836784 58.6623535,54.0285645 C58.6167804,53.3734505 58.4914561,52.8408224 58.286377,52.4306641 C58.0812978,52.0205058 57.7708354,51.7214365 57.3549805,51.5334473 C56.9391255,51.345458 56.3552284,51.2514648 55.6032715,51.2514648 C54.9994273,51.2514648 54.4126819,51.3739408 53.8430176,51.6188965 C53.2733533,51.8638521 52.7606631,52.1230455 52.3049316,52.3964844 L52.3049316,66 L46.1525879,66 L46.1525879,46.8081055 L52.3049316,46.8081055 L52.3049316,48.9272461 C53.3645073,48.0955362 54.3784945,47.4461286 55.3469238,46.9790039 C56.3153531,46.5118792 57.386306,46.2783203 58.5598145,46.2783203 C59.8244692,46.2783203 60.9409945,46.5602999 61.9094238,47.1242676 C62.8778531,47.6882352 63.6354953,48.5170844 64.182373,49.6108398 C65.4128479,48.5740508 66.609125,47.7594431 67.7712402,47.1669922 C68.9333554,46.5745413 70.0726669,46.2783203 71.189209,46.2783203 C73.2627871,46.2783203 74.8378852,46.8992451 75.9145508,48.1411133 C76.9912163,49.3829815 77.529541,51.1717006 77.529541,53.5073242 L77.529541,66 L71.3430176,66 L71.3430176,56.4125977 C71.3430176,55.4669549 71.3230796,54.6694368 71.2832031,54.0200195 C71.2433266,53.3706022 71.1208506,52.8408224 70.9157715,52.4306641 C70.7220856,52.0205058 70.4144715,51.7214365 69.9929199,51.5334473 C69.5713683,51.345458 68.9789263,51.2514648 68.2155762,51.2514648 C67.7028783,51.2514648 67.2015812,51.3397615 66.7116699,51.5163574 C66.2217586,51.6929534 65.6236201,51.9863261 64.9172363,52.3964844 Z M94.807373,60.9926758 L94.807373,56.9936523 C93.9756632,57.0620121 93.0756071,57.1560053 92.1071777,57.2756348 C91.1387484,57.3952643 90.4038925,57.5348299 89.9025879,57.6943359 C89.2873504,57.8880218 88.8173844,58.1700014 88.4926758,58.5402832 C88.1679671,58.910565 88.0056152,59.3976207 88.0056152,60.0014648 C88.0056152,60.4002299 88.0397946,60.7249336 88.1081543,60.9755859 C88.176514,61.2262382 88.3474107,61.4654937 88.6208496,61.6933594 C88.8828952,61.9212251 89.1962059,62.0892735 89.560791,62.1975098 C89.9253762,62.305746 90.4950319,62.3598633 91.2697754,62.3598633 C91.8850128,62.3598633 92.5087859,62.234539 93.1411133,61.9838867 C93.7734407,61.7332344 94.328855,61.4028341 94.807373,60.9926758 Z M94.807373,63.9663086 C94.4769677,64.2169609 94.0668156,64.5188784 93.5769043,64.8720703 C93.086993,65.2252622 92.6255718,65.5043935 92.192627,65.7094727 C91.5887828,65.9829115 90.9621615,66.1851393 90.3127441,66.3161621 C89.6633268,66.4471849 88.9512571,66.5126953 88.1765137,66.5126953 C86.3535879,66.5126953 84.8269104,65.9487361 83.5964355,64.8208008 C82.3659606,63.6928655 81.7507324,62.2516364 81.7507324,60.4970703 C81.7507324,59.0956961 82.0640431,57.950688 82.6906738,57.0620117 C83.3173046,56.1733354 84.2059676,55.4726588 85.3566895,54.9599609 C86.4960181,54.4472631 87.9087644,54.0826834 89.5949707,53.8662109 C91.2811771,53.6497385 93.0300202,53.4902349 94.8415527,53.3876953 L94.8415527,53.2851562 C94.8415527,52.2255806 94.4086144,51.493573 93.5427246,51.0891113 C92.6768349,50.6846497 91.400806,50.4824219 89.7145996,50.4824219 C88.7005971,50.4824219 87.6182512,50.6618634 86.4675293,51.020752 C85.3168074,51.3796405 84.4908065,51.6559235 83.989502,51.8496094 L83.4255371,51.8496094 L83.4255371,47.2182617 C84.0749544,47.0473624 85.1316659,46.8451346 86.5957031,46.6115723 C88.0597404,46.3780099 89.526604,46.2612305 90.9963379,46.2612305 C94.4940767,46.2612305 97.0205,46.7995552 98.5756836,47.8762207 C100.130867,48.9528862 100.908447,50.6419156 100.908447,52.9433594 L100.908447,66 L94.807373,66 L94.807373,63.9663086 Z M123.244873,59.9160156 C123.244873,61.8984474 122.35621,63.4963318 120.578857,64.7097168 C118.801505,65.9231018 116.369075,66.5297852 113.281494,66.5297852 C111.572501,66.5297852 110.023038,66.3702815 108.633057,66.0512695 C107.243076,65.7322575 106.12655,65.3790709 105.283447,64.9916992 L105.283447,59.9331055 L105.847412,59.9331055 C106.155031,60.1495779 106.511066,60.385985 106.915527,60.642334 C107.319989,60.8986829 107.892493,61.174966 108.633057,61.4711914 C109.271081,61.733237 109.994543,61.958251 110.803467,62.1462402 C111.61239,62.3342295 112.478267,62.4282227 113.401123,62.4282227 C114.608811,62.4282227 115.503171,62.2943536 116.084229,62.0266113 C116.665286,61.7588691 116.955811,61.3629583 116.955811,60.8388672 C116.955811,60.3717425 116.784914,60.0327973 116.443115,59.8220215 C116.101317,59.6112457 115.451909,59.4090179 114.494873,59.215332 C114.039142,59.1127925 113.421065,59.0017096 112.640625,58.8820801 C111.860185,58.7624506 111.150963,58.6171884 110.512939,58.4462891 C108.769767,57.9905576 107.476648,57.2813362 106.633545,56.3186035 C105.790442,55.3558708 105.368896,54.1567455 105.368896,52.7211914 C105.368896,50.8754791 106.243318,49.3402568 107.992188,48.1154785 C109.741057,46.8907003 112.130763,46.2783203 115.161377,46.2783203 C116.596931,46.2783203 117.97265,46.4235825 119.288574,46.7141113 C120.604499,47.0046401 121.632727,47.3151025 122.373291,47.6455078 L122.373291,52.4990234 L121.843506,52.4990234 C120.932043,51.8723927 119.892421,51.3625508 118.724609,50.9694824 C117.556798,50.5764141 116.374762,50.3798828 115.178467,50.3798828 C114.187251,50.3798828 113.352705,50.5166002 112.674805,50.7900391 C111.996904,51.0634779 111.657959,51.4508438 111.657959,51.9521484 C111.657959,52.4078799 111.811766,52.7553699 112.119385,52.9946289 C112.427003,53.2338879 113.150466,53.4731433 114.289795,53.7124023 C114.916426,53.8377285 115.591468,53.9602045 116.314941,54.079834 C117.038415,54.1994635 117.764726,54.3504223 118.493896,54.5327148 C120.111743,54.9542664 121.30802,55.6179154 122.082764,56.5236816 C122.857507,57.4294479 123.244873,58.5602146 123.244873,59.9160156 Z M133.481689,66 L127.329346,66 L127.329346,46.8081055 L133.481689,46.8081055 L133.481689,66 Z M133.652588,44.0737305 L127.158447,44.0737305 L127.158447,39.4082031 L133.652588,39.4082031 L133.652588,44.0737305 Z M151.733643,43.9199219 L151.272217,43.9199219 C150.998778,43.8401689 150.642743,43.749024 150.204102,43.6464844 C149.76546,43.5439448 149.295494,43.4926758 148.794189,43.4926758 C147.586501,43.4926758 146.769045,43.709145 146.341797,44.1420898 C145.914549,44.5750347 145.700928,45.4124287 145.700928,46.6542969 L145.700928,46.8081055 L150.451904,46.8081055 L150.451904,50.9780273 L145.906006,50.9780273 L145.906006,66 L139.753662,66 L139.753662,50.9780273 L137.121826,50.9780273 L137.121826,46.8081055 L139.753662,46.8081055 L139.753662,46.2783203 C139.753662,43.9313034 140.377435,42.1710671 141.625,40.9975586 C142.872565,39.8240501 144.760974,39.2373047 147.290283,39.2373047 C148.201746,39.2373047 149.027747,39.2686358 149.768311,39.3312988 C150.508874,39.3939619 151.163978,39.476562 151.733643,39.5791016 L151.733643,43.9199219 Z M173.198486,66 L167.046143,66 L167.046143,63.8808594 C165.906814,64.7467491 164.864344,65.4047015 163.918701,65.8547363 C162.973058,66.3047711 161.84514,66.5297852 160.534912,66.5297852 C158.415761,66.5297852 156.783697,65.9202535 155.638672,64.7011719 C154.493647,63.4820903 153.921143,61.6819781 153.921143,59.3007812 L153.921143,46.8081055 L160.107666,46.8081055 L160.107666,56.3271484 C160.107666,57.2955778 160.138997,58.1016407 160.20166,58.7453613 C160.264323,59.389082 160.409585,59.9217101 160.637451,60.3432617 C160.853924,60.7648133 161.181476,61.0724274 161.620117,61.2661133 C162.058759,61.4597991 162.671139,61.5566406 163.457275,61.5566406 C163.981367,61.5566406 164.562415,61.4597991 165.200439,61.2661133 C165.838463,61.0724274 166.453692,60.7875995 167.046143,60.4116211 L167.046143,46.8081055 L173.198486,46.8081055 L173.198486,66 Z M198.286377,66 L192.099854,66 L192.099854,56.480957 C192.099854,55.7062136 192.059978,54.93433 191.980225,54.1652832 C191.900472,53.3962364 191.763754,52.8294289 191.570068,52.4648438 C191.342203,52.0432922 191.008954,51.7356781 190.570312,51.5419922 C190.131671,51.3483063 189.519291,51.2514648 188.733154,51.2514648 C188.174883,51.2514648 187.608076,51.3426098 187.032715,51.5249023 C186.457354,51.7071949 185.833581,51.9977194 185.161377,52.3964844 L185.161377,66 L179.009033,66 L179.009033,46.8081055 L185.161377,46.8081055 L185.161377,48.9272461 C186.255132,48.0727496 187.306147,47.4176455 188.314453,46.9619141 C189.322759,46.5061826 190.442133,46.2783203 191.672607,46.2783203 C193.746185,46.2783203 195.366856,46.8821554 196.534668,48.0898438 C197.70248,49.2975321 198.286377,51.1033408 198.286377,53.5073242 L198.286377,66 Z M222.605225,66 L216.452881,66 L216.452881,64.0004883 C215.393305,64.866378 214.402104,65.5043925 213.479248,65.9145508 C212.556392,66.3247091 211.491136,66.5297852 210.283447,66.5297852 C207.947824,66.5297852 206.079353,65.6297291 204.677979,63.8295898 C203.276604,62.0294506 202.575928,59.6027171 202.575928,56.5493164 C202.575928,54.9200765 202.812335,53.4759991 203.285156,52.217041 C203.757978,50.9580829 204.404537,49.8785852 205.224854,48.9785156 C205.999597,48.1240192 206.939529,47.4603702 208.044678,46.9875488 C209.149826,46.5147275 210.254959,46.2783203 211.360107,46.2783203 C212.510829,46.2783203 213.45361,46.4007963 214.188477,46.645752 C214.923344,46.8907076 215.678137,47.20117 216.452881,47.5771484 L216.452881,39.4082031 L222.605225,39.4082031 L222.605225,66 Z M216.452881,60.7021484 L216.452881,51.2856445 C216.019936,51.103352 215.564211,50.9723311 215.085693,50.8925781 C214.607175,50.8128251 214.16854,50.7729492 213.769775,50.7729492 C212.151929,50.7729492 210.938562,51.2770946 210.129639,52.2854004 C209.320715,53.2937062 208.91626,54.6922111 208.91626,56.480957 C208.91626,58.3608492 209.240964,59.7251748 209.890381,60.5739746 C210.539798,61.4227744 211.582268,61.847168 213.017822,61.847168 C213.576093,61.847168 214.168535,61.7417817 214.795166,61.5310059 C215.421797,61.3202301 215.974363,61.043947 216.452881,60.7021484 Z M247.317139,57.5405273 L233.235107,57.5405273 C233.326254,59.0444411 233.898758,60.1951458 234.952637,60.9926758 C236.006516,61.7902058 237.558828,62.1889648 239.609619,62.1889648 C240.908454,62.1889648 242.167393,61.955406 243.386475,61.4882812 C244.605556,61.0211565 245.568274,60.5198594 246.274658,59.984375 L246.958252,59.984375 L246.958252,64.9233398 C245.568271,65.4816109 244.258063,65.8860665 243.027588,66.1367188 C241.797113,66.387371 240.435636,66.5126953 238.943115,66.5126953 C235.092185,66.5126953 232.141368,65.6468186 230.090576,63.9150391 C228.039785,62.1832596 227.014404,59.7166501 227.014404,56.5151367 C227.014404,53.3478032 227.985667,50.8384695 229.928223,48.9870605 C231.870778,47.1356516 234.533919,46.2099609 237.917725,46.2099609 C241.039485,46.2099609 243.386467,46.9989342 244.95874,48.5769043 C246.531014,50.1548744 247.317139,52.4249526 247.317139,55.387207 L247.317139,57.5405273 Z M241.198975,53.9345703 C241.164795,52.647129 240.845788,51.6787142 240.241943,51.0292969 C239.638099,50.3798796 238.698167,50.0551758 237.422119,50.0551758 C236.237217,50.0551758 235.263106,50.3627899 234.499756,50.9780273 C233.736406,51.5932648 233.309164,52.5787693 233.218018,53.9345703 L241.198975,53.9345703 Z" transform="translate(-46 -39)"/>
</svg>
