<svg xmlns="http://www.w3.org/2000/svg" width="277" height="368" viewBox="0 0 277 368">
  <g fill="none" fill-rule="evenodd" transform="translate(1 1)">
    <path stroke="#FE9933" stroke-linecap="round" stroke-linejoin="round" stroke-width="2" d="M188.4946 219.9907C188.6886 220.6787 188.8836 221.3657 189.0936 222.1097 188.8776 222.4717 188.5816 222.9687 188.2546 223.5167 189.4716 224.5817 190.6766 225.6347 191.9116 226.7147 191.7156 227.3407 191.5476 227.8767 191.3846 228.3977 193.3266 232.2447 196.6196 234.3967 200.6226 236.0627 200.3656 237.4137 200.5926 238.7277 202.5256 239.1897 201.0776 241.8147 199.7176 244.2817 198.1546 247.1157 199.2906 248.4147 200.3776 249.9217 201.7316 251.1307 203.0676 252.3217 204.0046 253.7357 204.1936 255.3937 204.3546 256.8057 204.9706 257.5647 206.1096 258.0557 206.2686 259.4747 206.4206 260.8167 206.5886 262.3087 207.0026 262.6187 207.7276 262.9257 208.0896 263.4737 209.8976 266.2117 212.6466 266.2517 215.6476 266.1927 218.3266 269.3917 222.8476 271.1497 223.8906 276.0167L226.4946 276.0167C227.9066 277.8267 230.5686 278.6957 230.3096 281.6097 231.2736 282.3007 232.2396 282.9907 233.3226 283.7637 233.7996 283.1287 234.2396 282.5427 234.9516 281.5947 236.3896 283.1217 238.0276 284.4007 239.0236 286.0637 239.8296 287.4107 240.4956 287.1667 241.5956 286.6387 242.6536 288.5117 243.6906 290.3467 244.7566 292.2337 242.9006 294.6317 244.5906 297.0157 244.3786 300.0087 243.8236 300.8477 242.9156 302.2207 241.9506 303.6797 239.0746 302.9317 236.5456 299.8437 232.8756 301.8617 232.8756 302.3937 232.8046 302.8357 232.8866 303.2487 233.7346 307.5097 231.7096 310.9097 229.5576 314.2437 228.5836 315.7527 226.9116 315.5547 225.3616 315.7597 222.6816 316.1147 220.0106 316.6697 218.6456 319.7937 217.4916 319.9307 216.2036 320.0827 214.8776 320.2397 213.8646 321.5897 212.7856 323.0267 211.6476 324.5417 214.5156 328.5747 217.3446 332.5537 220.1636 336.5177 219.1916 338.7107 218.2816 340.7667 217.2196 343.1637 219.1866 343.0547 220.8966 342.9607 222.7356 342.8587 223.1826 344.1137 223.6436 345.4077 224.1196 346.7397 223.4116 347.7007 222.7096 348.6567 222.1476 349.4217L222.1476 353.2787C221.0996 353.6747 219.9206 354.1197 218.5916 354.6207 216.9516 352.9807 215.2396 351.2687 213.5136 349.5427 213.9346 348.9837 214.2816 348.5237 214.7336 347.9237 212.4066 345.0677 209.7396 344.5667 206.6676 346.3777 206.0656 346.7327 205.6866 347.4667 205.1046 348.1427 204.0546 346.9247 203.2096 345.9447 202.2916 344.8807L196.3596 344.8807C196.2056 344.2217 196.0876 343.7167 195.9496 343.1247 195.2036 343.5707 194.5916 343.9367 193.8856 344.3587 194.0726 345.7427 194.2606 347.1387 194.4616 348.6407L184.2766 348.6407C184.1356 349.2777 184.0516 349.6537 183.9506 350.1077L176.3666 350.1077C175.9516 351.3567 175.5616 352.5307 175.1186 353.8667L170.0216 353.8667C170.0756 354.9007 170.1206 355.7557 170.1756 356.8017L166.6886 356.8017C166.0166 357.9377 165.4296 358.9307 164.8376 359.9307 164.2276 359.1907 163.6246 358.4587 162.7696 357.4207 160.8706 360.4537 157.9466 359.9297 155.1216 360.3097 155.2716 359.3667 155.4166 358.4597 155.5686 357.5017 154.4056 356.6487 153.2816 355.8237 152.0116 354.8927 152.2856 354.5397 152.5356 354.2157 152.9076 353.7337 152.5236 353.5287 152.1646 353.3367 151.6406 353.0577 148.8866 355.6347 146.0936 353.1867 143.0806 352.3687 142.6096 352.7157 142.0776 353.1077 141.5096 353.5267 140.0716 353.0927 138.2796 353.1747 137.8786 351.1157M92.9477 168.641C92.4997 167.425 92.0527 166.21 91.5277 164.784 92.9587 164.418 94.3087 164.072 95.5177 163.762 96.5037 164.895 97.3567 165.875 98.2737 166.928 99.7097 165.948 101.2347 165.146 102.4317 164.002 103.1437 163.321 103.3397 162.1 103.7677 161.122 104.1957 160.144 104.7177 159.195 105.0277 158.18 105.4297 156.865 105.6717 155.5 105.9647 154.152 106.1097 153.485 106.0807 152.747 106.3607 152.148 107.0987 150.567 107.9627 149.045 108.9157 147.235 106.3297 146.626 103.7087 146.586 102.6577 143.605 102.7477 143.318 102.9157 142.783 103.1777 141.943 102.3167 141.407 101.4257 140.851 100.4737 140.259 100.7697 134.894 99.9607 133.614 95.3987 133.049 95.1467 132.418 94.8737 131.735 94.5647 130.963 95.1807 130.47 95.8227 129.956 96.4587 129.447 95.8207 128.172 95.2097 126.95 94.5847 125.701 94.9737 124.54 95.2667 123.271 96.9847 123.509 97.0877 123.523 97.2187 123.272 97.3497 123.161 98.7437 121.987 99.2877 117.858 98.1937 116.073 97.3227 116.242 96.4057 116.421 95.8367 116.531 95.0027 117.96 94.6087 119.629 93.6267 120.117 91.4147 121.215 88.9127 121.198 86.3447 120.151L86.3447 115.182 80.8457 115.182C80.1527 116.239 79.5027 117.232 78.8507 118.226 78.0257 117.983 77.2277 117.749 76.2237 117.453 75.8647 118.262 75.4767 119.135 75.0307 120.14 76.1297 120.873 77.1887 121.579 78.3087 122.325 78.8267 125.076 79.3627 127.913 79.9207 130.869 79.1627 131.627 78.1237 132.666 77.0707 133.719 75.9607 133.459 74.7337 133.171 73.2067 132.814 72.4987 133.523 71.6727 134.35 70.7467 135.276 68.6227 135.252 66.1847 134.819 64.7947 137.035 63.9297 136.871 63.3177 136.754 62.5497 136.609 62.4607 136.139 62.3447 135.527 62.2127 134.831 63.3337 134.236 64.3997 133.671 65.4217 133.13 65.6267 132.514 65.8107 131.964 66.0697 131.19 65.1637 130.652 64.2167 130.089 62.8687 129.289 63.4307 127.222 64.0417 124.974 64.6847 122.609 62.5007 121.658 60.0707 120.6 57.7777 119.602 57.4587 118.647 57.2327 117.969 56.9757 117.199 56.2287 116.88 55.4247 116.537 54.6697 116.215 54.2867 117.425 53.9317 118.652 53.4977 119.851 53.3907 120.146 53.0647 120.403 52.7797 120.584 50.5277 122.005 48.2897 123.455 45.9827 124.781 45.2337 125.212 44.3017 125.398 43.4287 125.525 40.9157 125.893 38.3897 126.173 36.0337 126.468 35.4987 128.037 35.0257 129.03 33.5587 129.491 32.8177 129.724 32.3907 130.958 31.6697 131.948 29.5577 131.627 28.3107 133.286 26.8387 134.829 28.2137 135.888 29.5897 136.948 30.9767 138.016 29.7987 139.471 28.6267 140.919 27.3747 142.464 25.9387 141.037 24.8367 142.487 23.6357 142.667 22.4277 142.848 21.3397 143.838 20.1327 144.01 17.8987 144.329 15.5867 144.596 13.3627 144.362 10.5197 144.062 7.7317 143.513 4.8277 144.502L4.8277 148.606C6.5507 149.089 6.8247 150.48 6.5307 152.038 7.2937 152.554 7.9817 153.018 8.7327 153.525 7.8147 155.048 8.7117 156.182 9.5377 157.055 12.3667 160.046 11.2357 163.649 11.0177 166.982 10.9307 168.319 9.3537 169.583 8.3947 170.835 7.4297 172.094 6.4727 173.329 6.5927 175.243L9.1117 175.243C9.2887 178.187 6.9377 178.698 5.2607 179.598 3.6247 180.478 1.7837 180.979-.0003 181.658.1357 182.4.3037 183.321.4867 184.321 1.7957 184.623 3.0927 184.922 4.4517 185.236 4.2647 185.946 4.1067 186.547 3.9287 187.221 4.6537 187.686 5.3517 188.135 6.1117 188.624L6.1117 190.685C5.5177 190.924 4.8337 191.199 4.0937 191.497L4.0937 196.739C4.8887 196.95 5.8247 197.198 6.7577 197.446 7.2327 198.782 7.7117 200.131 8.1807 201.451 9.1587 201.843 10.0967 202.22 11.1687 202.65 10.2667 203.931 9.4767 205.054 8.7397 206.102 9.2247 208.178 10.7437 208.699 12.6887 209.031 13.5147 211.418 14.3807 213.92 15.2677 216.488 12.7697 218.318 11.0517 220.907 7.6707 221.14 7.6707 221.58 7.6137 221.9 7.6857 222.188 7.7627 222.498 7.9617 222.778 8.1677 223.193 7.7937 223.49 7.4927 223.837 7.1137 224.011 5.9617 224.536 5.8847 225.461 5.7977 226.59 5.5447 229.907 5.9607 233.094 7.7017 235.926 9.6967 239.171 12.3727 241.607 16.6917 241.735 16.5027 243.549 16.3247 245.261 16.1507 246.947 14.0937 247.939 12.7057 249.327 12.0837 251.355 11.8847 252.003 11.7807 252.691 11.7147 253.369 11.5537 255.016 11.4417 256.668 11.2987 258.454 11.9617 258.339 12.5647 258.234 13.1707 258.129 15.9927 259.439 17.8257 261.384 17.8097 264.739 17.8067 265.409 18.4447 266.114 18.8677 266.749 19.4987 267.693 20.2047 268.588 20.8737 269.507 21.8007 270.781 21.8207 270.953 21.1747 272.611 22.4067 273.126 23.6437 273.642 25.0147 274.215 25.3547 272.951 25.6707 271.776 25.9937 270.574 26.8037 270.729 27.5927 270.881 28.1877 270.995 29.2397 271.839 30.1887 272.602 31.1447 273.369L31.1447 276.483C32.3427 275.88 33.1737 275.461 34.2367 274.927 35.6127 275.228 37.3377 275.605 39.2697 276.027 41.0177 274.029 43.5297 274.432 45.9777 274.5 46.6777 275.798 47.3167 276.979 48.0367 278.312 49.7687 277.778 50.3377 279.474 51.4657 280.205L51.5427 279.771C54.1577 280.017 56.7727 280.261 59.3857 280.515 59.6347 280.539 59.9407 280.558 60.1107 280.705 62.2717 282.576 64.7627 283.834 67.4557 284.728M250.8481 73.4606C251.4331 74.6656 252.0191 75.8716 252.6841 77.2406 249.4121 79.2926 250.1571 82.5396 250.1211 85.7416 248.4341 87.4276 246.6601 89.2026 245.2501 90.6116 244.8951 93.1076 244.6101 95.1196 244.2991 97.3066 247.2351 98.2526 249.3361 100.4186 251.4711 102.7366 253.4581 104.8936 256.0551 106.4886 258.2431 108.2206 258.5871 109.5206 259.0441 110.8216 259.2531 112.1606 259.4611 113.4866 258.7781 114.5786 257.8081 115.4476 257.4211 115.7946 256.9401 116.0366 256.4531 116.3576 257.1001 118.2836 257.7341 120.1716 258.3951 122.1416 259.7681 122.6776 261.1991 123.2356 262.5251 123.7536 262.2571 126.1456 262.0031 128.4066 261.7281 130.8666 264.7891 132.3166 263.3451 134.8196 263.1451 137.0986 262.9001 139.9036 262.3651 142.5736 260.0071 144.4246 261.6091 147.5506 263.3181 150.2506 266.3051 151.9796 265.8741 153.2736 265.5921 154.3896 265.1351 155.4296 264.3421 157.2326 264.6861 158.3866 266.4391 159.0976 268.2701 159.8396 270.1241 160.5236 272.0361 161.2596 272.5651 164.1046 272.9801 166.9346 274.2411 169.5966 274.7381 170.6446 274.4711 172.1466 274.2971 173.4056 273.3891 179.9726 271.7471 186.3526 269.1371 192.5736 267.5031 192.1066 265.8481 191.6326 263.9841 191.0986 264.1141 189.8956 264.2321 188.7996 264.3761 187.4686 263.6351 187.4046 262.8291 187.3356 261.8001 187.2476 262.0311 186.2896 262.2341 185.4476 262.4461 184.5646 261.3991 183.8666 260.3691 183.1796 259.2581 182.4386 257.5111 183.4466 255.7391 183.6216 253.8901 182.4126 253.4241 183.0436 253.0111 183.6026 252.6111 184.1446 253.7271 186.1196 257.1831 186.2026 256.6271 189.5466 253.0901 189.4836 250.2851 191.0466 247.7151 193.1976 247.2711 193.5696 246.6011 193.9606 246.0851 193.9026 244.3341 193.7036 242.9961 194.4806 241.6421 195.5436 241.6971 196.0326 241.7651 196.6436 241.8521 197.4206 238.8231 199.4646 235.0701 198.4086 231.4991 199.7426 231.0791 201.0746 230.5481 202.7556 229.9991 204.4946L227.7441 204.4946C227.4061 204.1286 227.0231 203.7156 226.6401 203.3026M119.7226 256.8525C120.2136 256.8195 120.7036 256.7865 121.5026 256.7325 121.6486 257.9875 121.8076 259.3495 122.0076 261.0585 123.7546 260.1325 125.2756 259.3255 127.0836 258.3675 127.7476 260.4955 128.4616 262.7835 129.1776 265.0755 128.4606 265.4635 127.8346 265.8015 127.3316 266.0735 128.1436 269.1735 128.9296 272.1715 129.7666 275.3675 130.5116 275.7955 131.4376 276.3265 132.3916 276.8745 132.0356 277.4695 131.6706 278.0815 131.3046 278.6925 131.1836 278.7895 131.0636 278.8865 130.9426 278.9835 133.4976 281.7575 136.0526 284.5305 138.7516 287.4595 138.4216 289.8265 138.0716 292.3355 137.6656 295.2395 138.2036 296.0015 138.9956 297.1235 139.8046 298.2685 139.1676 298.7925 138.5996 299.2605 137.9996 299.7555 137.6666 299.2985 137.3056 298.8045 136.7906 298.0975 136.4016 298.6565 136.0246 299.1975 135.6876 299.6815 134.7606 299.2165 134.0276 298.8485 133.1886 298.4275 132.9246 298.8725 132.6576 299.3235 132.3256 299.8835 134.4166 301.6185 134.0136 303.8905 133.2336 306.7435 131.1376 307.5545 128.6476 308.5435 126.1376 309.4755 124.9776 309.9055 123.5416 312.7515 124.1456 313.8765 126.3056 317.9045 126.7356 322.4395 127.8746 326.7515 128.2656 328.2345 127.4036 330.0195 127.2666 331.6785 127.1466 333.1355 127.1496 334.6185 127.2706 336.0755 127.3686 337.2495 127.7226 338.4025 128.0136 339.8105 127.4396 340.4245 126.7546 341.1585 125.7756 342.2075 126.5296 342.6575 127.2206 343.0695 127.9116 343.4825 127.7806 343.5815 127.6486 343.6815 127.5166 343.7815L127.5166 345.8195C124.7496 347.4495 122.0386 348.8905 118.6506 347.0085 117.5286 348.2605 116.4606 349.4515 115.3776 350.6595 114.6396 350.4805 113.9766 350.3195 113.0236 350.0875 112.2526 350.9235 111.4026 351.8455 110.5536 352.7665"/>
    <path stroke="#FE9933" stroke-linecap="round" stroke-linejoin="round" stroke-width="2" d="M95.5151 28.7129C92.4011 29.8869 90.1411 33.2839 92.0311 37.3319 92.9631 37.1309 93.8881 36.9319 94.9451 36.7039 95.4781 37.4379 96.1181 38.3179 96.7761 39.2249 96.3761 40.2939 95.9541 41.4179 95.5871 42.3989 94.2631 42.1209 93.1701 41.8909 91.8691 41.6179 92.6661 44.4439 93.3511 46.9429 95.1711 48.2039 98.1821 48.5089 100.6351 48.7569 103.0871 49.0049 103.1001 49.2409 103.1131 49.4769 103.1261 49.7129 102.6671 49.8649 102.2021 50.1659 101.7511 50.1459 98.7461 50.0089 95.8541 50.6279 92.9361 51.2159 92.0911 51.3859 91.0431 51.0589 90.2131 50.6839 88.9491 50.1129 87.7931 49.3029 86.7151 48.6669 85.0231 48.9549 83.9631 49.6129 83.5681 51.2639 82.9331 53.9159 81.8191 56.4919 81.5081 59.1689 81.3181 60.8089 82.2581 62.5769 82.6711 64.2929 82.7701 64.7029 82.7901 65.1319 82.8871 65.8499 80.9511 64.9059 79.0701 64.6119 78.0221 62.6789 77.6511 61.9929 76.4711 61.7439 75.4121 61.1599 74.9681 62.7589 74.6141 64.0299 74.2421 65.3679 75.2221 65.5519 75.8461 65.6699 76.4231 65.7779 76.7221 68.2699 76.0861 69.5409 73.5571 71.7669 72.3181 70.9639 71.0941 70.1719 69.7731 69.3159 69.6441 68.7599 69.4881 68.0829 69.3191 67.3549 69.7691 67.1429 70.2751 66.9309 70.7551 66.6709 71.9651 66.0119 72.3641 64.7149 71.4681 63.7629 69.7751 61.9649 68.6721 59.9109 68.1681 57.5009 63.9051 56.6049 59.7261 57.2979 55.5251 58.1919 54.1221 58.4909 52.5931 58.3329 51.1371 58.2089 49.9631 58.1099 48.8121 57.7459 47.5151 57.4709 45.5831 58.8419 43.5781 60.2649 41.5151 61.7289 41.8511 62.7789 42.1821 63.8109 42.5801 65.0499 41.7941 65.1409 41.0491 65.2279 40.0301 65.3459 39.6881 67.4339 39.3461 69.5279 38.9931 71.6849 39.3411 72.2709 39.7051 72.8839 40.0961 73.5429 42.0171 73.8749 43.9191 74.2039 45.9641 74.5579 45.7781 75.0229 45.6241 75.4379 45.4471 75.8439 44.2741 78.5379 44.0181 81.3819 43.9661 84.2809 43.9251 86.5439 43.8221 88.8139 43.5711 91.0609 43.4781 91.8869 42.9201 92.6769 42.5061 93.4459 41.7411 94.8679 40.8351 96.2209 40.1661 97.6839 39.7871 98.5119 39.6831 99.4949 39.5961 100.4209 39.3781 102.7409 39.2401 105.0679 39.0571 107.5599 36.1471 107.2519 33.2791 106.9479 30.2791 106.6309 29.5881 108.5779 27.9781 110.1759 28.1851 112.5249 28.3001 113.8219 28.5151 114.7559 30.0331 115.1339 31.7301 115.5569 33.3441 116.3149 35.0971 116.9649 35.4471 116.7859 35.8601 116.5739 36.2471 116.3739 36.3401 116.3739 36.4081 116.3569 36.4621 116.3769 37.3111 116.6989 38.6001 119.4789 38.2901 120.4069 37.6731 122.2549 37.1481 124.1119 37.3801 126.0939M187.9448 96.5679C188.1278 97.3019 188.4418 98.0299 188.4698 98.7699 188.5438 100.7229 188.4948 102.6809 188.4948 104.6369 188.3268 104.6589 188.1588 104.6809 187.9908 104.7019 188.4028 105.5369 188.8148 106.3709 189.2918 107.3389 188.7618 107.7909 188.2028 108.2699 187.3658 108.9849 187.2868 109.5119 187.3138 110.4409 186.9868 111.2219 186.6018 112.1419 186.4108 112.7529 187.3718 113.4709 188.3758 114.2199 188.9328 113.6209 189.5158 112.9559 190.7238 113.8439 191.3058 114.5759 190.7698 116.2149 189.8198 119.1209 189.3278 122.1759 188.6608 125.0929 189.2578 125.8889 189.8078 126.6219 190.4358 127.4589 189.8888 128.4439 189.3318 129.4469 188.6878 130.6069 191.0568 133.4139 193.4088 136.2009 195.7578 138.9849 196.2748 138.7149 196.7118 138.4869 197.2508 138.2049 198.3688 139.0729 199.5758 140.0099 200.7818 140.9479 201.4548 140.2759 202.1268 139.6039 202.7038 139.0269 206.7988 140.2359 210.0068 143.3879 214.4448 143.8949L214.4448 145.6169C217.6818 146.7019 217.9668 149.8809 219.3038 152.1369 217.9008 153.5409 216.5848 154.8549 215.1868 156.2539 214.9038 156.1729 214.3478 156.0149 213.6158 155.8059 213.2948 156.0199 212.8438 156.3209 212.3418 156.6549 211.3258 156.1099 210.3608 155.5929 209.2888 155.0179 208.4558 155.6379 207.5718 156.2959 206.6148 157.0089 205.1258 155.8299 204.1448 156.8219 203.2448 158.0039L197.0058 158.0039C196.9508 158.6729 196.9108 159.1699 196.8848 159.4859 194.5268 160.8769 191.4158 159.6789 189.7308 162.5619 188.0378 165.4589 188.6798 168.1919 189.7048 171.4389 189.2068 171.7359 188.5158 172.1479 188.1738 172.3529 188.8338 175.6539 189.3478 178.4859 189.9778 181.2919 190.4578 183.4249 191.4578 183.8249 193.6338 182.9569 193.8448 182.8729 194.1188 182.9459 194.5828 182.6889 196.3438 184.2409 198.0688 185.8379 199.8828 187.3249 200.5888 187.9029 201.4958 188.2359 202.6588 188.8699 203.0208 189.3789 203.6608 190.2769 204.5258 191.4939 203.6308 191.8529 202.8528 192.4199 202.0648 192.4329 200.0338 192.4649 198.5298 193.1629 197.9238 194.6499 195.9348 195.5529 194.3178 196.2879 192.6708 197.0359 192.4988 197.9749 192.3308 198.8959 192.1348 199.9649 192.8568 200.8839 193.6428 201.8839 194.4698 202.9369 194.1868 203.6349 193.9178 204.2969 193.6938 204.8469 192.6398 205.1579 191.6728 205.4419 190.5558 205.7709 190.3318 206.2719 190.0528 206.8949 189.7158 207.6489 187.5888 208.3409 185.3638 209.0659 183.1008 209.8019 182.8108 211.5449 182.5358 213.1999 182.2318 215.0289 183.1768 216.2449 184.1978 217.5579 185.3618 219.0549 187.1978 219.3089 189.2188 219.5869 191.3378 219.8799L191.3378 221.5959C194.0428 221.8829 193.6058 223.8999 193.6288 225.6429 194.1298 226.1549 194.6128 226.6489 195.0968 227.1429M65.6221 202.3851C66.6431 203.9861 67.6631 205.5881 68.8221 207.4061 68.1991 208.1231 67.4861 208.9421 66.7501 209.7891 66.1461 209.5331 65.5911 209.2981 65.1301 209.1021 64.4861 209.7461 63.8141 210.4191 63.2271 211.0051 63.1341 212.4821 63.0411 213.9511 62.9071 216.0811 63.9521 217.6571 65.3781 219.8061 66.7861 221.9281 65.5471 222.5961 64.3131 223.1111 63.2691 223.8841 62.6711 224.3261 62.2361 225.1361 61.9801 225.8681 60.9381 228.8431 58.6051 230.5461 55.9311 232.1111 56.7301 233.3721 57.4941 234.5751 58.2961 235.8401 61.0531 234.9561 63.7931 234.0661 66.5401 233.1981 68.1821 232.6801 70.5781 233.7781 71.7051 235.1881 73.0691 236.8951 73.2871 238.9271 73.6611 240.9031 74.0911 243.1741 74.7561 245.2551 76.9041 246.9791 76.0031 247.9631 74.9491 248.8211 74.2991 249.9181 73.8221 250.7221 73.5551 251.9121 73.7551 252.8031 74.2241 254.8871 75.0301 256.8951 75.5591 258.5031 75.6881 260.3571 75.7681 261.8161 75.9041 263.2701 75.9511 263.7661 76.2401 264.2491 76.2411 264.7381 76.2441 266.6041 76.4881 268.4201 75.0211 270.0971 72.7861 272.6531 72.6981 276.1031 71.8641 279.2281 71.5581 280.3741 71.3251 281.5391 71.0221 282.8521 69.0171 283.8511 67.0241 285.1221 65.8011 287.2931 65.6521 287.5571 65.3071 287.7681 65.2751 288.0311 64.6591 293.0121 60.0481 294.6531 57.1711 297.7351 56.6171 298.3291 55.8751 298.7481 55.3521 299.1471L55.3521 304.6871C54.7861 304.9951 54.2331 305.2961 53.5111 305.6881 53.2761 307.4511 53.1011 309.3071 52.7611 311.1321 52.5141 312.4591 52.3951 313.8881 51.1461 314.8201 50.8821 315.0171 50.7181 315.3971 50.5921 315.7241 49.2951 319.0821 48.0121 322.4441 46.7381 325.8101 46.5601 326.2801 46.4561 326.7781 46.3121 327.2861 46.8891 328.1491 47.4551 328.9951 47.8671 329.6121 46.9011 332.4271 45.9621 335.0681 45.1011 337.7341 44.8571 338.4901 44.8241 339.3161 44.7181 340.1131 44.5311 341.5241 44.3621 342.9371 44.1261 344.8201 44.4901 345.2681 45.1531 346.0821 45.9011 347.0021 44.9981 347.6331 45.9221 349.1811 44.5321 349.6491M128.709 28.7129C129.339 25.1359 131.218 23.3039 134.21 23.4089 134.764 23.4289 135.346 23.5579 135.855 23.7769 137.159 24.3409 138.376 25.1839 139.726 25.5449 141.467 26.0119 142.681 26.8979 143.2 28.3329 146.781 29.4669 148.636 26.8819 150.821 25.2119 152.007 25.5059 153.115 25.7819 154.384 26.0969L154.384 34.0389C152.766 35.6539 151.053 37.3639 149.234 39.1799 147.81 38.9019 146.543 39.3129 145.964 41.3059 146.028 42.4679 146.68 43.3809 148.131 43.9759 150.49 44.9439 150.627 47.6029 148.514 49.0669 147.79 49.5689 147.048 50.0479 146.223 50.5979L146.223 56.0319C147.965 57.1989 149.643 58.3229 151.358 59.4709L151.358 64.9429C150.412 65.0619 149.363 65.1939 148.083 65.3549 147.711 68.4029 145.13 69.3139 142.647 70.4059L142.647 73.6439M105.4184 157.8209C106.5884 157.4179 107.7584 157.0139 109.0854 156.5559 111.2104 157.6149 114.1924 157.8299 114.7814 161.4959 114.1094 162.0469 113.2324 162.7649 112.3784 163.4639 112.7424 165.3549 113.0574 166.9919 113.3834 168.6849 112.3944 169.2039 111.4494 169.7009 110.3254 170.2919 112.3354 171.6499 114.1904 172.9029 116.1724 174.2419 116.6394 173.5389 117.1014 172.8459 117.6084 172.0819 117.2304 171.4689 116.8554 170.8619 116.4654 170.2299 117.0884 169.8549 117.7724 169.4439 118.4764 169.0209 119.1114 169.2519 119.7964 169.7269 120.4534 169.6909 121.6574 169.6269 122.0464 170.3219 122.2794 171.2109 123.3314 175.2169 125.9234 177.6869 129.8044 178.9259 130.0244 178.9959 130.1764 179.2779 130.4674 179.5689 129.8984 180.4329 129.3124 181.3229 128.6474 182.3319 129.1964 183.7039 129.7794 185.1579 130.4064 186.7219 129.1454 188.2899 127.3404 187.5029 125.6714 187.7589 124.2904 190.0569 124.2914 192.6169 124.7814 195.1119 121.8134 198.4839 121.5114 199.2239 120.6424 205.1179 120.7674 205.1869 120.8844 205.3049 121.0064 205.3099 121.4954 205.3319 121.9844 205.3199 122.3444 205.3199 122.8994 204.6559 123.4024 204.0559 123.7404 203.6519 124.5434 204.4539 125.3424 205.2539 126.1414 206.0529 126.2764 205.9499 126.4114 205.8459 126.5464 205.7429 126.0444 206.0909 125.5424 206.4389 125.0414 206.7869 126.3804 212.1289 125.0984 214.6029 119.7334 216.7589 119.1324 216.4669 118.4184 216.1199 117.7054 215.7729 116.6054 216.7739 116.6054 216.7739 116.6054 221.1889 115.0724 221.9249 113.2494 222.4969 113.3084 224.9359 111.9684 225.0239 110.6214 225.1109 109.1774 225.2049L109.1774 230.3759C108.4514 230.8159 107.6084 231.3259 106.5384 231.9739 104.7974 229.3969 102.1724 228.8679 99.1844 228.9949 98.9704 229.5159 98.6604 230.2739 98.3694 230.9869 97.4204 230.6579 96.5624 230.3609 95.8454 230.1129 94.7504 231.2079 93.7114 232.2469 92.4924 233.4659 93.3124 234.1729 94.2334 234.9679 95.0814 235.6989 94.7704 237.6639 94.3624 239.3669 94.2904 241.0829 94.2544 241.9249 94.5944 243.0759 95.1914 243.5989 97.8024 245.8899 97.6174 248.7279 96.7284 251.5119 96.1124 253.4379 96.9684 255.0779 96.9924 256.8519 97.0014 257.4599 97.1274 258.0659 97.2174 258.8149 95.3384 258.9249 93.6864 259.0209 91.8474 259.1279 91.7624 261.2589 90.2604 262.6409 88.6374 264.0359 88.0164 263.6419 87.3424 263.2149 86.7404 262.8339 87.6154 261.5309 88.4474 260.2919 89.2794 259.0529"/>
    <path stroke="#FE9933" stroke-linecap="round" stroke-linejoin="round" stroke-width="2" d="M226.6401 202.5685C226.0791 203.8755 225.5181 205.1825 224.9801 206.4335 224.0891 206.1275 223.3581 205.8755 222.4551 205.5645 222.0641 206.9355 221.6931 208.2365 221.2981 209.6255 219.7361 209.7845 218.1331 209.9475 216.3781 210.1255 216.3581 212.3725 215.7111 214.1685 213.3511 214.8815 212.2641 214.2675 211.1201 213.6225 209.7761 212.8645 208.7581 213.7735 207.7191 214.7015 206.7231 215.5895 205.9781 215.5895 205.2881 215.4925 204.6371 215.6075 202.7821 215.9355 200.4661 215.2345 199.7851 218.1385 199.5571 219.1125 198.4031 219.8735 197.6631 220.7235 196.2371 222.3625 195.3171 224.2275 195.0971 226.4095M152 137.0975C150.105 137.3425 148.203 137.8235 146.316 137.7675 144.224 137.7065 142.911 138.8115 141.526 139.9995 143.121 142.5645 143.121 146.1945 141.624 147.4845 141.51 151.3265 143.775 154.3075 144.998 157.5275 147.519 158.1135 149.99 158.6885 152.46 159.2635 152.368 159.3975 152.276 159.5315 152.183 159.6655 152.183 160.5185 152.037 161.4015 152.212 162.2165 152.641 164.2005 153.218 166.1535 153.717 168.0505 156.709 168.6295 159.582 169.1825 162.453 169.7425 165.176 170.2725 166.679 171.8945 166.742 174.9955 165.836 175.7105 164.711 176.5975 163.248 177.7515 164.173 178.1795 165.024 178.4565 165.733 178.9415 166.211 179.2685 166.592 179.8445 166.827 180.3895 167.1 181.0225 167.164 181.7435 167.369 182.6465 169.72 182.7875 172.053 182.9275 174.418 183.0685 175.197 184.4345 175.96 185.7745 176.767 187.1895 178.742 186.1885 180.239 186.6585 181.734 187.8665 182.96 188.8575 184.417 189.2595 186.11 189.2635 187.603 189.2665 189.094 189.9765 190.819 190.4365 191.383 189.4755 192.122 188.2175 192.938 186.8285 192.584 186.3875 192.171 185.8735 191.712 185.3005 191.989 184.7525 192.259 184.2155 192.529 183.6795M92.2139 168.641C90.1359 169.13 88.0479 169.584 85.9849 170.129 85.3379 170.3 84.6279 170.592 84.1719 171.052 83.2269 172.002 82.4319 173.103 81.5769 174.142 82.6299 176.439 84.3599 175.479 85.9639 175.009 87.1699 179.022 86.3769 181.668 83.8419 182.914 82.7439 182.728 81.7039 182.552 80.7349 182.389 79.9629 185.365 79.1949 188.326 78.4029 191.382L76.5989 191.382C75.6729 192.502 74.8999 193.437 74.0169 194.506 73.4279 193.983 72.9089 193.521 72.4119 193.079 71.1409 194.333 69.6229 195.462 68.6589 196.95 68.2279 197.615 68.9079 199.001 69.1109 200.228 68.6929 200.806 68.1049 201.617 67.5459 202.39 66.7229 202.256 65.9879 202.137 64.9289 201.965 64.3369 199.906 63.7049 197.711 62.9199 194.981 62.2239 194.631 60.9539 193.993 59.7139 193.369 60.0229 192.552 60.2769 191.882 60.5279 191.218 58.4829 190.249 57.8859 190.357 56.4529 191.933 56.6809 192.733 56.9099 193.531 57.1629 194.419 56.2109 194.673 55.2059 194.94 54.1279 195.227 54.3559 195.912 54.5149 196.388 54.7319 197.041 52.2129 197.856 49.7669 198.721 47.2759 199.424 45.9349 199.802 45.1089 200.518 44.7029 201.831 44.4689 202.587 44.1109 203.305 43.7689 204.138 41.5559 204.48 39.2099 203.831 36.9949 204.916 34.8809 205.951 32.6179 206.68 30.2279 207.62L30.2279 210.834C29.5239 211.132 28.9699 211.367 28.1209 211.727 27.7369 211.235 27.3039 210.679 26.8159 210.054 26.3169 210.909 25.9309 211.571 25.6189 212.106 25.9469 213.558 26.2349 214.832 26.6139 216.506L17.5909 216.506 17.5739 216.873 15.0059 214.856M250.2978 73.2771C248.7148 74.1691 246.7438 74.2661 245.6008 76.1431 245.2248 76.7581 243.5298 76.5691 242.4888 76.7401 241.3228 74.1281 240.2308 71.6791 239.2458 69.4721 237.7808 68.3611 236.7318 69.1161 235.6128 69.7701 235.0778 70.0831 234.4078 70.3021 233.7918 70.3181 231.4098 70.3801 229.0248 70.3431 226.2908 70.3431 226.0518 71.4531 225.6548 72.6301 225.5748 73.8291 225.4658 75.4421 224.1418 75.7161 223.1638 76.3721 222.8918 77.2031 222.6278 78.0121 222.3988 78.7121 220.7068 79.0881 221.2448 77.7861 221.1258 77.0371L218.8108 77.0371C218.4308 77.6681 217.9778 78.4231 217.4698 79.2661 216.6468 78.9901 215.8578 78.7271 215.1808 78.5011 213.6208 80.0611 212.0618 81.6211 210.4388 83.2441 209.9458 82.3891 209.5898 81.7711 209.1198 80.9541 207.3788 81.0561 205.5478 81.1631 203.4948 81.2831 202.8218 80.7231 202.0618 79.8881 201.1248 79.3731 200.3898 78.9691 199.4068 78.7181 198.5868 78.8201 194.6628 79.3081 191.8108 76.7201 188.4948 75.4781 186.9358 72.1501 184.5278 74.4211 182.3748 74.3771 182.1128 78.2291 178.7058 77.6161 176.2798 79.1961 176.4018 77.7251 176.4878 76.6931 176.5738 75.6611M190.6953 27.9792C190.4513 28.1622 190.2263 28.3852 189.9593 28.5232 187.0773 30.0122 184.7723 32.1042 183.2643 35.1152 179.9793 35.0642 176.9553 36.9822 173.2523 35.7762 172.4233 36.4372 171.4013 37.2532 170.3793 38.0692L170.8063 38.3612C170.3413 39.5682 169.8753 40.7762 169.3643 42.1002L167.4623 42.1002C166.7423 44.0602 167.2883 46.2952 165.3393 47.6352 163.6863 47.2862 162.1783 45.6152 160.2323 47.0042 159.9633 46.3992 159.6963 45.9152 159.5273 45.3992 158.9183 43.5502 158.1083 43.3372 156.2183 43.3122 153.7083 43.2782 152.0213 44.8702 149.9823 45.7682M182.0762 215.2225C181.4102 215.7205 180.7442 216.2185 179.9662 216.8005 179.3962 216.3225 178.8242 215.8425 178.2312 215.3465 176.7282 216.0145 175.2542 216.6705 173.6162 217.3985 172.7312 216.6435 171.5992 216.2415 170.3132 217.2335 168.4602 215.1995 165.9272 213.7905 166.0802 210.4965 164.7032 211.4915 163.4832 212.3735 162.0482 213.4115 162.0182 216.2005 164.6202 219.3795 162.0532 222.5665 160.9792 222.2745 159.8772 221.9745 158.6532 221.6425 158.7022 220.6685 158.7522 219.6925 158.8142 218.4785 157.6702 218.6075 156.7562 218.7105 155.7492 218.8235 151.6932 216.1705 149.4272 216.3885 146.1182 220.0235 146.4762 220.4255 146.8202 221.1765 147.2372 221.2195 149.3652 221.4405 149.3922 223.1255 150.1232 224.7515 148.8612 224.4975 147.9442 224.3135 146.9242 224.1075 146.6592 224.6255 146.3362 225.2585 145.9522 226.0115 144.7382 225.5615 143.5772 225.1315 142.5982 224.7675 142.1572 222.5875 141.7572 220.6105 141.3772 218.7375 138.1692 218.3535 136.2702 216.6635 134.9752 214.2885 134.3252 213.0965 133.4962 212.2395 132.1912 212.1385 130.5942 212.0145 130.7502 210.2265 129.7312 209.7015 128.3422 209.9655 127.0582 210.2095 125.7752 210.4545M92.7641 85.0143C90.1481 83.2413 83.9731 81.0433 81.9441 81.1633 81.8641 82.6213 81.8641 82.6213 84.8491 83.7203 85.2311 84.7143 85.5671 85.7063 85.9891 86.6603 86.4311 87.6593 86.9561 88.6213 87.5491 89.8053 89.5611 90.0163 91.6951 90.2403 93.7941 90.4603 94.4831 89.2713 95.0191 88.3463 95.3901 87.7053 94.9821 86.2593 94.6461 85.0713 94.2281 83.5923 93.6991 84.1803 93.3231 84.5973 92.9481 85.0143M119.7226 21.5605C121.3736 20.5825 123.6196 19.9715 124.5096 18.5245 125.4296 17.0295 125.0306 14.7235 125.2066 12.7925 124.5116 12.3575 123.9516 12.0065 123.3086 11.6045 123.6416 11.0725 123.9746 10.5385 124.3336 9.9645 123.5846 8.5605 122.8256 7.1365 121.8576 5.3235 121.1886 6.3335 120.7106 7.0565 120.3426 7.6125 117.7336 6.1205 115.0946 4.6115 112.7546 3.2735 110.0786 3.7895 107.7516 4.2545 105.4146 4.6715 105.0706 4.7325 104.5096 4.6995 104.3446 4.4845 102.6186 2.2185 99.7646 2.4945 97.5196 1.4135 96.6806 1.0085 95.6026 1.0675 94.8036.6145 93.5696-.0855 92.4506-.1545 91.0996.2405 90.0176.5565 88.8136.4575 87.4086.5615 86.1536 3.7685 87.1896 6.9655 89.1446 9.7905 91.6186 13.3645 94.4426 16.6955 97.3596 20.4465 94.1716 22.7145 90.6706 24.0815 86.8336 24.1725 85.2496 25.9825 85.1906 27.8415 86.0516 29.9625 86.4816 30.2025 87.0316 30.5095 87.5786 30.8155 89.5586 29.8885 91.4636 28.9285 93.6806 29.4465M264.4189 156.7206C263.9799 157.0726 263.5399 157.4246 263.3859 157.5476 259.3559 157.0146 256.4439 159.3356 252.8419 160.5406 251.8149 160.2446 250.4189 159.8426 248.8109 159.3796 247.5359 160.4786 246.1899 161.6396 245.0889 162.5886 244.8869 164.8596 244.7169 166.7556 244.5289 168.8586 243.5299 168.3656 242.6949 167.9546 241.8939 167.5586 239.9099 168.0466 237.9709 168.8136 235.9889 168.9456 232.3939 169.1856 228.9579 168.5396 226.5779 165.4106 224.7869 166.1476 223.1379 166.8256 221.4029 167.5396 220.8989 167.4046 220.2989 167.2436 219.6299 167.0646 219.6199 167.0466 219.4719 166.9016 219.4999 166.8106 220.8289 162.3986 217.7859 159.6366 215.6369 156.5376M85.4287 344.1472C85.2117 344.7082 84.9937 345.2682 84.7887 345.7982 83.9037 345.4822 83.1017 345.1962 82.0817 344.8312 82.2547 343.9952 82.4287 343.1532 82.6267 342.1922 82.0317 341.7292 81.3697 341.1612 80.6557 340.6702 79.1127 339.6092 77.4707 339.5852 76.0997 340.8722 74.4177 342.4502 72.1747 343.8022 72.6907 346.9542 74.3607 346.5802 75.9517 347.6572 77.5817 346.5912 77.8937 346.3872 78.7117 346.9562 79.4667 347.2312 78.9427 348.2982 78.5557 349.0822 78.1567 349.8962 77.5897 349.3292 77.0537 348.7932 76.3317 348.0712 75.2477 349.0402 74.4417 349.7612 73.2347 350.8412L69.5977 350.8412C67.9957 348.3552 66.1857 348.6702 64.3397 350.0172 62.6267 351.2672 60.5467 350.8652 58.6497 351.2852 58.0587 351.4162 57.4297 351.3782 56.5767 351.4332 56.3757 350.9252 56.1237 350.2922 55.7197 349.2732 52.9677 350.5902 50.0237 351.4912 46.9157 351.6662M128.8926 365.6041C129.7956 364.0781 130.6986 362.5521 131.6016 361.0261 131.4916 360.8331 131.3796 360.6401 131.2686 360.4471 129.7376 360.5151 128.2056 360.5841 126.4926 360.6601 126.7866 359.9491 127.0506 359.3111 127.4526 358.3401 125.6876 356.4761 123.8736 354.5601 122.1756 352.7661L118.5126 352.7661C118.1646 351.9571 117.8336 351.1861 117.5026 350.4151 117.3296 350.4301 117.1576 350.4451 116.9846 350.4601 116.4746 351.3411 115.9656 352.2221 115.4906 353.0421L109.3656 353.0421C106.7136 351.4031 103.9566 349.7011 101.2006 347.9971 101.0136 347.8821 100.8176 347.6291 100.6526 347.6501 97.9756 347.9911 95.6606 346.5211 93.1266 346.1941 92.5416 346.1181 91.8546 346.2971 91.3096 346.5581 90.5526 346.9201 89.8846 347.4691 89.1866 347.9331 88.5186 347.4891 87.9686 347.1231 87.2286 346.6321 87.8536 344.9541 86.4346 344.3101 85.4286 343.4141M88.9131 258.8699C87.9961 258.5639 87.0861 258.2339 86.1611 257.9579 83.7881 257.2509 83.6151 257.0319 83.5951 254.4689 83.5931 254.2239 83.5951 253.9799 83.5941 253.7349L80.7551 253.7349C80.6061 255.2979 82.1451 257.1629 79.4321 258.0109 77.9941 256.8149 77.1441 254.2279 74.4251 254.6519M118.6225 257.5862C119.2335 256.5772 119.8455 255.5682 120.4675 254.5402 119.5895 252.6452 118.7725 250.8832 117.9285 249.0602 117.2125 249.4452 116.5615 249.7952 115.9115 250.1462 115.8905 250.0592 115.8695 249.9732 115.8485 249.8872 114.9355 249.9782 114.0235 250.0682 113.0225 250.1682 112.9785 249.2682 112.9295 248.2832 112.8645 246.9922 111.0475 247.9052 109.6675 247.4552 108.3025 246.2732 107.8185 245.8532 106.7555 245.9992 105.9705 246.0572 105.0425 246.1262 104.1295 246.3802 103.1255 246.5692L103.1255 248.7462C104.1195 249.2402 105.2455 249.8002 106.2875 250.3182 106.0805 251.1072 105.9015 251.7952 105.7065 252.5432L102.5725 252.5432C102.1055 253.7042 101.6565 254.8202 101.2075 255.9352L97.1655 255.9352M230.8584 121.1425C232.3884 119.7465 233.2194 117.9505 233.9834 116.1395 232.5474 115.3765 231.3154 114.7225 230.1024 114.0785 230.2474 113.5015 230.3694 113.0125 230.5154 112.4285 226.7944 111.7715 227.0244 107.7285 224.7774 105.3685 223.8284 106.4685 223.0334 107.3905 222.2804 108.2625 220.8944 107.5105 219.7404 106.8845 218.4274 106.1725 218.1824 107.1045 217.9564 107.9655 217.6864 108.9965 217.3544 109.2295 216.8544 109.5805 216.4994 109.8305 216.1674 111.9395 215.8574 113.9035 215.5484 115.8675 215.4404 115.8565 215.3324 115.8465 215.2244 115.8355 215.5344 116.9965 215.8434 118.1575 216.2174 119.5565 218.4004 117.4945 220.2754 118.3895 221.7304 119.9085 222.6994 119.7825 223.3684 119.6965 224.1024 119.6005 224.2734 119.2025 224.5424 118.5755 224.8124 117.9485 224.9774 117.8665 225.1424 117.7845 225.3074 117.7035 225.5844 118.2845 225.8624 118.8655 226.1394 119.4475 226.2804 119.2295 226.4214 119.0115 226.5624 118.7935 227.6954 119.1275 228.8274 119.4605 230.1724 119.8565 230.3884 120.6075 230.6234 121.4255 230.8584 122.2425M171.0727 89.599C168.7167 88.228 166.2907 87.788 163.7397 89.058 161.7227 87.153 159.7087 85.25 157.5677 83.226 156.9367 84.038 156.4857 84.618 155.9697 85.28 154.0937 83.599 152.2027 81.943 150.3557 80.24 148.9767 78.969 147.9077 77.262 145.8177 77.304 144.9177 74.327 144.3697 74.06 141.3637 73.98 137.6527 73.881 134.4887 72.497 132.1827 69.434 131.5627 68.609 130.8177 67.88 129.7317 67.211 129.8327 65.071 129.9337 62.931 130.0337 60.792 130.1867 60.753 130.3397 60.715 130.4927 60.676 130.0767 60.419 129.6607 60.162 129.5257 60.079 129.6677 59.057 129.7597 58.388 129.8887 57.456 128.7557 57.579 127.9047 57.672 127.0217 57.769 126.3327 59.271 125.4437 60.362 123.7747 60.865 122.3357 61.298 121.0467 62.234 119.5537 63.02 119.3357 62.695 119.0717 62.301 118.8027 61.901 116.4487 61.919 117.8907 64.166 116.9717 65.025 117.9367 67.086 117.6047 70.029 120.9987 70.41 122.0257 70.526 122.9627 71.443 123.9817 72.015 124.7427 71.516 125.5227 71.004 126.4687 70.383 127.4717 71.186 128.4927 72.004 129.5497 72.85 130.7827 72.408 132.1297 71.926 133.4767 71.443M41.5976 274.4583C40.9616 273.1863 40.3266 271.9143 39.6636 270.5893 40.6226 268.9243 41.5656 267.2873 42.5946 265.5013 41.0336 264.1583 38.6336 263.3763 38.8206 260.5823 38.6886 260.5463 38.5576 260.5103 38.4256 260.4743 39.1956 259.8933 39.9656 259.3133 40.6876 258.7683 40.0486 257.2373 39.5316 256.0013 39.0056 254.7413 38.2886 254.9283 37.7436 255.0713 37.4896 255.1373 34.7696 253.8143 32.2626 252.5943 29.7456 251.3703 24.1706 254.4733 18.4656 256.5013 12.0716 255.3853M208.668 21.3772C207.228 22.6822 205.787 23.9872 204.541 25.1162 203.004 24.6122 201.461 24.1072 199.891 23.5922 196.687 25.6152 193.119 27.0512 192.184 31.3162 192.022 31.2742 191.86 31.2322 191.698 31.1892 191.409 30.1862 191.12 29.1832 190.884 28.3662M102.8506 50.3531C103.5846 50.9641 104.3256 51.5671 105.0496 52.1891 106.2016 53.1761 106.9526 54.3691 107.5036 55.8291 107.9666 57.0551 109.0226 58.0571 109.8206 59.1551 110.4886 60.0751 111.2156 60.9571 111.8266 61.9141 113.0416 63.8191 115.0826 64.3841 116.9716 65.2081M145.0307 157.8209C143.4497 158.9029 141.8677 159.9839 140.1587 161.1539 139.0517 160.7809 137.6407 160.3069 135.9617 159.7429 135.3947 160.7829 134.8247 161.8819 134.2057 162.9529 132.9087 165.1969 132.3077 165.4119 129.7187 164.5769 129.1937 165.3569 128.6547 166.1589 128.0047 167.1259 126.7617 167.3479 125.3467 167.5999 124.1557 167.8129 123.3147 168.7459 122.6187 169.5189 121.9237 170.2919M129.8096 24.4949C129.6256 23.5779 129.5536 22.6179 129.2176 21.7599 129.0156 21.2439 128.4036 20.8879 128.2316 20.7169 125.7956 20.9509 123.5846 21.1639 121.3736 21.3769M138.062 352.3999C137.409 354.5619 138.439 356.4699 138.877 358.6689 137.664 360.1869 136.352 361.9279 134.93 363.5739 133.697 365.0029 132.296 366.2469 130.178 365.9579 129.981 365.9309 129.81 365.7259 129.626 365.6039M176.0239 76.7616C174.9239 77.6786 173.8369 78.6126 172.7159 79.5036 172.3349 79.8066 171.8479 80.2396 171.4419 80.2056 169.3999 80.0396 168.2789 81.4176 166.7889 82.8706 169.1289 84.9016 171.4419 86.9076 174.0039 89.1306 172.9239 89.3276 172.1819 89.4636 171.4399 89.5986M103.2173 49.4362C104.2573 50.2312 105.3133 51.0042 106.3283 51.8282 106.9193 52.3082 107.4353 52.8722 106.7023 53.6542M48.3833 348.7321C47.4053 348.7931 46.4273 348.8541 45.4493 348.9151M49.3003 348.3652C48.0043 348.9152 48.0993 350.4202 47.2823 351.2992M208.668 22.1107C208.86 22.5957 209.052 23.0797 209.256 23.5967 209.78 23.8597 210.343 24.1417 210.621 24.2807 210.786 25.5547 210.859 26.5957 211.067 27.6097 211.33 28.8867 212.189 29.6137 213.433 30.0077 216.861 31.0937 219.593 33.0417 221.149 36.4107 221.388 36.9257 221.77 37.3747 222.085 37.8537 222.278 37.7797 222.471 37.7057 222.664 37.6317 222.973 36.9917 223.283 36.3507 223.673 35.5427 225.227 34.9847 226.959 34.3637 228.613 33.7707 229.171 34.1237 229.746 34.4877 230.625 35.0457 231.039 36.1867 232.182 37.7047 231.225 39.5327L230.541 39.9387C231.936 41.7227 233.231 43.3787 234.526 45.0347L235.26 44.6677C234.587 45.4017 233.915 46.1347 233.243 46.8687L233.793 49.4357C234.319 51.5397 236.431 51.4917 237.849 52.3347 239.935 53.5747 242.232 53.8857 244.618 53.1217 245.007 52.9967 245.47 53.1037 245.859 53.1037 246.843 56.7097 247.633 60.1127 247.664 63.7397 247.681 65.7017 248.902 67.6497 249.561 69.6107 249.948 70.7647 250.298 71.9327 250.665 73.0937M187.5776 97.3015C187.0276 97.6685 186.4776 98.0355 185.7936 98.4905 185.2156 97.8155 184.6226 97.1245 184.0096 96.4095 180.7726 97.3675 178.1056 96.1755 175.3256 92.3275 174.6606 92.3925 173.8666 92.4695 172.8776 92.5655 172.4116 91.7135 171.8336 90.6565 171.2556 89.5985"/>
    <path stroke="#FE9933" stroke-width="2" d="M151.5,137.5 L152.634827,136.420419 C155.514629,130.246466 161.481142,116.647128 152.667843,110.90032 C150.75341,109.651993 148.885663,116.040266 146.996709,114.75371 C136.762832,107.783468 151.536106,105.644084 152.206568,104.937706 C152.817868,104.293659 152.817868,103.147757 152.206568,101.5 C143.735523,101.5 144.585752,99.9383101 154.757257,96.8149302 C158.878798,95.5493221 163.215472,93.8232159 167.594658,92.9162619 C169.5489,92.5115275 171.586084,92.9162619 173.581797,92.9162619"/>
    <path fill="#4176F9" d="M234,90.5 C234,96.851 222.5,113.5 222.5,113.5 C222.5,113.5 211,96.851 211,90.5 C211,84.149 216.149,79 222.5,79 C228.851,79 234,84.149 234,90.5"/>
    <path fill="#FFF2E6" d="M222.5,84 C219.462,84 217,86.462 217,89.5 C217,92.538 219.462,95 222.5,95 C225.538,95 228,92.538 228,89.5 C228,86.462 225.538,84 222.5,84"/>
    <path fill="#4176F9" d="M104 276.5C104 282.851 92.5 299.5 92.5 299.5 92.5 299.5 81 282.851 81 276.5 81 270.149 86.149 265 92.5 265 98.851 265 104 270.149 104 276.5M82 100.5C82 106.851 70.5 123.5 70.5 123.5 70.5 123.5 59 106.851 59 100.5 59 94.149 64.149 89 70.5 89 76.851 89 82 94.149 82 100.5"/>
    <path fill="#FFF2E6" d="M92.5 270C89.462 270 87 272.462 87 275.5 87 278.538 89.462 281 92.5 281 95.538 281 98 278.538 98 275.5 98 272.462 95.538 270 92.5 270M70.5 95C67.462 95 65 97.462 65 100.5 65 103.538 67.462 106 70.5 106 73.538 106 76 103.538 76 100.5 76 97.462 73.538 95 70.5 95"/>
    <path fill="#4176F9" d="M72,202.5 C72,208.851 60.5,225.5 60.5,225.5 C60.5,225.5 49,208.851 49,202.5 C49,196.149 54.149,191 60.5,191 C66.851,191 72,196.149 72,202.5"/>
    <path fill="#FFF2E6" d="M60.5,196 C57.462,196 55,198.462 55,201.5 C55,204.538 57.462,207 60.5,207 C63.538,207 66,204.538 66,201.5 C66,198.462 63.538,196 60.5,196"/>
    <path fill="#4176F9" d="M56,168.5 C56,174.851 44.5,191.5 44.5,191.5 C44.5,191.5 33,174.851 33,168.5 C33,162.149 38.149,157 44.5,157 C50.851,157 56,162.149 56,168.5"/>
    <path fill="#FFF2E6" d="M44.5,163 C41.462,163 39,165.462 39,168.5 C39,171.538 41.462,174 44.5,174 C47.538,174 50,171.538 50,168.5 C50,165.462 47.538,163 44.5,163"/>
    <path fill="#4176F9" d="M185,276.5 C185,282.851 173.5,299.5 173.5,299.5 C173.5,299.5 162,282.851 162,276.5 C162,270.149 167.149,265 173.5,265 C179.851,265 185,270.149 185,276.5"/>
    <path fill="#FFF2E6" d="M173.5,271 C170.462,271 168,273.462 168,276.5 C168,279.538 170.462,282 173.5,282 C176.538,282 179,279.538 179,276.5 C179,273.462 176.538,271 173.5,271"/>
    <path fill="#4176F9" d="M196,304.5 C196,310.851 184.5,327.5 184.5,327.5 C184.5,327.5 173,310.851 173,304.5 C173,298.149 178.149,293 184.5,293 C190.851,293 196,298.149 196,304.5"/>
    <path fill="#FFF2E6" d="M184.5,299 C181.462,299 179,301.462 179,304.5 C179,307.538 181.462,310 184.5,310 C187.538,310 190,307.538 190,304.5 C190,301.462 187.538,299 184.5,299"/>
    <path fill="#4176F9" d="M86,58.8939 C86,65.2449 74.5,81.8939 74.5,81.8939 C74.5,81.8939 63,65.2449 63,58.8939 C63,52.5429 68.149,47.3939 74.5,47.3939 C80.851,47.3939 86,52.5429 86,58.8939"/>
    <path fill="#FFF2E6" d="M74.5,52.3939 C71.462,52.3939 69,54.8559 69,57.8939 C69,60.9319 71.462,63.3939 74.5,63.3939 C77.538,63.3939 80,60.9319 80,57.8939 C80,54.8559 77.538,52.3939 74.5,52.3939"/>
  </g>
</svg>
