<svg xmlns="http://www.w3.org/2000/svg" width="405" height="313" viewBox="0 0 405 313">
  <g fill="none" fill-rule="evenodd" transform="translate(1 1)">
    <g stroke="#FE9933" stroke-linecap="round" stroke-linejoin="round" stroke-width="2">
      <path d="M309.364881 205.360626C310.939052 205.357153 310.046472 206.094313 309.726949 206.69255 310.232281 207.428842 310.816626 207.68064 311.821213 207.628544 312.778913 207.579052 313.767871 208.140822 314.998208 208.509836 315.800488 208.265853 316.965705 207.892497 318.145682 207.569501 318.374036 207.506986 318.701374 207.568633 318.907153 207.696268 319.616529 208.135612 320.291174 208.631394 320.981447 209.101995 321.06046 209.155828 321.177676 209.248733 321.234982 209.223553 322.687595 208.5984 323.909249 210.155205 325.381833 209.658556 325.677044 209.558705 326.327377 209.859126 326.495822 210.155205 327.040226 211.111169 327.911968 211.283955 328.850566 211.439375 329.081526 211.477578 329.382815 211.632999 329.480929 211.822281 329.874255 212.579411 330.485516 212.837287 331.297347 213.012677 332.10831 213.187199 332.909722 213.580525 333.603469 214.044181 333.921255 214.256906 334.116616 214.867299 334.117484 215.297961 334.120089 216.612519 334.597636 217.728245 335.389497 218.764089 333.198856 221.654555 330.802434 224.217685 328.012687 226.474315 327.137472 227.181954 326.494953 227.735909 325.367941 227.715939 324.984166 227.709861 324.504881 227.941689 324.223562 228.221271 323.360503 229.078252 322.636367 230.083708 321.733368 230.890329 321.068274 231.485961 320.218239 231.88276 319.428115 232.328182 318.757811 232.704142 318.057118 233.02627 317.365977 233.364027 317.15846 233.465614 316.786841 233.494267 316.746033 233.632322 316.501181 234.454572 315.420186 234.708106 315.261293 235.202151 314.772458 236.714675 313.064574 237.045486 312.518433 238.501572 312.250138 239.217894 311.180431 239.61122 310.539648 240.219876 310.166293 240.574998 310.005663 241.174103 309.607128 241.476261 308.666793 242.186504 308.349875 243.39253 307.20897 244.017683 306.251269 244.543854 305.682553 245.735118 304.834255 246.515692 303.3773 247.858904 301.850016 249.128312 300.327072 250.397721 298.963891 251.533417 297.513882 252.661298 296.314803 253.870796 295.050604 255.146282 293.617092 255.920778 292.255647 256.931443 291.175521 257.732855 290.302042 258.815586 288.976196 259.31484 288.273767 259.577926 287.606937 259.935652 286.906244 260.204816 285.884292 260.598141 284.796351 260.790897 284.653955 262.270427 284.604464 262.7801 283.921136 263.317559 283.410594 263.677022 282.154209 264.563524 280.68944 265.096641 279.752578 266.49629 279.314971 267.151833 278.293887 267.675399 277.480319 267.769172 275.630907 267.983635 274.663656 269.486608 273.231881 270.284546 272.691817 270.585836 272.205587 270.980898 271.67768 271.307367 269.789195 272.476057 267.905052 273.652561 265.996598 274.788256 264.640362 275.596614 263.164305 276.228714 261.894897 277.151683 260.679321 278.035581 259.388205 278.732801 257.989424 279.148701 256.585434 279.566338 255.309079 280.113348 254.100449 280.950359 253.574278 281.315032 252.705141 281.136168 252.070437 281.396649 249.898029 282.290966 247.793345 283.359804 245.590548 284.166426 244.846442 284.439062 243.887873 284.137773 243.028287 284.08394 242.682716 284.062234 242.220797 283.83822 242.016754 283.986694 241.151958 284.614452 240.478182 284.177713 239.662878 283.853849 236.83319 282.731178 233.967035 282.337852 230.88034 282.979503 229.063054 283.357199 227.448942 283.848639 225.978095 284.972179 225.026473 285.700657 224.047066 286.317127 224.036647 287.701148 224.03491 287.905191 223.765747 288.108366 223.619009 288.312409 224.381349 288.961005 225.099407 289.572266 226.107467 290.430116 224.826771 290.730537 223.709309 291.383475 222.923526 291.103892 220.802346 290.349367 218.55874 290.673231 216.3872 289.767627 213.713801 288.653638 210.637525 288.514715 207.79655 289.899604 207.607267 289.992509 207.287744 290.178318 207.302505 290.279037 207.54562 291.859286 206.448997 292.483571 205.348032 293.1313 205.176983 293.232019 205.084078 293.465583 204.941682 293.653997 205.12836 293.93879 205.317643 294.227923 205.692735 294.799244 204.654285 294.799244 203.781675 294.983317 203.032359 294.757567 201.811574 294.391158 200.656776 294.424152 199.404733 294.438912 197.990323 294.453673 196.501243 293.821573 195.169319 293.201629 194.271529 292.783992 193.479668 292.295157 192.436009 292.321205 191.880317 292.335966 191.323757 292.043359 190.757645 291.96782 188.652094 291.689974 186.510075 291.593596 184.442727 291.147306 181.959479 290.610716 179.457997 290.245175 176.949569 289.895262 176.051779 289.7711 175.633274 288.961005 176.050911 288.090132 176.287948 287.596955 176.579687 287.128958 176.981695 286.407427 175.964084 286.16518 174.975994 285.930748 173.851586 285.663321L173.851586 284.709962C172.482327 284.870592 171.248517 285.016461 169.834976 285.183168 170.581687 283.52217 171.634897 282.868364 173.071013 282.627854 173.473021 282.560129 173.794281 282.009646 174.068654 281.757849 174.91782 281.816891 175.735729 281.871592 176.53801 281.927161 176.992114 280.796675 176.308787 280.388589 175.659322 279.956191 174.856173 279.421338 174.172846 278.836993 175.005515 277.716926 172.99721 276.910305 171.188606 275.697333 168.7644 276.478775 168.080205 274.6858 166.438309 274.975802 164.94836 275.077389 163.349877 275.185923 161.76876 275.55841 160.169409 275.678231 158.412901 275.810208 156.641633 275.842334 154.881653 275.779819 154.525663 275.766795 154.002097 275.185055 153.903982 274.78131 153.815419 274.419242 153.517603 273.833161 154.33117 273.43723 154.967611 273.127258 155.296685 272.202552 155.788125 271.572189 156.105912 271.164971 156.492291 270.809849 156.809209 270.401763 157.056666 270.083108 157.233793 269.709753 157.463884 269.377206 157.797299 268.895317 158.104666 268.385643 158.504938 267.966269 158.955569 267.494799 159.155271 267.045036 158.900868 266.398176 158.818383 266.189792 158.95036 265.885897 159.013743 265.632363 159.114462 265.226882 159.240361 264.82661 159.2612 264.408104 159.528627 262.020365 161.843431 263.09615 163.113708 262.197492 162.857569 261.748597 162.647448 261.383056 162.494632 261.114761 162.494632 260.454877 164.100929 259.603105 164.688747 259.824514 166.214295 260.401044 167.740712 260.98018 169.373057 261.598387 169.538896 260.962814 169.651771 260.52868 169.783748 260.024216 168.319847 259.849694 168.530836 258.003755 167.27011 257.629531M98.3513719 74.8808584C98.1360413 74.7089412 97.7765781 74.5691499 97.7288233 74.3590289 97.3085813 72.5035388 96.0218071 71.3357174 94.618685 70.2217287 94.1246401 69.8292713 93.8198778 69.1745967 93.2989166 68.8455229 92.7397516 68.4938741 92.0347174 68.3584242 91.3809111 68.1743512 89.8050035 67.7324025 89.0739213 66.0384103 87.2774735 65.5738866 86.9292977 69.2292977 87.1802274 72.9003376 87.1342091 76.5583534 87.0864544 80.2571779 87.1229216 83.9577389 87.1229216 87.6574317L87.1229216 98.6280062 87.1229216 109.727084 87.1229216 120.826163 87.1229216 131.925241 87.1229216 142.894947 87.1229216 154.104296C86.1035742 154.250165 85.1285085 154.223248 84.3053898 154.562742 83.6819729 154.818881 83.25218 155.542149 82.6044515 156.189877 82.3726238 156.111733 81.9150462 155.931133 81.4418398 155.81218 81.1995928 155.751401 80.8210277 155.689754 80.6873143 155.819126 79.5828766 156.883624 78.2005929 156.448621 76.9268428 156.566706 76.4866306 156.607514 76.4527681 156.903594 76.2357009 157.185781 75.5002774 158.140877 75.0053642 159.115942 74.655452 160.295919 74.3975762 161.169398 73.3243961 161.663443 72.2807372 161.733772 71.8526807 161.762425 71.4202829 161.722485 70.99049 161.741587 70.260276 161.775449 69.49099 161.514969 69.0247297 162.497849 68.5706252 163.453813 68.6939193 164.203997 69.3129949 164.9646 69.410241 165.084421 69.5100919 165.201637 69.5187746 165.212925 68.9891307 165.719126 68.4933493 166.168889 68.0253525 166.645568 67.4184327 167.262907 65.7530934 167.53728 64.9230286 167.163925 64.3421568 166.902576 63.7404466 166.68985 63.0519096 166.418082 62.8452617 164.880378 61.6123202 164.670257 60.2786595 164.573011 58.7722134 164.462741 57.2692403 164.28735 55.7610577 164.199655 54.1669164 164.106751 52.7212491 164.589508 51.2087251 165.121757 50.1390181 165.498585 48.887843 166.183649 47.4604093 165.429992 46.7050155 165.031457 45.4833615 165.284123 44.5438949 165.523765 43.5688292 165.77209 42.7552614 166.065565 41.7958245 165.390052 41.3043845 165.043612 40.5298888 165.104391 39.8882383 164.95939 39.6650933 164.909031 39.360331 164.856066 39.2561387 164.697173 37.2895102 161.680808 34.1125152 162.292069 31.2394142 162.009014 31.1195931 161.996858 30.9893528 162.183536 30.8521664 162.252129 29.6791354 162.833 29.0861079 162.514346 28.9141907 161.222362 28.8907475 161.04784 28.8308369 160.877659 28.7596389 160.592867 27.3964571 160.745683 26.0176465 160.900234 24.400062 161.081703 24.400062 160.877659 24.3861697 160.532957 24.4026668 160.189122 24.4365292 159.45804 24.4782061 158.72609 24.5311705 157.995876 24.5902128 157.177098 24.1265573 157.302129 23.6255663 157.479256"/>
      <path d="M352.471294 114.373016C352.499947 115.578173 352.90456 116.495933 354.129687 117.001266 354.391036 117.108931 354.602894 117.868666 354.501306 118.235075 354.128819 119.582628 354.267742 120.679252 355.461611 121.156799 356.758805 121.676892 357.257191 122.836031 358.16019 123.653072 358.570013 124.024691 359.059717 124.370262 359.575468 124.55173 362.013567 125.407843 364.472503 126.20665 366.927099 127.015876 367.173687 127.096625 367.441982 127.143512 367.700726 127.14438 371.185088 127.153063 374.669451 127.151326 378.154681 127.146117 378.28579 127.146117 378.417766 127.091416 378.376958 127.100098 378.828457 123.003607 379.270406 119.004361 379.706277 115.049398 380.745595 114.794127 381.583474 114.559694 382.446533 115.369789 382.981386 115.871648 383.78714 116.329226 384.633702 115.563413 384.846428 115.370657 385.409934 115.440987 385.764188 115.54952 388.276957 116.319675 390.849637 115.719701 393.382377 115.932427 394.076123 115.990601 394.756846 116.259764 395.449724 116.285812 396.090507 116.309256 396.737367 116.080033 397.384227 116.062667 398.802978 116.024463 400.226939 115.996679 401.638743 116.103476 401.882727 116.121709 402.156232 116.801564 402.273448 117.216596 402.681534 118.660527 401.878386 119.946433 401.45467 121.192398 400.248645 124.735803 398.698786 128.159386 397.413748 131.678479 396.888446 133.1172 396.712187 134.682689 396.346646 136.183057 396.072273 137.308333 395.725834 138.415376 395.457539 139.542388 395.316879 140.131943 395.190112 140.746677 395.207477 141.345782 395.248286 142.731539 394.67436 144.042625 394.617923 145.350237 394.493761 148.236362 392.649558 150.284608 391.59548 152.712287 391.185657 153.653491 390.990297 154.68673 390.684666 155.717365 390.363407 155.610568 390.066459 155.512454 389.733912 155.402184 388.37073 158.31783 385.70254 159.950175 383.320879 161.872522 382.776475 162.310997 382.203418 162.75121 381.783176 163.299087 380.525923 164.93751 378.748577 165.540957 376.882667 166.182607 375.378826 166.700095 373.789026 167.083002 372.563899 168.411453 370.650235 170.487483 368.661031 172.495789 366.459102 174.317416 364.437773 175.987965 362.630037 178.008426 361.04892 180.109637 359.754332 181.831413 358.291299 183.481992 357.362251 185.47901 357.103507 186.03557 356.585151 186.478387 356.368084 187.04363 356.090238 187.770371 355.328766 188.502321 356.183143 189.386219 356.314251 189.520801 356.131915 190.111223 355.937423 190.376045 355.524995 190.936947 355.080441 191.521292 354.523881 191.921563 351.886081 193.816994 350.702631 196.702251 349.222233 199.411249 348.176837 201.324913 346.908297 203.115283 345.76305 204.975983 344.529241 206.980815 343.228574 208.937893 341.763805 210.785568 340.791344 212.011564 339.858823 213.270553 338.921962 214.525201 338.093633 215.635717 337.317401 216.787041 336.447396 217.862826 336.18952 218.183217 335.69287 218.309116 335.305623 218.524447M206.633156 151.155308C206.818098 151.444441 207.002171 151.733575 207.312143 152.218937 206.489892 154.058798 205.37243 156.241626 204.913985 158.859456 205.268238 159.06784 205.783121 159.369998 206.424772 159.747695 205.769229 160.964139 205.058117 162.329057 204.306196 163.672269 202.856188 166.260578 201.367107 168.826312 199.925781 171.41983 197.973045 174.938055 196.006416 178.450202 194.148321 182.017917 193.740235 182.801964 193.036938 183.482687 193.173256 184.586256 193.348646 186.017163 194.753505 187.617382 196.168783 187.978582 196.958039 188.18002 197.914003 188.628915 198.309933 189.267093 198.91338 190.239553 199.553294 190.395842 200.509258 190.129283 200.61345 190.3012 200.778421 190.462698 200.815756 190.649376 201.109231 192.094175 201.37058 192.325135 202.89005 192.320793 203.691462 192.319057 204.400838 192.22702 204.114309 193.501639 204.0188 193.927959 204.564941 194.60955 204.973895 195.016768 205.824798 195.864198 206.131297 197.158786 207.275675 197.750946 207.464958 197.847323 207.771457 198.003612 207.772325 198.132984 207.779271 199.604699 208.916703 199.504848 209.923895 199.622933L209.923895 200.811593C210.382341 201.171056 210.883332 201.47495 211.267106 201.886509 211.913098 202.578519 212.474868 203.346937 213.092207 204.064995 213.268466 204.269907 213.502898 204.540806 213.733858 204.565118 214.952907 204.692754 215.630156 205.535842 216.161537 206.4345 217.455257 206.079379 218.440742 205.964767 219.448802 207.000612 220.584497 208.169301 222.060554 207.636184 223.410712 207.167319M308.848869 188.969971C309.862138 188.989073 310.60364 189.279943 310.409148 190.348782 309.878635 190.650939 309.439291 190.929653 308.975636 191.159745 307.267752 192.007175 305.902833 193.471944 303.94836 193.893054 303.319734 194.029372 302.752755 194.428776 302.135416 194.640634 300.810438 195.096475 299.36477 196.049834 298.16135 195.814533 296.276339 195.446387 294.673515 195.83103 292.966498 196.296422 292.682575 196.373698 292.290985 196.054175 291.664095 195.804114 291.254273 196.471812 290.850528 197.192475 290.385136 197.869725 289.964025 198.482722 289.381417 198.786616 288.586951 198.807455 288.076409 198.821347 287.573682 199.116559 286.92248 199.333626 287.545897 200.245308 288.487969 200.481477 288.392459 201.62325 288.306501 202.654753 287.811587 203.010743 287.033619 203.143589 286.159272 203.293799 285.948283 203.516944 286.192266 204.474644 286.34595 205.078091 286.194003 205.943755 285.516753 206.55328 285.080014 206.947474 284.914175 207.643825 284.563394 208.328889L281.230111 208.328889C281.100739 208.328889 280.878462 208.371434 280.855887 208.322811 280.173428 206.832862 278.91878 207.511848 277.875121 207.572627 276.424244 207.655981 275.358878 207.15499 274.633006 205.884713 274.524472 205.69543 274.217973 205.618154 274.002643 205.48965 272.994583 204.886204 272.003888 203.798263 271.025349 202.268374 270.916816 202.099061 270.693671 201.898491 270.517412 201.893282 269.439891 201.860287 269.208063 201.06669 268.95887 200.294799 268.067158 200.391177 267.16329 200.488423 266.258555 200.584801"/>
      <path d="M321.75464.929201076C323.733425.896206867 325.565472 1.53959394 327.458297 1.9841475 328.672137 2.26893962 329.655017 3.02867469 330.910534 3.18496305 331.640747 3.27526299 332.419584 3.86829049 332.951833 4.44221607 333.632556 5.17850789 334.260314 5.16548386 335.04957 4.8042841 335.824934 4.44916222 336.463112 4.65667843 336.986678 5.31482607 337.27147 5.67168449 337.545843 6.2395322 337.895755 6.300311 338.598184 6.42360515 339.456034 6.47917435 340.061217 6.17962166 341.821197 5.311353 343.660191 5.45635387 345.501788 5.45722213 345.63116 5.45722213 345.825653 5.72291234 345.879485 5.68904987 347.162786 4.88850616 348.654472 5.27488572 350.029809 4.98314745 351.09257 4.75826586 352.275152 4.90239846 353.370039 5.08907622 354.639448 5.30527512 355.86197 5.78021808 357.122696 6.067615 357.430931 6.13881303 357.816443 5.94953046 358.148121 5.82710458 358.889623 5.55446822 359.526932 5.31308954 360.012294 6.32288599 360.148612 6.60854638 360.954366 6.57294736 361.45362 6.68495402 361.552603 6.58510312 361.651585 6.48525223 361.750568 6.38540133 362.400901 8.00819546 363.127642 9.60494152 363.685071 11.2589933 365.317416 16.105669 366.98536 20.947135 368.411057 25.856326 368.825221 27.284628 368.601208 28.949099 368.440578 30.4807249 368.265188 32.1451959 368.430159 33.5075094 369.729089 34.779523 370.962898 35.9890213 372.3912 37.2853464 371.830299 39.3891613 372.917371 41.0874948 373.021563 43.41185 375.177475 44.4398801 376.365266 45.0059913 376.781167 46.0583329 376.756855 47.3911253 376.720388 49.2752683 376.962635 51.0760575 378.386596 52.577294 379.324326 53.5671203 379.586543 54.9198829 379.576124 56.2960887 379.535315 61.6446236 379.60304 66.9801345 380.290709 72.3069628 380.523405 74.1103568 379.949479 76.0031824 380.006785 77.8473851 380.050198 79.2409563 379.682052 80.4365622 379.039534 81.5818086 378.693963 82.1982793 378.691358 82.601156 379.005671 83.2931661 379.580465 84.5573653 379.912144 85.8745288 378.977018 87.3019625 378.262433 88.3907714 377.868239 89.7391926 377.568686 91.026835 377.457548 91.5009097 378.002821 92.1434285 378.288481 92.6887013 378.720879 93.5144248 378.642735 94.0866138 377.641621 94.3826934 377.187517 94.5172751 376.777694 94.7994624 376.195085 95.0903324 374.231062 93.8487082 372.201918 92.5437004 370.149331 91.2768964 368.573423 90.3035673 366.975809 89.3675736 365.373853 88.4376579 364.765197 88.0842726 362.795963 88.5817905 362.419135 89.2130218 361.760119 90.3191961 360.738167 90.9747389 359.712741 91.6797731 358.709023 92.3691784 358.003989 93.2001115 357.80255 94.6145211 357.623687 95.8787203 356.731975 97.0613022 356.074696 98.2352015 354.911216 100.312968 353.371775 102.117231 351.841018 103.931912 350.885922 105.065003 349.983791 106.231088 350.10969 107.923343 350.187834 108.982631 349.780616 110.072308 349.789299 111.146356 349.79885 112.437472 349.86918 113.766791 350.189571 115.007547 350.517776 116.280429 351.18287 115.018835 351.696017 114.997996 351.915689 114.989314 352.126678 114.760091 352.342009 114.631587M34.466682 220.976785C34.1905725 221.113971 33.9144631 221.251158 33.4716461 221.472566 33.9231458 221.947509 34.2661119 222.294817 34.5943175 222.656016 35.1665065 223.287248 36.0165415 223.768269 35.7716898 224.851868 35.7482465 224.95606 35.9158224 225.119295 36.0174098 225.233906 37.3050522 226.699544 38.6491321 228.119163 39.8733909 229.636028 41.1844766 231.262295 42.7082881 232.835598 43.5314068 234.700639 44.252938 236.333853 45.3486931 237.967066 45.2097701 239.95106 45.1750393 240.452919 45.6447727 240.976485 45.6647429 241.499183 45.6916592 242.191193 46.4644183 242.696525 45.9026485 243.610812 45.5926766 244.114408 46.0380984 245.122468 46.2256444 245.882203 46.3680405 246.459602 46.6745393 246.994455 46.8421152 247.567513 46.9237324 247.84449 46.9827747 248.322906 46.8360373 248.440991 46.0250744 249.087851 46.4210049 249.719951 46.5347481 250.540464 46.8976844 253.139193 46.4618135 255.637202 44.5247061 257.621195 43.7172163 258.447787 42.9036485 259.329948 41.9303194 259.916898 40.5445626 260.75304 38.910481 260.018485 38.0804161 258.404374M321.496852 1.05805214C320.421067 1.31592794 319.350491 1.75353534 318.268629 1.78479301 317.029609 1.8212603 315.886968 1.89159006 315.037801 2.63222322 313.808333 2.36740128 312.68132 2.12515433 311.475295 1.86467373 310.516726 2.71644528 309.262078 3.00471048 307.945783 3.12453155 307.600212 3.15665749 306.965507 3.17749594 306.956825 3.25737666 306.851764 4.24199332 305.465139 4.41304224 305.586697 5.57912705 305.65529 6.24682565 305.439959 6.97790786 305.215078 7.6334507 304.96328 8.36540118 304.479654 8.9410633 303.558421 8.66842694 302.781321 8.43833575 302.517367 9.18851987 301.997274 9.4203476 300.568104 10.0567885 299.090311 10.5846959 297.615122 11.1091301 297.309491 11.2176637 296.931795 11.124759 296.58796 11.124759 296.416043 11.124759 296.152958 11.0518244 296.085233 11.1351782 294.911333 12.601684 293.477822 11.4547011 292.19973 11.4581741 290.752327 11.4616472 289.721692 12.0546747 288.706686 12.9220751 288.238689 13.322347 287.660422 13.5915102 287.174191 13.9735485 286.79389 14.2713646 286.199126 14.6395105 286.182629 14.9989737 286.112299 16.5132343 284.7578 16.7876072 283.951178 17.5890192 283.627314 17.9102786 283.180156 18.3748023 283.214018 18.7351338 283.297372 19.6459476 282.759045 19.9646022 282.133024 20.2867299 280.497205 21.1263457 280.442505 21.220987 280.749872 23.0912376 279.452678 23.8909131 278.085155 24.7392116 276.70374 25.5640668 276.646434 25.5987975 276.454547 25.4077784 276.326043 25.3218198M282.907693 83.9794456C282.005562 83.1927942 282.005562 83.1927942 282.730566 81.8270076 282.058526 81.4892511 281.389959 81.1540994 280.640643 80.7772708 280.859447 80.3127471 281.080856 79.8430138 281.372594 79.2222017 282.065472 79.6389706 282.690626 80.0157992 283.386977 80.4343047 284.466235 79.9888829 285.615823 79.5139399 286.765411 79.0398652 286.740231 78.9243855 286.715051 78.8089058 286.689871 78.6934261 286.978136 78.8853134 287.279426 79.2508545 287.551194 79.2308844 288.033951 79.1944171 288.717278 79.0528893 288.915244 78.7177376 289.130574 78.353933 289.042879 77.6306652 288.810183 77.2234472 288.409043 76.5236227 287.791704 75.946224 287.471313 75.5624493 286.543134 75.6675098 285.895405 75.7404443 285.307587 75.8064328 285.118305 75.2194831 285.046239 74.7540911 284.825698 74.3746577 284.581715 73.9535474 284.202281 73.6114496 283.881022 73.234621L284.157131 72.7839896C284.902106 73.0097394 285.642739 73.2528546 286.39466 73.4508199 286.636039 73.5150718 287.01634 73.5697727 287.14658 73.4404007 287.53817 73.050548 287.839459 72.5669224 288.282276 71.9782362 287.44787 71.7516181 286.791459 71.5727548 286.134179 71.3964962 285.96313 71.350478 285.687889 71.363502 285.633188 71.2593098 284.86998 69.792804 283.503325 70.1548721 282.263438 70.0888836 282.040292 70.0775961 281.828435 69.8544511 281.521936 69.6773243 280.258605 71.57015 278.693117 69.918703 277.228348 69.963853 277.059903 69.9690626 276.794213 69.6842704 276.726488 69.7363666 275.392828 70.7470313 273.870753 70.0411289 272.689039 70.0958298 272.098616 71.1021532 271.634961 71.8931459 271.146126 72.7258156 269.478182 72.4601253 267.788531 72.0433564 266.124928 72.921176 265.639566 72.0754823 265.031778 71.6977855 264.06279 71.7568277 262.542451 71.8488642 262.325384 71.4034424 263.032155 69.976877 262.516403 68.7465403 261.999784 69.9933741 261.498793 70.0020568 260.735584 69.3404361 260.571482 67.9833321 259.156204 68.1274647 259.016412 68.141357 258.721201 67.5847968 258.661291 67.2626692 258.454643 66.150417 258.320929 65.0242725 258.14988 63.846032L256.96643 63.846032 256.96643 65.1588542C255.890645 65.5018203 254.951179 65.8256845 253.996083 66.0983209 253.019281 66.3770351 251.974754 66.522036 251.531937 67.9512062 250.464834 67.2835076 249.567045 66.5897609 248.558985 66.1469439 248.018053 65.9090383 247.286971 66.1043988 246.641848 66.1043988 243.940664 66.1043988 243.305959 65.3863406 243.536051 62.6191684 243.553416 62.4090473 243.457906 62.1893754 243.415361 61.974913M128.29353 247.17575C128.035654 247.003833 127.761281 246.851886 127.522507 246.655657 127.050169 246.268409 125.213781 246.307481 124.966324 246.803263 124.812641 247.114103 124.876024 247.575153 124.948959 247.948509 125.199889 249.23181 125.109589 249.494895 123.911378 249.32732 122.822569 249.174504 122.351099 250.181696 121.454178 250.282415 121.189356 250.311936 120.920192 250.552447 120.681418 250.514243 119.468447 250.318014 118.690478 250.718286 118.32841 251.943413 118.260685 252.171768 117.855204 252.328056 117.579095 252.462638 116.063097 253.198061 115.051565 254.212199 115.233901 256.084186 115.299021 256.755358 114.767641 257.007156 114.096469 256.993264 112.763677 256.964611 111.427411 257.034072 110.096355 256.971557 108.445777 256.895149 107.298794 257.69222 106.086691 259.162199 106.486962 259.43223 106.952354 259.624986 107.238883 259.967952 107.743347 260.572267 107.229332 262.645692 106.47307 263.03294 105.931271 263.309918 105.380788 263.473153 105.019588 264.055761 104.911923 264.229415 104.288506 264.083545 103.901258 264.083545 103.514011 264.083545 103.095505 263.988036 102.746461 264.103516 102.11002 264.314505 101.709748 264.234624 101.431902 263.573872 101.3225 263.315128 101.017738 263.138001 100.730341 262.851472 99.42707 265.117653 97.7869105 264.152139 96.1389366 263.205726 95.9305521 262.047455 94.7141077 260.830143 93.4473037 260.598315 92.4418486 260.41511 91.8028029 259.946245 91.8809471 258.79058 91.9061269 258.410278 91.8592404 257.834616 91.6187299 257.659226 90.0983915 256.549578 90.3128539 254.682801 89.5982688 253.231055 89.3360516 252.69707 89.3369199 252.035449 89.1997334 251.335625 89.389016 251.28787 89.6642572 251.120294 89.8240186 251.195834 90.5837537 251.556165 90.8746237 250.983108 91.1099245 250.523794 92.1987334 248.396536 91.7194491 248.408691 93.8345516 248.854113"/>
      <path d="M1.0399883 158.253665C.796873071 158.850165.863729757 159.16361 1.52795528 159.588194 2.92152648 160.479906 3.76287881 161.852638 4.01641326 163.544026 4.14665356 164.414899 4.5859975 165.029633 5.4004335 165.526283 6.01343118 165.899639 6.34945115 166.707997 6.85391524 167.281922 7.5198773 168.039921 7.72826178 169.084448 8.75108226 169.667925 9.56812307 170.133317 10.0908208 171.068442 10.0934256 172.191982 10.0968987 173.727081 11.0485211 175.002567 11.8247533 176.143472 13.0429342 177.932106 13.7297348 179.826668 14.2159652 181.868836 14.3531516 182.446234 14.532015 183.062705 14.8689032 183.535912 15.8500468 184.912986 15.3681577 186.658206 16.0566948 188.043962 16.5272964 188.990375 16.5924165 190.056609 17.3564929 190.967423 18.0502396 191.793147 18.1275155 193.140699 18.4548528 194.264239 18.5130268 194.462204 18.3767086 194.75047 18.4765595 194.898075 19.7355491 196.755302 20.1271382 198.982411 21.0822338 200.954249 21.9791553 202.80453 23.2103602 204.491576 24.2635701 206.268053 24.654291 206.928806 24.9434245 207.649469 25.3080973 208.32585 25.6015721 208.869386 25.8568431 209.368641 26.4081937 209.818404 27.0402933 210.335024 27.2278393 211.389102 27.6289795 212.199197 28.4338645 213.824595 29.295187 215.389216 30.5559131 216.754134 31.2869953 217.545127 31.5657096 218.735523 32.1648149 219.672385 32.5685599 220.303616 33.1763479 220.804607 33.6920995 221.364641M169.463791 292.218055C168.162256 292.297935 166.912817 292.460302 165.569606 292.030509 164.476456 291.681465 163.176657 292.039191 161.979315 291.942814 159.7852 291.765687 157.625816 291.58335 155.495085 290.748076 153.841033 290.099479 151.916081 290.107294 150.1014 289.926694 149.6499 289.88328 148.996962 290.102952 148.715643 290.437236 147.935938 291.363678 146.900093 290.999874 145.993621 291.254277 145.006399 291.531254 144.164179 291.185683 143.26552 291.158767 141.880632 291.118827 140.705864 291.691884 139.537175 292.249312 139.078729 292.468984 138.789596 293.04291 138.353725 293.53435 138.85732 293.818274 139.269748 294.050102 139.682176 294.282798L139.694331 294.575404C139.37915 294.650075 139.066573 294.750794 138.74705 294.795076 137.716415 294.936604 136.603295 294.865406 135.674248 295.246576 134.926668 295.554811 133.449743 295.569572 134.047112 297.27051 134.274598 297.918239 132.451234 299.086928 131.391947 299.198067 130.6982 299.271001 130.001848 299.594865 129.32894 299.540164 128.28615 299.455942 127.269407 299.062617 126.226616 298.95061 124.988465 298.817765 123.731212 298.790849 122.486983 298.836867 122.177011 298.849023 121.904375 299.347409 121.578774 299.569685 120.024573 300.629842 118.334054 300.618554 116.686949 299.941304 114.558822 299.06609 112.358629 298.748303 110.096789 298.829052 109.530678 298.849891 108.955016 299.186779 108.426241 299.461152 108.071987 299.643488 107.757674 299.920466 108.263874 300.376307 108.389773 300.49005 108.298605 301.126491 108.138844 301.21245 107.873153 301.357451 107.465067 301.295804 107.129047 301.244576 104.657955 300.873825 102.181652 300.3546 99.7739433 301.517212 99.1513947 301.817633 98.4064202 302.067694 97.9948608 302.568685 96.9138664 303.887586 95.4378096 304.481481 93.9626212 305.122264 93.9261539 305.137892 93.8471414 305.110108 93.8384588 305.125737 93.0014478 306.864879 91.0782327 306.672991 89.7289432 307.488296 89.1663051 307.827789 88.1443529 307.941532 88.461271 309.273456 88.6766016 310.172982 86.9548248 310.56544 86.0787418 309.915975 84.9777771 309.098934 83.9480105 308.049197 82.3460548 308.340067 81.5394332 308.487673 80.727602 309.168396 79.8619382 308.387822 79.8072372 308.338331 79.2654376 308.829771 78.888609 309.116299 77.7207876 308.20809 76.5364692 307.168773 75.2297249 306.316133 74.5003792 305.840322 73.675524 305.619782 72.9756994 304.949478 72.5485112 304.539655 71.3346716 304.952083 70.4742174 304.995496M151.395033 97.7241385C150.620537 98.7139648 149.84691 99.7029228 149.035947 100.738767 148.583579 100.513017 148.120792 100.28119 147.757856 100.10059 147.080606 100.381909 146.475423 100.633707 145.789491 100.919367 145.739999 101.118201 145.764311 101.544521 145.570687 101.703414 144.702418 102.416262 143.958312 103.397406 142.746209 103.512886 141.627011 103.620551 140.991438 104.341214 140.721406 105.221638 140.25341 106.74545 139.058672 107.717043 138.276362 108.980373 137.468872 110.282776 136.160391 110.641371 134.984755 111.236135 134.367416 111.546976 133.365434 111.761438 132.847078 111.468831 131.758269 110.854097 131.12096 111.445388 130.33344 111.880391 130.389009 112.26677 130.40898 112.617551 130.493202 112.951834 130.692035 113.741959 130.696377 114.451334 129.975714 115.023523 128.952025 115.834486 127.56019 116.127093 126.609436 115.811911 126.04072 115.622629 125.179397 115.331759 124.854665 115.592239 124.068014 116.223471 123.455884 115.673857 122.885432 115.494125 121.555244 115.076488 120.30841 114.918463 118.990378 115.509754 118.632652 115.670383 118.140343 115.534934 117.71055 115.534934 117.366716 115.534934 116.88309 115.385591 116.699886 115.557509 114.985055 117.162069 113.326662 115.346519 111.641353 115.492388 111.278416 115.523646 110.871198 115.017445 110.483082 114.760438 108.717892 113.591748 107.598694 115.520173 106.10093 115.710324 105.386345 115.800624 104.734275 116.386705 104.040529 116.754851 102.656508 114.789959 101.862911 112.774707 102.573155 110.361789 102.703395 109.920708 102.387345 109.327681 102.217164 108.825822 101.646712 107.149195 101.945396 106.463263 103.227829 105.308465 104.103044 104.520946 104.738617 103.459921 105.444519 102.496143 106.283267 101.350028 107.13417 100.20565 107.864384 98.9918108 108.03196 98.7148331 107.729802 98.1547998 107.643844 97.7241385M188.048474 236.076498C187.48844 236.106887 186.929275 236.136408 186.16954 236.177217 185.831784 235.607633 185.428907 234.928647 184.901 234.037803 184.336625 233.831155 183.872101 234.042144 183.62725 235.036312 183.365032 236.094731 182.322242 237.051564 181.51562 237.258212 181.038072 236.580962 180.543159 235.877664 180.037827 235.160474 180.230583 234.88176 180.425943 234.597836 180.629986 234.302625 180.52753 234.217535 180.486722 234.158492 180.432889 234.143732 179.643633 233.933611 178.790993 233.867622 178.351649 232.988066 178.257008 232.799652 177.836766 232.556537 177.738652 232.618184 176.654184 233.29196 175.27711 232.259589 174.213481 233.34232 173.290511 234.281787 171.96206 234.187145 170.737801 233.436093 170.039713 233.645346 169.437135 233.865886 168.816323 234.003941 167.658052 234.26008 166.999036 235.120534 166.659543 236.089522 166.101247 237.684531 165.204325 238.930497 163.783838 239.817868 163.75258 239.836101 163.688328 239.803107 163.657939 239.821341 163.050151 240.204247 162.313859 240.56892 161.764245 240.03233 161.457746 239.732777 161.600142 238.973042 161.524603 238.284505 160.501782 238.399985 159.451177 237.272104 158.075839 237.950222 157.778023 238.096959 157.090355 237.45444 156.673586 236.941293 156.376638 237.040276 156.033672 237.075007 155.792293 237.251265 155.151511 237.717526 154.65052 237.618543 154.237224 236.978629 153.872551 236.412518 153.421051 236.455063 152.80979 236.562728 151.846012 236.732909 150.847503 236.704256 149.642346 236.771981 150.104265 235.81949 150.408159 235.194337 150.677322 234.639513 150.346512 234.28526 150.10687 234.00915 149.843784 233.757352 149.644951 233.567201 149.391416 233.236391 149.205607 233.265044 147.598442 233.501213 146.437566 232.408931 145.07178 231.944407 144.278182 231.674376 143.492399 231.379164 142.686646 231.089163 142.008528 233.227708 141.573525 235.236882 140.102678 236.692969L140.102678 238.5528C139.556537 238.496363 139.086804 238.44774 138.617939 238.399985M361.634394 125.472268C360.753969 126.440388 359.873545 127.409376 358.876772 128.505999 357.240086 126.794642 355.474896 128.531179 353.723598 128.213392 353.3815 127.780995 353.039402 127.348597 352.587903 126.777276 352.17287 127.141949 351.735263 127.526592 351.336727 127.877373 350.376422 127.504017 349.347524 127.25656 348.490543 126.729521 347.541525 126.146045 346.780922 126.54458 345.882264 126.728653 344.365398 127.039493 342.804251 127.137608 341.217924 127.330363 341.062504 126.86584 340.997384 126.534161 340.839359 126.255447 340.760347 126.116524 340.373099 125.981942 340.359207 126.001912 339.703664 126.983924 338.368267 126.535029 337.645867 127.294764 337.412303 127.539616 337.369758 127.966804 337.169188 128.499921 336.644753 128.366208 336.096876 128.226417 335.538579 128.08402 335.136571 128.443484 334.705041 128.828995 334.223152 129.259656 333.359225 128.776031 332.566495 128.369681 331.393465 128.858516 330.75876 129.123338 329.70555 128.3801 329.036115 128.156955 328.219943 128.460849 327.531406 128.716988 326.62146 129.054745 326.365321 129.683371 326.238554 130.93802 324.699981 130.163524 324.477705 130.051517 323.754437 130.460472 323.607699 130.784336 323.394105 131.259279 323.588598 131.772426 324.195517 132.077188 324.642676 132.302938 325.046421 132.697132 325.335554 133.109559 325.449297 133.271057 325.289536 133.847588 325.094175 133.961331 324.382195 134.376363 323.60249 134.675916 322.863593 135.011936 322.940869 135.45649 322.887905 135.900175 323.064163 136.029547 323.704077 136.495807 323.737071 137.008954 323.606831 137.740904 323.530424 138.170697 323.905516 138.679503 324.078301 139.152709M257.999236 37.7114926C257.913277 38.055327 257.941062 38.5676055 257.722258 38.7160795 256.385993 39.622552 256.616952 41.0864529 256.329555 42.3593348 256.15677 43.1234112 256.099464 43.9152722 255.924942 44.6784804 255.70527 45.6335759 255.456077 46.5860666 255.146105 47.5151141 254.946403 48.1124829 254.614724 48.66557 254.385502 49.1483274 254.385502 50.2736036 254.588676 51.4066942 254.305621 52.4008618 254.146728 52.9582903 253.210734 53.5921264 252.572557 53.6537735 251.020092 53.8031157 249.866163 54.389197 248.939721 55.6316895 248.626276 56.0519315 247.922978 56.1682795 247.564383 56.5711562 246.70827 57.5340661 245.523083 58.180058 245.174039 59.6404859 244.843229 61.0262427 243.845588 61.8215768 242.26013 62.0230151 240.597395 62.2348727 238.987625 62.8478703 237.348334 63.2594297 236.538239 63.4634728 235.713384 63.6023958 234.89808 63.7838639 234.378855 63.8993437 233.865708 64.0434763 233.34822 64.1676387 232.789923 64.3013521 232.227285 64.4159635 231.671593 64.5583596 230.91099 64.7545883 230.155596 64.9681824 229.169243 65.2364774 231.18189 67.6016412 229.651132 69.4901256 228.936547 71.3872926 228.04744 73.7481151 226.938661 76.0247155 226.013955 78.3742505 225.663174 79.2668307 225.671857 80.3009386 225.322813 81.1952554 224.674216 82.8623312 223.950949 84.5094368 223.114806 86.0888175 222.841301 86.6045691 222.151896 86.9379843 221.596204 87.2566389 220.898116 87.657779 220.029847 87.8253548 219.430742 88.3272141 217.44588 89.9882121 215.16407 89.4056038 212.957799 89.3066212 212.218902 89.273627 211.47306 88.9593137 210.768025 88.6788629 209.357089 88.1162248 208.319508 88.9080859 207.286268 89.6061739 205.84581 90.5777665 204.297687 90.8043846 202.633216 90.4918079 202.368394 90.4414483 201.970727 90.1757581 201.881296 90.262585 201.193627 90.9311518 200.59539 90.5030954 199.915535 90.2556388 198.68954 89.8093487 197.372377 89.5801258 196.202819 89.0279069 195.636708 88.7596119 195.401407 88.8577263 194.873499 89.0305117 193.221184 89.5714431 192.077674 88.3827833 190.900302 87.5119099 190.395838 87.1385543 190.071105 86.5272932 189.577929 86.1330992 189.346969 85.9490263 188.908494 86.0228291 188.564659 85.9794157M23.36743 157.737305C23.3691666 157.058319 23.3353041 156.460082 22.6250603 156.009451 22.3758672 155.852294 22.4896104 155.121212 22.4409874 154.677527 24.2990823 154.223422 24.5317783 153.586981 23.6400664 152.050146 23.2944955 151.45625 23.0852427 150.776396 22.8577563 150.120853 22.572096 149.300339 22.0190088 149.224799 21.3018189 149.475729 19.7858218 150.007978 19.4289634 149.890762 18.619737 148.787192 18.7239293 147.773923 18.8081513 146.956882 18.9097387 145.967924 17.2695792 146.745024 17.1992495 144.981571 16.2745434 144.722826 15.1813931 144.464082 14.3817177 145.414837 13.3024597 145.43307 12.9490744 145.439148 12.6286833 145.885438 12.2388306 145.369687 12.2067047 145.32801 11.7057137 145.558969 11.5103532 145.750857 11.3809812 145.878492 11.2976274 146.24056 11.3844543 146.366459 11.7473906 146.895235 11.6492762 147.180895 11.1248419 147.566406 10.5708865 147.972756 10.0916022 148.530185 9.71737845 149.10932 9.54111991 149.382824 9.68698905 149.864713 9.68698905 150.33792 9.20596821 150.258039 8.73883967 150.179895 8.23350731 150.095673 7.37999922 151.378106 9.47947284 151.532658 9.0844106 152.748234 7.97563152 153.380333 9.12087788 155.265345 7.28709447 155.817563 6.82257074 155.547532 5.93606844 154.783455 5.19717181 155.820168 4.32629834 157.040954 3.07338667 157.122571 1.81960672 157.374369 1.57041362 157.42386 1.38460413 157.780719 1.1692735 157.995181M156.557585 85.7218872C156.159918 85.8026362 155.763119 85.8842534 155.177906 86.0040745 156.069618 86.9296489 155.968899 87.608635 155.153594 88.3206153 154.507603 88.8858582 154.247122 89.6403837 154.733352 90.5069158 154.81497 90.6519166 154.738562 91.0417693 154.610058 91.1242548 153.354542 91.9317446 153.648885 93.1985486 153.582028 94.3681065 153.56119 94.718887 153.450051 95.0635897 153.365829 95.4855683 152.989869 95.5159577 152.639957 95.5446105 152.345614 95.5680538 152.143307 96.2696149 151.967048 96.8826125 151.754323 97.6215092 152.020013 97.7118091 152.424626 97.8498638 152.943851 98.0261224 152.943851 99.9163432 153.011576 101.856924 152.916934 103.788821 152.864838 104.850714 153.147894 105.454161 154.234098 105.603503 154.583142 105.651258 154.920898 105.77542 155.41147 105.902187 157.063786 103.830498 157.597771 101.322938 157.980677 98.6920844L159.64428 98.6920844C159.73458 98.1528896 159.813592 97.6788149 159.891737 97.2082133 160.60198 97.2082133 161.638693 97.4799814 161.898305 97.1465662 162.318547 96.6082396 162.225643 95.6705095 162.373248 94.7562226 164.728861 94.2448124 167.150463 94.9646071 169.737035 95.1651771 169.318529 95.9136247 168.980773 96.5196762 168.696849 97.0284817 167.757382 96.7653963 166.932527 96.5353051 165.949647 96.2600639 165.806383 96.6915934 165.660514 97.1309374 165.517249 97.5633352 166.281326 97.9366907 166.972467 98.2744472 167.78343 98.6703777 167.010671 99.6063713 166.267433 100.508502 165.59192 101.326412 165.59192 101.55303 165.554585 101.682402 165.59713 101.718869 166.814443 102.766001 167.321511 103.983314 166.778844 105.605239 166.531387 106.347609 166.859593 106.859019 167.780826 107.041356 169.992306 107.478963 172.248936 107.879235 173.860443 109.719096 173.997629 109.876253 174.257242 109.926613 174.508171 110.050775 173.633825 111.092697 172.965258 111.890636 172.169055 112.839654 172.608399 113.184357 172.987833 113.660168 173.473195 113.830349 174.911048 114.333944 176.403602 114.676042 177.846664 115.164877 178.569064 115.408861 179.22287 115.85081 179.920958 116.172937 180.201409 116.302309 180.680693 116.518508 180.793568 116.409975 181.35447 115.868175 182.010012 115.648503 182.610854 116.074823 183.620651 116.792013 184.60874 117.576928 184.962126 118.887145 185.106258 119.422867 185.373685 119.925594 185.586411 120.443951 183.872449 121.221051 183.313284 122.823007 182.741095 124.433645 182.636034 124.730593 182.325194 124.955475 181.994384 125.349669 183.547716 126.309106 185.08021 127.256387 186.685639 128.24795 185.516081 130.019218 186.148181 132.048362 185.969317 133.920349 186.47465 134.167805 186.942647 134.39616 187.377649 134.608886 187.253487 135.105535 187.163187 135.590029 187.009503 136.052817 186.723843 136.920217 187.067677 137.334381 187.916844 137.202404 189.516195 136.952343 191.122492 136.689257 192.68798 136.288117 193.837568 135.993774 194.236103 135.933864 195.324044 136.601562 195.224193 136.843809 195.13563 137.101685 195.013204 137.343932 194.901197 137.566209 194.753591 137.771989 194.623351 137.98211 195.503776 139.008403 195.481201 139.393046 194.502662 140.315147 194.281253 140.523532 194.048557 140.726707 193.860143 140.962876 193.349601 141.607131 193.532806 142.07426 194.37329 142.246177 195.37093 142.45022 195.970036 142.911271 195.805933 144.059122 195.722579 144.643467 197.15175 145.924163 197.72828 145.864252 197.770825 145.859911 197.820316 145.878145 197.855915 145.861648 198.030437 145.780899 198.359511 145.642844 198.34996 145.612455 197.944479 144.287477 199.918053 144.515831 199.785208 143.412262 199.711406 142.796659 199.562063 142.189739 199.424877 141.464735 199.94497 140.9759 200.609195 140.350746 201.212642 139.782899 201.212642 138.461394 201.135366 137.121655 201.265606 135.802755 201.298601 135.466735 201.965431 135.159368 202.3822 134.906702 202.640076 134.750414 202.976096 134.721761 203.277385 134.634934M357.762784 48.4232363C357.87479 49.3253674 357.818353 50.2639658 356.847629 50.5817521 355.93421 50.8804366 356.199032 51.5194823 356.243314 52.0343656 356.294541 52.633471 356.568046 53.2134745 356.616669 54.132971 357.690717 54.0687191 358.766502 54.0053355 360.015073 53.9315326 360.127079 54.1208152 360.383219 54.5514765 360.705346 55.0950126 360.134025 55.1905222 359.648663 55.2721394 359.118151 55.3607028L359.118151 56.9444249C360.209565 56.7325673 360.545585 57.4983803 360.850347 58.2364086 361.163792 58.997012 360.98406 59.5952491 360.084534 59.7767173 359.356925 59.9243229 358.626711 60.0693238 357.890419 60.160492 356.948348 60.27684 355.985438 60.267289 355.055522 60.4435476 353.809557 60.6797167 353.990156 59.5118953 353.444015 58.9449159 351.70661 59.8800412 350.443279 58.7408727 349.099199 57.681585 348.266529 58.8589573 348.721502 60.0736651 348.599076 61.1998096M306.00963 88.8193488C305.504298 89.5113589 304.834863 90.0644461 305.191721 91.156728 305.440046 91.9173314 304.718515 92.2707167 303.815515 91.9164631 303.607999 92.53988 301.485951 95.1438177 301.226338 95.2749263 300.505675 95.015314 299.978636 94.7721987 299.424681 94.6410902 298.875067 94.5099816 298.298536 94.4908797 297.734162 94.4231547 297.696826 94.3259086 297.659491 94.2286626 297.621287 94.1322847 297.050834 94.808666 296.478645 95.4850473 295.790976 96.3003516 294.724743 95.9434932 294.433004 96.9880204 294.006684 97.8536842 294.358333 98.2287763 294.676119 99.2272852 294.907947 100.680767 295.883881 100.764121 297.021313 100.36819 297.300027 101.971882 297.380776 102.43467 298.217787 102.91569 298.797791 103.092817 299.233662 103.226531 299.823216 102.913086 300.328548 102.750719 300.989301 102.53973 302.317752 103.1015 302.651167 103.791774 303.114823 104.75121 302.32383 105.191423 301.734275 105.42846 300.770497 105.815708 300.826935 106.511191 300.854719 107.347334 299.544502 107.914313 297.824462 106.885415 296.949247 108.167848 296.201668 107.868295 295.620796 107.636467 295.039056 107.403771M304.460899 163.674006C304.99228 162.620796 304.762189 162.120673 303.686404 162.140643 303.084694 162.152799 302.485588 162.322111 301.766662 162.440196 301.708488 161.273243 301.237018 160.536083 299.943298 160.533478 299.685422 160.532609 299.349402 160.01078 299.186167 159.665209 298.877932 159.013139 298.668679 158.313315 298.524547 157.923462 296.009172 158.319393 293.846315 158.659754 291.694745 158.998379 290.963663 160.925067 290.537343 161.307105 288.59329 160.92854 286.423486 160.506561 285.13758 161.432136 284.040957 163.14002 283.49308 163.993528 282.650859 164.657754 281.969268 165.378417 280.362971 164.255746 280.362971 164.255746 279.294132 166.126864 278.433678 166.040906 277.573224 165.900246 276.71277 165.901115 276.454894 165.901115 276.227407 166.36477 275.933064 166.501088 274.907639 166.978636 275.07261 168.398255 274.026346 168.887959 273.931705 168.932241 274.17482 169.697185 274.260779 170.126978M273.873531 170.127065C272.960981 171.241922 272.253342 172.5669 270.77989 173.106963 270.662674 173.149508 270.502044 173.38915 270.533302 173.476845 271.094203 175.086616 269.159701 175.041466 268.828022 176.059945 268.735985 176.343869 268.45814 176.562672 268.330504 176.841387 267.802597 177.995316 266.81277 178.759392 266.018305 179.692781 264.808806 181.114137 263.209455 181.497911 261.500703 181.938992 260.214797 182.269802 259.086048 183.211874 257.635171 184.022837 260.636775 186.001621 261.489415 189.037956 262.780531 191.805997 262.950711 192.171538 263.139126 192.570942 263.430864 192.828817 264.935574 194.163346 264.948598 194.148586 265.664919 195.938956 265.914112 195.938956 266.21627 195.92159 266.516691 195.942429 267.384091 196.000603 267.456157 196.235035 267.054149 196.983483 266.810166 197.437587 266.654746 198.00804 266.672979 198.51945 266.704237 199.383377 266.903939 200.241227 267.033311 201.101681M60.0203496 214.007713C60.6246646 213.842742 61.2289795 213.677771 61.8272167 213.514537 61.8272167 213.190673 61.8150609 212.888515 61.8289532 212.588094 61.8836541 211.428955 62.0052117 210.463441 60.2947225 210.170834 59.2128597 209.985025 57.8653068 209.392865 57.7602463 207.687586 57.723779 207.094558 57.1811111 206.388656 56.1513444 206.339165 55.105949 206.289673 54.0058526 206.032666 53.5413288 204.725053 53.095907 203.470405 52.1642547 202.785341 50.898319 203.179535 50.5666404 203.89933 50.2601416 204.565292 49.9536427 205.231254M281.100739 89.0771378C281.032146 89.5051942 280.964421 89.9323824 280.87933 90.4637628 280.268938 91.0941259 279.501388 91.2478094 278.8033 90.6547819 277.900301 91.3224805 277.084128 91.9259272 276.201099 92.577997 276.005738 92.0969762 275.860738 91.740986 275.680138 91.2973007 275.317201 91.5456256 275.002888 91.7609562 274.532287 92.0830839 274.203213 91.6524226 273.827252 91.3051152 273.63276 90.8761904 273.28198 90.0964852 272.851318 90.1103775 272.187961 90.4828647 271.535891 90.8492741 270.828252 91.123647 270.128428 91.3945468 269.167255 91.7652975 268.789558 92.484224 268.701863 93.4644993 268.598539 94.6123505 268.424885 95.7523872 268.277279 96.9349691 269.358274 97.5853024 269.937409 98.3736903 269.157704 99.8210942 268.884199 100.328163 268.934559 101.192959 269.573604 101.891047 270.273429 102.655991 270.970649 103.526865 270.726665 104.837082 270.647653 105.260797 270.591215 106.755088 272.072481 106.259306 272.229638 106.20721 272.466675 106.389547 272.890391 106.545835 272.479699 107.71192 272.095925 108.854561 271.674814 109.983311 271.293644 111.004394 271.178165 111.953412 272.186225 112.659315 272.00823 113.076084 271.84239 113.465068 271.676551 113.856657 271.245021 113.928723 270.813492 113.999921 270.394986 114.069383 270.205704 115.468164 270.176183 115.506367 267.657335 117.595422 267.082541 117.140449 266.479095 116.657692 265.871307 116.181012 265.38334 115.798106 265.108099 115.681758 264.661808 116.408499 264.135638 117.26548 263.247399 117.901052 262.50937 118.639949 261.617659 118.000035 260.775438 117.50599 259.531209 117.940125 258.445873 118.319558 257.540269 117.379223 256.579964 116.952903 256.404574 116.875627 256.235261 116.781854 256.063344 116.696764M62.730737 225.623411C64.1095477 226.830305 64.1955063 227.201924 63.4896038 229.018342 63.6684672 229.649573 65.1184758 229.528016 64.5376041 230.656765 65.5960236 231.473806 64.3674234 232.286505 64.5219753 233.11136 64.5758079 233.394416 64.3326927 233.756484 64.4282023 234.003941 65.0116788 235.522542 64.9161692 235.945389 63.6415508 237.117552 63.4826577 237.263421 63.4227471 237.518692 63.2716684 237.811299 64.4733522 238.476392 65.6377005 238.938311 66.9895948 238.948731 67.3785792 238.952204 67.7640904 239.346398 68.1513383 239.561728M50.3409774 298.541829C50.0396882 298.327367 49.7401355 297.9297 49.4371097 297.927963 48.0617722 297.91928 47.9471607 296.892119 47.7761118 295.957862 47.6311109 295.162527 47.4835052 294.461835 46.6074222 294.129288 46.3946963 294.048539 46.2957137 293.665632 46.1437667 293.419044 47.5729369 292.586374 47.6215599 292.095803 46.5171222 290.852442 47.0936526 289.661177 47.6554224 288.502907 48.216324 287.343768 48.7833034 287.630297 49.1618685 287.820448 49.5143856 287.999311 50.4338821 287.209187 50.4738225 286.341786 49.9580709 285.375403 49.7592374 285.002916 49.4544751 284.599171 49.4648943 284.217133 49.5048347 282.626465 48.6756381 281.512476 47.634584 280.470553 47.0476344 279.881867 46.2922406 278.585542 46.0916706 277.760687 45.8719986 276.855083 45.3319355 276.288972 44.5461524 275.806214 43.507703 275.168905 42.1861981 274.724351 42.1861981 273.117186 42.1861981 272.85931 41.8441003 272.612722 41.6982312 272.340086 41.3187977 271.631578 40.3063965 271.136665 40.9193942 270.084324L38.9840233 268.083833C39.0699819 267.524668 39.4068702 266.836131 39.1967491 266.429781 38.4413554 264.963275 37.9169211 265.023186 36.7899084 266.53571M244.318447 128.698668C243.912966 129.154509 243.542215 129.342923 242.882331 128.987801 242.121728 128.578847 241.340286 128.646572 241.091961 129.731039 239.574227 129.278671 238.538383 129.625979 238.873535 131.647308 237.68227 132.498212 236.431963 133.195431 235.47079 134.175707 235.086147 134.567296 234.512221 135.582302 235.565431 136.335091 235.153003 136.628566 234.857792 136.968059 234.501802 137.050544 234.243926 137.110455 233.638743 136.808297 233.646557 136.704105 233.772456 135.141221 232.379753 134.859902 231.550557 134.145317 231.079087 134.319839 230.606749 134.494361 230.083183 134.687117 229.915607 134.351965 229.800995 134.011604 229.596084 133.739836 229.306951 133.356929 229.049943 132.971418 228.421317 133.443756 227.981104 133.773698 227.32122 133.804956 226.767265 133.99337 226.038787 134.241695 225.580341 134.854693 225.077614 136.214401 224.819738 136.073742 224.568808 135.932214 224.313538 135.798501 224.058267 135.663919 223.797786 135.538888 223.604162 135.634398 222.335622 136.032933 221.087919 136.54608 219.789858 136.793537 218.745331 136.993238 217.85275 137.331863 217.374334 138.264384 217.108644 138.783608 216.843822 138.891274 216.31331 138.914717 215.21495 138.962472 214.937973 139.763015 214.968362 140.355175 213.487096 141.618506 211.56909 141.999675 211.382412 144.183371 211.351155 144.543703 210.976931 145.172329 210.763337 145.171461 209.076291 145.162778 209.275993 146.781231 208.932158 147.586116 208.446796 148.72268 207.947542 149.629152 206.901278 150.268198 206.660767 150.414935 206.547024 150.768321 206.375107 151.026196M307.170853 192.583792C307.773431 193.271461 308.428974 193.922662 308.953408 194.6659 309.184368 194.993237 309.305057 195.548929 309.207811 195.931836 308.863108 197.284598 309.64455 198.082537 310.34177 199.075837 310.915696 199.892878 311.513064 199.434432 312.079176 199.527336 312.752084 199.638475 313.491849 199.486528 313.62643 200.455516 313.744515 201.312497 313.243524 202.196394 312.461214 202.385677 311.289051 202.668732 311.160547 203.71326 310.78285 204.585001 310.667371 204.849823 310.526711 205.102489 310.397339 205.360365M189.080758 236.722663C188.201202 237.133354 187.317305 237.539704 187.10371 238.74052 188.06662 239.049623 189.363814 238.653693 189.798816 240.286038 189.022584 241.013647 188.047518 241.927066 186.967392 242.93773 188.446054 243.766059 187.637696 244.498009 186.870146 245.243852 186.375233 245.149211 185.896817 244.695974 185.23346 245.686669 184.662139 246.540177 183.226891 247.035959 182.097273 247.217427 181.354904 247.337248 180.284328 246.805867 179.710403 246.222391 179.047046 245.549483 178.667612 245.749184 178.109315 246.14251 177.729014 246.409069 177.346976 246.678232 176.946704 246.914401 176.001159 247.471829 175.916937 248.137791 176.755685 249.192738 176.562061 249.337739 176.354544 249.623399 176.177418 249.606034 174.839416 249.474925 173.491863 249.358577 172.179909 249.083336 171.410623 248.923575 170.874033 248.912287 170.627444 249.757981 170.412982 250.489931 169.954536 250.528135 169.331988 250.280679 168.786715 250.063611 168.392521 250.052324 167.862877 250.610621 167.358413 251.142001 166.418946 251.259217 165.652265 251.565716 165.891039 252.038923 166.227927 252.393176 166.205352 252.723987 166.14631 253.587914 166.626462 254.08109 167.117034 254.681932 167.769972 255.48074 168.00701 256.434967 167.25943 257.363146 167.209071 257.42653 167.011974 257.371829 166.882602 257.371829M245.09303 206.909357C244.412307 206.392737 243.734189 206.231239 242.890232 206.634115 241.619087 207.241035 240.582374 206.900674 239.663746 205.754559 239.555212 205.618241 239.332067 205.510576 239.155809 205.501893 238.646135 205.475845 238.271043 205.488869 237.95152 204.86632 237.501757 203.989369 237.032892 204.148262 236.564027 205.257041 235.043688 204.875871 233.672692 205.27788 232.296486 205.967285 231.815466 206.208664 231.1113 206.005489 230.509589 206.005489 230.493092 207.636966 230.493092 207.636966 228.186103 208.0711 227.876131 209.362216 227.686848 209.446438 225.811388 209.093921 225.723693 208.81347 225.625578 208.499156 225.523123 208.171819 224.015808 208.849069 223.907275 207.533642 223.410625 206.779985M307.042002 165.480959C306.998588 165.523505 306.956043 165.566918 306.913498 165.609463 307.902456 166.384827 308.85842 167.207078 309.892528 167.917321 310.656604 168.441756 311.593466 168.647535 312.110086 169.591343 312.481705 170.270329 312.624969 170.192185 313.563568 169.843141 314.443992 170.632397 315.193308 171.500666 314.903306 172.90813 315.877504 172.949806 316.559094 173.152981 316.499184 174.259156 316.481819 174.590834 316.960235 174.920776 317.097421 175.294132 317.667874 176.856147 316.483555 178.939992 314.785222 179.419276 313.719856 179.720565 313.613059 179.994938 314.000307 181.229616 314.07411 181.464917 314.098421 181.787045 313.994229 181.991956 313.7077 182.554594 313.339554 183.076424 312.95057 183.699841 310.704359 184.003735 309.508753 185.332186 309.355938 187.80762 309.335099 188.155795 309.193571 188.497025 309.106745 188.840859M276.71277 25.7087203C276.382828 26.3199815 276.053754 26.9312426 275.671716 27.6380133 275.204587 27.3263049 274.78695 27.0475906 274.301588 26.7237264 273.743291 26.6629476 273.458499 28.2753225 272.769093 27.1839088 272.326276 27.6805585 271.906034 28.0912495 271.565673 28.5592464 271.428487 28.7485289 271.438038 29.0628422 271.425882 29.3224545 271.365971 30.5849171 270.867585 31.0928543 269.614673 31.127585 269.227426 31.1380043 268.840178 31.1293216 268.533679 31.1293216 268.174216 31.6989058 268.564937 32.9995723 267.291186 32.161693M348.212263 60.8129959C347.541959 60.7886844 347.403904 61.1542255 347.572349 61.715127 347.626181 61.8965952 347.754685 62.0546201 347.82241 62.2334834 348.480558 63.9613381 348.477953 63.9596015 346.535636 64.1766687 346.394976 64.1922975 346.267341 64.3251426 346.131891 64.4041551 346.992345 65.6258091 346.981058 66.0912011 345.87662 67.1235725 345.344371 67.6193539 344.997064 68.401664 343.942986 68.2349564 343.52448 68.168968 342.990495 68.8340618 342.479953 69.1865788 342.443486 69.1657404 342.32106 69.1405606 342.281119 69.0693626 341.484049 67.6393241 340.670481 66.7528218 338.743793 67.6853423 337.915465 68.0847459 336.571385 67.4170473 335.509492 67.2425253 335.13961 68.6716955 334.476252 69.9237389 335.319341 71.2817111 334.840057 71.3850351 334.493618 71.4597062 334.144574 71.5352456L334.144574 73.731097C333.735619 73.6364557 333.171245 73.6746595 333.014956 73.4393587 332.204862 72.2246509 331.299257 72.3453402 330.293802 73.1563032 331.49375 74.9614337 330.65587 77.0279131 330.97713 79.0101705 330.401468 79.0101705 329.94389 79.1438838 329.641733 78.9841224 328.934962 78.6107669 328.568552 79.0310089 328.061484 79.3722385 327.675972 79.6309825 326.902345 79.9183795 326.698302 79.7403844 325.731919 78.8920859 325.66593 79.7976901 325.200538 80.3872446 324.775087 80.2179322 324.24197 79.9748169 323.686278 79.7976901 323.452714 79.7221508 323.164448 79.7386479 322.91786 79.7924805 321.623271 80.0772726 320.348653 80.5183531 319.04104 80.6511982 317.768159 80.7805703 316.391953 80.8291933 315.205898 80.4541012 314.693619 80.291735 314.195233 79.6283777 313.49975 79.8055045 312.87286 79.965266 312.239892 80.5808685 311.701565 80.4836224 311.115484 80.3785619 310.674404 79.548497 309.881674 80.0425419M286.134006 115.663611C285.952537 116.266189 285.402923 116.692509 285.10858 116.430292 284.314114 115.721785 283.566535 114.959445 282.773806 114.249201 282.185988 113.722162 281.776165 113.169943 281.839549 112.305148 281.857782 112.064637 281.484427 111.647868 281.218737 111.575802 280.970412 111.508077 280.584901 111.7373 280.333971 111.930924 279.554266 112.536976 278.9404 113.430424 277.743926 113.21683 276.825297 113.052727 276.301731 113.516383 276.067299 114.373364M93.1892543 248.596064L93.1892543 246.552159C92.3895788 246.464464 91.6463409 246.696292 91.0802297 245.917455 90.6252569 245.291433 90.0912717 246.105001 90.0070496 246.413236 89.7752219 247.261535 89.2377636 247.351835 88.4485074 247.293661 88.3330277 249.169989 86.6190653 249.592836 85.4364834 250.521015 85.3305546 250.604369 85.0674692 250.594818 84.9346241 250.521884 83.5479991 249.764753 82.4235912 250.803203 81.1889131 251.059342 80.9570854 251.107965 80.6019635 251.272936 80.5654962 251.440512 80.2945964 252.687346 79.5782748 252.284469 78.8350368 251.948449 77.562155 252.583153 77.8955701 253.836933 77.6698203 254.912718 77.4952983 255.747993 77.7913779 256.918419 76.5358614 257.226654 76.2623568 257.294379 75.7934917 257.268331 75.6606466 257.095546 74.8349231 256.028443 74.2323446 254.759035 75.038098 253.531303 75.6545687 252.591836 74.7107607 252.332224 74.5301608 251.850335 74.0786611 250.648651 73.2503328 249.590231 72.5739515 248.473638 73.6644969 247.827646 74.8983067 247.678304 74.8574981 246.272577 74.8488154 245.971287 74.7368087 245.669998 74.7420183 245.369577 74.7515693 244.895503 74.8114798 244.421428 74.8731269 243.950826 74.8800731 243.897862 75.0311518 243.848371 75.12232 243.8284 75.154446 243.821454 75.2065421 243.906545 75.2499555 243.94909M289.360752 78.2360221C289.921654 78.1804529 290.481687 78.1240155 290.901061 78.0823386 292.059331 79.3838733 293.208919 77.5804793 294.33159 78.3610528 294.380214 77.7654205 294.407998 77.4163765 294.448807 76.9127807 295.27453 77.3677535 295.866689 75.9403198 296.741904 76.9240682 297.143913 77.3755679 297.870654 77.2670343 298.240536 76.7964327 298.62952 76.3006513 298.281345 76.0063082 297.782958 75.6129825 296.921636 74.9313916 297.061427 74.0709374 297.879336 73.8495289 298.523592 73.6758751 299.172188 73.5161137 299.829468 73.3485378 301.189176 74.8515109 301.00163 77.0890392 299.425723 77.8461695 298.679012 78.2047644 297.91754 78.53297 297.277626 78.8229717 297.6067 81.8428101 296.669838 85.0015715 299.288536 87.5282333 299.494316 86.9343376 299.618478 86.5748743 299.734826 86.2397226 301.058068 86.2041236 300.173302 87.4127536 300.691658 87.779163 301.511304 88.0066493 302.019241 86.6148147 302.911821 87.3997296L302.782449 86.2379861 302.524574 83.5272513M220.184573 207.812877C220.26098 208.97462 220.338256 210.137232 220.413796 211.283347 220.973829 211.562929 221.507814 211.830356 222.225872 212.188951 221.572934 212.697756 221.071075 213.088477 220.573557 213.475725 220.878319 213.830847 221.340238 214.140819 221.428802 214.534145 221.513892 214.917051 221.340238 215.503132 221.062392 215.789661 220.480652 216.387898 220.771522 216.846344 221.145746 217.309131 219.728732 218.709649 218.370759 220.057202 217.965278 222.411078 217.149974 222.300808 215.992572 222.361587 215.053973 221.937871 214.412323 221.648738 213.986871 221.702571 213.618725 222.028171 212.48303 223.031022 211.150237 223.188178 209.730618 223.189915 209.385915 223.190783 209.046422 223.441713 208.697378 223.555456 207.904649 223.813332 207.380215 224.715463 206.36955 224.485372 206.192423 224.445431 205.888529 224.673786 205.738319 224.856122 204.467173 226.396431 202.833092 226.754158 200.954158 226.399036 199.353939 226.097747 198.834715 226.529276 198.324173 227.928057 198.06977 228.62354 197.704229 229.354622 197.297011 229.982381 196.928865 230.551097 196.937548 230.97047 197.059105 231.564366 197.212789 232.318892 197.193687 233.108148 197.258807 234.012015 196.442635 234.012015 195.794906 234.007674 195.147178 234.012884 194.080075 234.022435 192.923542 233.601324 192.241082 235.012261 192.092609 235.31876 191.094968 235.322233 190.502809 235.275346 189.820349 235.220645 189.155256 234.956692 188.482347 234.783038L188.177585 235.113848C188.349502 235.607025 188.52142 236.100202 188.693337 236.59251M297.491394 119.019209C298.369213 118.530374 299.106373 118.71271 299.965959 119.240617 300.917582 119.824962 301.838815 120.771375 303.169003 120.306851 303.349602 120.243468 303.527597 120.156641 303.683886 120.048975 305.130421 119.053071 307.465196 119.267534 307.888043 120.586434 308.138104 121.367876 308.543586 122.032101 308.84748 122.762315 308.969037 123.054053 309.079307 123.351001 309.193919 123.645344 309.303321 123.458666 309.412722 123.271989 309.522124 123.085311 310.31659 122.942047 311.111056 122.798782 312.013187 122.636416 312.060942 123.232917 312.089595 123.581961 312.113038 123.875435 312.976097 124.33475 314.123948 124.127233 314.43392 125.334127 314.47386 125.486942 315.066888 125.671015 315.290901 125.575505 316.493453 125.062359 317.085613 125.935837 317.592682 126.6565 318.097146 127.372822 318.28556 128.204623 319.27365 128.635284 319.941348 128.925286 319.838024 130.052299 320.548268 130.685267 321.692646 131.704614 321.881929 131.926022 323.432657 131.409403M294.910378 107.145809C294.866965 107.447098 294.745407 107.761411 294.79403 108.047071 295.07014 109.643818 293.954415 110.281127 292.840426 110.879364 291.251494 111.732872 291.237602 111.706824 291.672605 113.36348 291.195925 113.661297 290.690593 113.907017 290.278165 114.260402 290.00987 114.490493 289.34304 114.744896 290.006397 115.276276 289.705108 115.620979 289.259686 116.308648 289.125973 116.25221 288.321087 115.914454 288.126595 116.376373 287.940786 116.953771M376.347467 45.9710719C375.616384 46.0144853 374.885302 46.081342 374.153352 46.0926295 373.522989 46.1021805 373.279873 46.4295178 373.10101 46.9973655 372.896967 47.6442256 371.894985 47.9811139 371.603247 47.5009613 370.732373 46.0674497 370.169735 47.1909894 369.679163 47.5851834 368.434066 47.4367094 367.351335 47.3090739 366.465701 47.2031451 364.684882 47.7319208 363.020411 48.2268339 361.318604 48.7330345 361.031207 48.3379723 360.760308 47.7744659 360.321832 47.4184758 359.947608 47.1145817 359.381497 47.021677 359.051555 47.6476987 358.615684 48.4734222 357.711816 47.9272812 357.117921 48.2945588M255.288848 118.115775C254.828666 117.933439 254.495251 117.67209 253.844917 117.924756 252.988805 118.257303 251.852241 117.718977 251.148943 118.753953 250.931008 119.075212 250.594988 119.315723 250.239866 119.665635 248.966984 118.557724 248.325334 120.005128 247.41452 120.706689 247.448382 120.913337 247.505688 121.254567 247.597724 121.812863 245.885499 121.179895 245.286393 123.0432 243.878062 123.287183 243.667072 124.021739 243.896295 124.528808 244.559652 124.981176 244.915643 125.225159 245.170914 125.700102 245.335016 126.123817 245.698821 127.057206 244.72115 127.189183 244.121177 127.900295 244.580491 128.257153 245.030254 128.607066 245.480017 128.956978"/>
      <path d="M71.1196015 304.736752C71.2055601 304.478876 71.234213 304.178456 71.3870282 303.969203 72.3794593 302.614704 71.3644533 300.120168 69.6973774 299.990796 69.1781528 299.950855 68.6311435 300.259959 67.9347921 300.453583 67.6091913 299.962143 66.9623312 299.839717 66.2460095 300.272983 65.1172603 298.289857 64.4478251 298.107521 61.9498162 298.777824 60.9921159 299.034832 59.964954 299.0357 58.8674624 299.165072 58.1476677 298.261205 58.135512 297.593506 58.9924931 296.609758 59.6584552 295.844813 59.0732421 295.408074 58.5297059 294.855855 58.7615337 294.504206 59.0046489 294.135192 59.3849506 293.556057 58.7033597 293.031622 58.0799428 292.311828 57.2950279 291.997515 55.5359156 291.293349 53.6891082 291.860328 51.8926603 292.000119 51.0573859 292.065239 50.2247162 292.500242 49.4476158 292.883149 48.8207258 293.190516 48.6019221 294.033605 49.0820747 294.36702 50.5112449 295.361187 49.9156126 296.565476 49.6959406 297.768028M156.299449 85.592602C155.854895 84.4812181 156.637205 83.6320514 157.21634 82.4390502 157.846703 81.1401203 159.176023 80.5991889 159.724768 79.2976542 159.946177 78.7749565 160.915165 78.3842356 161.597624 78.2800433 162.767182 78.1003117 164.020094 78.5900153 165.007315 77.3822535 165.244352 77.0913835 166.249807 77.3536007 166.88017 77.4768948 167.922961 77.680938 168.937099 78.0490839 169.985099 78.1966896 170.348036 78.2479174 170.774355 77.8467773 171.297053 77.5897698 172.147956 78.660345 173.325329 79.5008291 174.626863 80.1711325 175.924925 80.8379628 177.228196 81.4961105 178.692097 82.241085L178.692097 82.8757894C179.527372 82.9235441 180.18031 83.1458209 180.433844 83.9793588M60.2785727 214.265936C60.8490252 214.679232 61.4194777 215.093396 62.0698109 215.563998 61.446394 216.005947 60.4296514 215.992055 60.6510599 217.10778 60.7899829 217.809341 60.5902811 218.500483 61.1251346 219.213331 61.5071728 219.723005 61.4568132 220.63816 61.4177412 221.362296 61.3474114 222.655148 61.7381323 223.652789 62.9649959 224.363033 62.7965518 224.728574 62.6341855 225.079354 62.4726876 225.429267M137.456543 237.883452C137.804718 237.948572 138.152894 238.012824 138.688616 238.113543 138.337835 238.761271 138.042624 239.303939 137.703131 239.929961 138.817988 240.52212 136.84094 242.496563 138.97254 242.774409 138.690352 243.194651 138.424662 243.59145 138.278793 243.809385 137.735257 243.708666 137.322829 243.531539 136.944264 243.58624 136.357315 243.672199 136.077732 244.064656 136.15414 244.725409 136.272224 245.751702 135.756473 246.342993 134.747544 246.537485 134.524399 246.580031 134.250026 246.644283 134.111972 246.798834 133.095229 247.931925 131.758095 248.079531 130.502579 247.028926 129.814042 246.452395 129.248799 246.182364 128.551579 246.917787M48.1469493 204.198969C48.1044041 204.844093 48.2763213 205.631612 47.9663494 206.101346 47.515718 206.784673 47.5226641 207.485366 47.3229624 208.185191 47.0485895 209.145496 46.4260408 210.00595 45.9528344 210.909818 45.515227 211.747697 44.6721381 211.966501 43.95408 212.431024 42.3199983 213.490312 41.5672094 212.637672 40.4940293 211.730331 40.0937575 211.392575 39.2506686 211.579253 38.5317422 211.52021L38.5317422 214.61993C37.50979 214.817895 36.5460118 215.004573 35.4103163 215.225113 35.9095708 215.911045 36.2403812 216.36515 36.6771203 216.965991 35.7437315 217.672762 34.8450735 218.353485 33.9221039 219.052441 34.0167452 219.68975 34.1122547 220.333137 34.2086325 220.976524M323.69088 139.152623C323.180338 140.174575 322.721024 141.187844 322.615095 142.374768 322.555184 143.041598 322.042906 143.664146 321.760718 144.317953 321.638292 144.602745 321.452483 145.148018 321.515867 145.183617 322.590783 145.789668 322.283416 146.900184 322.546502 147.859621 321.921348 148.111419 321.172032 148.232976 321.192871 149.220198 321.19808 149.471996 320.589424 149.997298 320.342836 149.952148 318.330189 149.59008 317.685065 151.29015 316.587574 152.311234 316.319279 152.561295 316.000624 152.763602 315.686311 152.958094 315.179242 153.273276 314.590556 153.491211 314.15729 153.884537 313.645011 154.349929 313.223033 154.731099 312.543178 153.828099 312.268805 154.864812 310.850923 155.077538 311.525567 156.335659 311.567244 156.412935 311.163499 156.81668 310.905624 156.94692 310.522717 157.139676 310.085978 157.22303 309.671814 157.352402 309.708281 157.447911 309.744748 157.543421 309.782084 157.638062 309.487741 157.343719 309.19253 157.049376 308.898186 156.754165 308.84609 156.868776 308.794862 156.983388 308.742766 157.097131 308.305159 157.181353 307.86321 157.249946 307.429944 157.35327 306.535627 157.566864 305.570981 157.530397 305.198494 158.758997 304.855528 159.886878 304.20259 160.920986 303.68597 161.996771M304.589751 69.0085838C303.513966 68.857505 302.440786 68.6864561 301.361528 68.5692398 301.026376 68.5327725 300.61829 68.54406 300.340444 68.7029532 299.202144 69.3567595 298.102047 70.075686 296.981981 70.7746422 297.421324 72.2559086 297.212072 72.5372276 295.684787 72.5624074 294.907687 72.5745632 294.152293 72.3792027 293.774596 73.5574433 293.627859 74.0167574 292.328929 74.1070573 291.554433 74.3649331 291.804495 75.954733 292.170036 75.9964099 293.642619 75.3165556 294.754871 74.8025405 295.775087 73.6928932 297.23291 74.2355611M180.433757 84.1731564C181.308972 84.8417233 182.185055 85.5094219 183.140151 86.2387675 183.733178 85.797687 184.320128 85.8480466 185.107648 86.3203848 186.166067 86.9550892 187.183678 86.1224195 188.176977 85.7221477M98.7384461 74.8808584C98.5665289 75.1821476 98.1749398 75.6388569 98.2591618 75.7578097 98.6959009 76.3734122 99.3366832 76.8492234 99.7456378 77.4787182 100.085131 77.9996794 100.167616 78.6821386 100.430702 79.262142 100.564415 79.5573534 100.81274 79.9637031 101.068011 80.0123261 102.129035 80.215501 102.310503 81.2252975 102.820177 81.8869182 103.017274 82.1421892 102.672571 82.8150974 102.551882 83.4089931 102.66823 83.4854008 102.891375 83.6460305 103.127544 83.7840852 103.818686 84.1878301 104.074825 84.6341202 103.684973 85.4824187 103.45575 85.9799366 103.40539 86.8282351 103.683236 87.2432675 105.004741 89.2098961 106.667476 90.9733497 106.998286 93.4652808 108.318922 93.8664209 106.961819 94.8553789 107.448917 95.5743053 107.789279 96.0752963 107.514906 96.9930563 107.509696 97.7241385 107.509696 97.7250068 107.420264 97.7397674 107.38727 97.7206655 107.336911 97.6911443 107.299575 97.6381799 107.25703 97.5956348M175.91685 289.37925C174.540644 289.550299 173.159229 289.694432 171.789101 289.908026 171.174367 290.003536 170.537926 290.157219 169.998731 290.446353 169.721753 290.593958 169.54289 291.085398 169.485584 291.447466 169.404835 291.966691 169.381392 292.581425 170.237505 292.476365M203.40641 133.732282C203.632159 134.589263 203.857909 135.447112 204.085396 136.312776 205.931335 136.947481 207.860628 135.367232 209.943604 136.422178 208.167127 138.444376 206.493105 140.351962 204.889413 142.177063 205.8584 143.714767 206.717118 145.07708 207.713022 146.656461 207.996078 145.570257 208.696771 145.722204 209.343631 145.734359M310.268314 79.7847529C310.320411 79.3150196 310.371638 78.8461545 310.426339 78.3538462 309.711754 78.2583366 309.020612 78.3625289 308.618604 78.0690541 307.814587 77.4821044 306.505238 77.0036884 307.397818 75.5067932 307.515903 75.308828 307.205931 74.8547235 307.099134 74.5325958 307.802431 74.2313066 308.436268 73.9586702 309.143906 73.6547762 307.684347 71.9512331 307.289285 71.8400947 305.751581 72.5572846M307.558361 83.7856481C306.919315 83.5477425 306.337575 83.271633 306.343653 84.43164 306.34539 84.7320609 305.695057 85.035955 305.220982 85.4457778 304.762536 84.7468215 304.409151 84.2076267 304.062711 83.6814558 303.559984 83.7578635 303.042496 83.8368759 302.525008 83.9150201M74.9916456 243.820586C74.2805336 243.109474 73.5694215 242.397494 72.8166326 241.645573 71.7894708 242.481716 71.182551 241.889557 70.5947331 241.117666 70.3741929 240.827664 70.0511969 240.615806 69.7742192 240.36835 69.6300866 240.427392 69.485954 240.485566 69.3418214 240.545477 69.5041877 239.78661 69.6665539 239.028611 69.8289201 238.270613M267.033311 32.0324946C266.295282 31.9751889 265.667524 32.0385725 265.193449 32.7861518 264.952939 33.164717 264.361648 33.316664 263.937065 33.5823542 263.116551 34.0946327 262.301246 34.6138574 261.483337 35.129609M37.8222799 258.791361C36.2602645 258.791361 36.3019414 258.797439 36.1187367 260.207507 36.0649041 260.618198 35.7002313 260.988949 35.4770862 261.377933 35.3789718 261.347544 35.279121 261.316286 35.1810066 261.285029 35.3781036 261.570689 35.5743323 261.856349 35.8209206 262.214076 35.5491525 262.570066 35.2660969 262.93908 34.9830413 263.308095M282.391247 83.7856481C280.865699 84.38649 280.84486 84.4333765 281.551631 85.9910505 280.185844 86.7820432 280.718093 87.8665108 281.233845 88.9457687 281.242527 88.9631341 281.325013 88.9631341 281.357139 88.9449005 281.407498 88.9145111 281.444834 88.8624149 281.487379 88.8190015M245.351253 207.038294C245.194096 207.23105 245.037808 207.423806 244.779932 207.741592 246.217785 208.246056 247.508901 208.699292 249.200288 209.293188 250.099814 209.028366 251.47081 208.624621 252.927765 208.195697 253.25163 208.469201 253.626722 208.787856 253.906304 209.024893 254.712057 208.84603 255.444876 208.683664 256.204611 208.515219 255.511733 206.182182 257.887316 207.77285 258.356181 206.712694 258.312768 206.51907 258.225941 206.13269 258.108724 205.607388 258.593218 205.567447 259.181036 205.33562 259.524002 205.531848 260.15697 205.893916 260.479098 205.673376 260.838561 205.231427M272.3248 112.695435C273.324178 112.539146 273.099296 113.335349 273.070643 113.987418 274.191578 114.003915 275.201374 113.098311 276.132158 113.985682M35.3701155 263.308268C36.1706592 263.996805 35.7217643 264.685342 35.3657742 265.369538 35.8433219 265.890499 36.3165283 266.406251 36.7897348 266.922002M264.710084 204.715415C263.873941 204.724098 263.023038 204.343796 262.217285 205.056645 262.021056 205.22943 261.150183 205.436947 260.838474 204.715415M308.074286 85.9796762C307.429163 86.3235105 306.769279 86.6439017 306.14152 87.0172572 305.075286 87.6528299 305.025795 87.9558556 305.751668 88.9482867M295.297453 120.56794C294.607179 119.679701 294.226009 118.265291 292.577167 118.997242 292.481657 119.039787 292.203811 118.791462 292.077912 118.627359 291.515274 117.889331 290.759881 117.67921 289.876851 117.720018 289.578167 117.733042 289.177027 117.747803 288.992954 117.578491 288.552742 117.171273 288.161152 117.053188 287.544682 117.163458 287.206925 117.223369 286.779737 116.782288 286.392489 116.566958M267.162249 201.359731C267.592042 201.832937 267.461801 202.145514 266.906109 202.397312 265.798198 202.899171 265.19041 203.795224 264.968134 204.973465M261.096611 35.1299563C261.59326 35.8089424 261.595865 35.8358587 261.095742 36.0320874 260.470589 36.2778074 259.841962 36.5131082 259.289743 36.7249658L259.289743 38.6073722C258.801776 38.3399455 258.464888 38.154136 258.128 37.9691948M304.847974 163.674006C304.976477 163.889336 305.221329 164.107272 305.215251 164.319129 305.187467 165.410543 305.655463 165.860306 306.783344 165.738748M304.460899 70.7505912C304.934106 71.267211 305.407312 71.7829626 305.880519 72.2995825"/>
      <path d="M304.073391 69.0730093C303.697431 69.5036706 303.604526 69.9134934 304.060367 70.3762806 304.188871 70.5073891 304.15935 70.7939178 304.202763 71.0083801M297.10432 119.535568C296.459196 119.922816 295.813204 120.309196 295.170685 120.700785 295.151583 120.712072 295.176763 120.785007 295.166344 120.825815 295.154188 120.870965 295.125535 120.911774 295.103829 120.955187M50.9861878 206.522282C50.7708572 206.350365 50.5069035 206.214047 50.3506152 205.998716 49.8843549 205.360539 49.6516589 204.423677 48.5341971 204.715415M255.934059 116.438193C255.8481 117.212689 255.762142 117.987185 255.676183 118.760812M308.138712 83.2697228C307.815716 83.9573916 307.440624 84.6294316 307.208796 85.3466215 307.150622 85.5237483 307.558708 85.8510856 307.751464 86.1089614M69.3127344 238.916171C68.7388088 239.259137 67.9842834 239.437132 68.0224872 240.33579"/>
    </g>
    <g transform="translate(206 246)">
      <path fill="#4176F9" d="M23.0103,12.238 C23.0103,18.59 11.5103,35.238 11.5103,35.238 C11.5103,35.238 0.0103,18.59 0.0103,12.238 C0.0103,5.886 5.1593,0.738 11.5103,0.738 C17.8613,0.738 23.0103,5.886 23.0103,12.238"/>
      <path fill="#FFF2E6" d="M11.5102,6.238 C8.4722,6.238 6.0102,8.701 6.0102,11.738 C6.0102,14.775 8.4722,17.238 11.5102,17.238 C14.5482,17.238 17.0102,14.775 17.0102,11.738 C17.0102,8.701 14.5482,6.238 11.5102,6.238"/>
    </g>
  </g>
</svg>
